<svg width="1116" height="249" viewBox="0 0 1116 249" fill="none" xmlns="http://www.w3.org/2000/svg">
<path d="M0.555908 3.27181H110.367V118H67.0983V38.0181H43.8248V118H0.555908V3.27181Z" fill="#FF3ABC"/>
<path d="M143.311 77.5174C136.755 74.0209 131.947 69.4864 128.888 63.9139C125.828 58.3414 124.298 51.9494 124.298 44.7379C124.298 38.0727 125.282 32.1724 127.249 27.0369C129.215 21.9015 132.275 17.5855 136.427 14.0891C140.579 10.4833 145.878 7.80631 152.325 6.05807C158.881 4.20057 166.748 3.27181 175.926 3.27181H227.554V118H184.285V84.2372H181.007L163.634 118H119.382L143.311 77.5174ZM168.551 44.7379C168.551 47.4695 169.37 49.8187 171.009 51.7855C172.648 53.7522 175.434 54.7356 179.368 54.7356H184.285V34.7401H179.368C175.544 34.7401 172.757 35.7235 171.009 37.6903C169.37 39.657 168.551 42.0062 168.551 44.7379Z" fill="#FF3ABC"/>
<path d="M267.355 38.0181H237.362V3.27181H340.617V38.0181H310.624V118H267.355V38.0181Z" fill="#FF3ABC"/>
<path d="M350.439 3.27181H393.707V52.4411L421.898 3.27181H461.889V118H418.62V68.8308L390.429 118H350.439V3.27181Z" fill="#FF3ABC"/>
<path d="M557.894 118H474.962V3.27181H518.231V83.2538H539.866V3.27181H583.134V83.2538H594.607V139.307H557.894V118Z" fill="#FF3ABC"/>
<path d="M603.647 3.27181H693.791V34.7401H646.916V46.5407H688.874V73.0921H646.916V86.5317H693.791V118H603.647V3.27181Z" fill="#FF3ABC"/>
<path d="M704.483 3.27181H747.751V42.4433H772.664V3.27181H815.933V118H772.664V77.1896H747.751V118H704.483V3.27181Z" fill="#FF3ABC"/>
<path d="M855.721 38.0181H825.728V3.27181H928.984V38.0181H898.99V118H855.721V38.0181Z" fill="#FF3ABC"/>
<path d="M991.329 120.458C983.243 120.458 975.595 119.311 968.383 117.017C961.281 114.722 955.053 111.226 949.699 106.527C944.345 101.72 940.083 95.6007 936.915 88.1707C933.855 80.7407 932.326 71.8356 932.326 61.4554V58.1775C932.326 48.3436 933.855 39.8756 936.915 32.7734C940.083 25.5619 944.345 19.6069 949.699 14.9085C955.053 10.1009 961.281 6.54977 968.383 4.25521C975.595 1.96064 983.243 0.813354 991.329 0.813354C999.414 0.813354 1007.01 1.96064 1014.11 4.25521C1021.32 6.54977 1027.6 10.1009 1032.96 14.9085C1038.31 19.6069 1042.52 25.5619 1045.58 32.7734C1048.75 39.8756 1050.33 48.3436 1050.33 58.1775V61.4554C1050.33 71.617 1048.75 80.4129 1045.58 87.8429C1042.52 95.2729 1038.31 101.446 1032.96 106.363C1027.6 111.171 1021.32 114.722 1014.11 117.017C1007.01 119.311 999.414 120.458 991.329 120.458ZM991.329 85.3844C995.918 85.3844 999.524 83.5816 1002.15 79.9758C1004.77 76.2608 1006.08 70.0873 1006.08 61.4554V58.1775C1006.08 50.3104 1004.77 44.6286 1002.15 41.1321C999.524 37.6356 995.918 35.8874 991.329 35.8874C986.74 35.8874 983.134 37.6356 980.511 41.1321C977.889 44.6286 976.578 50.3104 976.578 58.1775V61.4554C976.578 70.0873 977.889 76.2608 980.511 79.9758C983.134 83.5816 986.74 85.3844 991.329 85.3844Z" fill="#FF3ABC"/>
<path d="M1056.85 54.7356H1112.57V89.4819H1056.85V54.7356Z" fill="#FF3ABC"/>
<path d="M0.555908 131.272H66.9344C79.9369 131.272 89.6068 133.73 95.9442 138.647C102.282 143.564 105.45 151.322 105.45 161.921C105.45 167.821 103.975 172.902 101.025 177.163C98.1841 181.315 94.196 184.32 89.0605 186.177C103.265 189.455 110.367 198.579 110.367 213.548C110.367 224.256 106.98 232.342 100.206 237.805C93.4311 243.268 82.2861 246 66.7705 246H0.555908V131.272ZM53.6587 217.81C58.7941 217.81 62.2906 217.154 64.1481 215.843C66.1149 214.532 67.0983 212.237 67.0983 208.959C67.0983 205.791 66.1149 203.551 64.1481 202.239C62.1813 200.928 58.5756 200.273 53.3309 200.273H43.8248V217.81H53.6587ZM51.528 175.36C55.243 175.36 57.92 174.759 59.559 173.557C61.3072 172.246 62.1813 170.17 62.1813 167.329C62.1813 164.488 61.3072 162.467 59.559 161.265C57.92 160.063 55.3523 159.462 51.8558 159.462H43.8248V175.36H51.528Z" fill="#FF3ABC"/>
<path d="M185.407 230.594H155.577L151.48 246H111.489L152.135 131.272H195.404L236.051 246H189.504L185.407 230.594ZM163.936 199.125H176.884L170.492 170.607L163.936 199.125Z" fill="#FF3ABC"/>
<path d="M264.313 205.517C257.757 202.021 252.949 197.486 249.89 191.914C246.831 186.341 245.301 179.949 245.301 172.738C245.301 166.073 246.284 160.172 248.251 155.037C250.218 149.901 253.277 145.586 257.429 142.089C261.581 138.483 266.881 135.806 273.327 134.058C279.883 132.201 287.75 131.272 296.929 131.272H348.556V246H305.287V212.237H302.009L284.636 246H240.384L264.313 205.517ZM289.553 172.738C289.553 175.469 290.373 177.819 292.012 179.785C293.651 181.752 296.437 182.736 300.37 182.736H305.287V162.74H300.37C296.546 162.74 293.76 163.724 292.012 165.69C290.373 167.657 289.553 170.006 289.553 172.738Z" fill="#FF3ABC"/>
<path d="M402.617 131.272H512.428V246H469.159V166.018H445.886V246H402.617V131.272Z" fill="#FF3ABC"/>
<path d="M581.265 248.458C573.179 248.458 565.531 247.311 558.319 245.017C551.217 242.722 544.989 239.226 539.635 234.527C534.281 229.72 530.02 223.601 526.851 216.171C523.792 208.741 522.262 199.836 522.262 189.455V186.177C522.262 176.344 523.792 167.876 526.851 160.773C530.02 153.562 534.281 147.607 539.635 142.909C544.989 138.101 551.217 134.55 558.319 132.255C565.531 129.961 573.179 128.813 581.265 128.813C589.351 128.813 596.945 129.961 604.047 132.255C611.258 134.55 617.541 138.101 622.895 142.909C628.249 147.607 632.456 153.562 635.515 160.773C638.684 167.876 640.268 176.344 640.268 186.177V189.455C640.268 199.617 638.684 208.413 635.515 215.843C632.456 223.273 628.249 229.446 622.895 234.363C617.541 239.171 611.258 242.722 604.047 245.017C596.945 247.311 589.351 248.458 581.265 248.458ZM581.265 213.384C585.854 213.384 589.46 211.582 592.082 207.976C594.705 204.261 596.016 198.087 596.016 189.455V186.177C596.016 178.31 594.705 172.629 592.082 169.132C589.46 165.636 585.854 163.887 581.265 163.887C576.676 163.887 573.07 165.636 570.448 169.132C567.825 172.629 566.514 178.31 566.514 186.177V189.455C566.514 198.087 567.825 204.261 570.448 207.976C573.07 211.582 576.676 213.384 581.265 213.384Z" fill="#FF3ABC"/>
<path d="M700.872 248.458C693.551 248.458 686.613 247.639 680.057 246C673.501 244.361 667.71 241.684 662.684 237.969C657.767 234.145 653.778 229.173 650.719 223.054C647.769 216.826 646.185 209.178 645.966 200.109H685.301C685.848 204.589 687.541 207.921 690.382 210.106C693.223 212.292 696.72 213.384 700.872 213.384C708.739 213.384 713.874 209.888 716.278 202.895H691.53V174.705H716.77C715.568 170.771 713.656 167.985 711.033 166.346C708.411 164.707 705.024 163.887 700.872 163.887C696.72 163.887 693.223 165.035 690.382 167.329C687.541 169.515 685.848 172.792 685.301 177.163H645.966C646.185 168.313 647.824 160.828 650.883 154.709C653.942 148.59 657.985 143.619 663.011 139.794C668.038 135.861 673.774 133.075 680.221 131.436C686.776 129.687 693.66 128.813 700.872 128.813C708.848 128.813 716.333 129.906 723.326 132.091C730.428 134.277 736.601 137.718 741.846 142.417C747.2 147.006 751.407 152.906 754.466 160.118C757.526 167.329 759.055 176.016 759.055 186.177V189.455C759.055 200.163 757.526 209.287 754.466 216.826C751.516 224.256 747.419 230.32 742.174 235.019C737.038 239.717 730.92 243.159 723.817 245.344C716.715 247.42 709.067 248.458 700.872 248.458Z" fill="#FF3ABC"/>
<path d="M821.272 248.458C811.22 248.458 802.643 247.257 795.54 244.853C788.547 242.34 782.811 238.898 778.331 234.527C773.961 230.157 770.737 224.912 768.661 218.793C766.585 212.674 765.547 205.9 765.547 198.47H804.883C804.883 200.655 804.992 202.95 805.21 205.353C805.429 207.648 806.03 209.779 807.013 211.745C808.106 213.603 809.745 215.187 811.93 216.498C814.225 217.7 817.339 218.301 821.272 218.301C824.769 218.301 827.555 217.646 829.631 216.335C831.707 214.914 832.745 212.62 832.745 209.451C832.745 207.921 832.527 206.61 832.09 205.517C831.652 204.425 830.833 203.551 829.631 202.895C828.538 202.239 826.954 201.802 824.878 201.584C822.911 201.256 820.344 201.092 817.175 201.092H810.619V174.541H817.175C821.655 174.541 824.823 173.94 826.681 172.738C828.538 171.427 829.467 169.351 829.467 166.51C829.467 161.484 826.462 158.97 820.453 158.97C817.175 158.97 814.553 159.462 812.586 160.446C810.619 161.429 809.089 162.74 807.997 164.379C807.013 166.018 806.358 167.876 806.03 169.952C805.811 172.028 805.702 174.158 805.702 176.344H766.367C766.367 160.172 771.01 148.208 780.298 140.45C789.585 132.692 802.97 128.813 820.453 128.813C828.757 128.813 836.187 129.469 842.743 130.78C849.408 132.091 855.035 134.113 859.624 136.844C864.213 139.576 867.71 143.018 870.114 147.17C872.518 151.322 873.719 156.239 873.719 161.921C873.719 167.821 872.135 172.902 868.966 177.163C865.798 181.315 861.427 184.32 855.855 186.177C869.95 189.455 876.997 198.579 876.997 213.548C876.997 224.366 872.19 232.888 862.574 239.116C853.068 245.344 839.301 248.458 821.272 248.458Z" fill="#FF3ABC"/>
<path d="M886.786 131.272H930.055V180.441L958.246 131.272H998.237V246H954.968V196.831L926.777 246H886.786V131.272Z" fill="#FF3ABC"/>
<path d="M1031.14 205.517C1024.59 202.021 1019.78 197.486 1016.72 191.914C1013.66 186.341 1012.13 179.949 1012.13 172.738C1012.13 166.073 1013.11 160.172 1015.08 155.037C1017.05 149.901 1020.11 145.586 1024.26 142.089C1028.41 138.483 1033.71 135.806 1040.16 134.058C1046.71 132.201 1054.58 131.272 1063.76 131.272H1115.38V246H1072.12V212.237H1068.84L1051.46 246H1007.21L1031.14 205.517ZM1056.38 172.738C1056.38 175.469 1057.2 177.819 1058.84 179.785C1060.48 181.752 1063.27 182.736 1067.2 182.736H1072.12V162.74H1067.2C1063.37 162.74 1060.59 163.724 1058.84 165.69C1057.2 167.657 1056.38 170.006 1056.38 172.738Z" fill="#FF3ABC"/>
</svg>
