<svg width="714" height="374" viewBox="0 0 714 374" fill="none" xmlns="http://www.w3.org/2000/svg">
<path d="M0.555908 0.271729H110.367V115H67.0983V35.018H43.8248V115H0.555908V0.271729Z" fill="#FF3ABC"/>
<path d="M137.574 74.5173C131.018 71.0208 126.211 66.4863 123.151 60.9138C120.092 55.3413 118.562 48.9493 118.562 41.7378C118.562 35.0726 119.545 29.1723 121.512 24.0369C123.479 18.9014 126.538 14.5854 130.69 11.089C134.843 7.48322 140.142 4.80622 146.589 3.05799C153.144 1.20048 161.012 0.271729 170.19 0.271729H221.817V115H178.549V81.2371H175.271L157.897 115H113.645L137.574 74.5173ZM162.814 41.7378C162.814 44.4694 163.634 46.8186 165.273 48.7854C166.912 50.7521 169.698 51.7355 173.632 51.7355H178.549V31.74H173.632C169.807 31.74 167.021 32.7234 165.273 34.6902C163.634 36.657 162.814 39.0062 162.814 41.7378Z" fill="#FF3ABC"/>
<path d="M255.883 35.018H225.889V0.271729H329.145V35.018H299.151V115H255.883V35.018Z" fill="#FF3ABC"/>
<path d="M333.229 0.271729H376.498V49.441L404.689 0.271729H444.68V115H401.411V65.8307L373.22 115H333.229V0.271729Z" fill="#FF3ABC"/>
<path d="M534.949 115H452.017V0.271729H495.285V80.2537H516.92V0.271729H560.189V80.2537H571.662V136.307H534.949V115Z" fill="#FF3ABC"/>
<path d="M574.965 0.271729H665.109V31.74H618.234V43.5407H660.192V70.092H618.234V83.5316H665.109V115H574.965V0.271729Z" fill="#FF3ABC"/>
<path d="M666.786 51.7355H711.5V86.4818H666.786V51.7355Z" fill="#FF3ABC"/>
<path d="M0.555908 128.272H43.8248V167.443H68.7372V128.272H112.006V243H68.7372V202.189H43.8248V243H0.555908V128.272Z" fill="#FF3ABC"/>
<path d="M153.434 163.018H123.441V128.272H226.696V163.018H196.703V243H153.434V163.018Z" fill="#FF3ABC"/>
<path d="M290.68 245.458C282.594 245.458 274.946 244.311 267.734 242.017C260.632 239.722 254.404 236.226 249.05 231.527C243.696 226.719 239.435 220.601 236.266 213.171C233.207 205.741 231.677 196.835 231.677 186.455V183.177C231.677 173.344 233.207 164.875 236.266 157.773C239.435 150.562 243.696 144.607 249.05 139.908C254.404 135.101 260.632 131.55 267.734 129.255C274.946 126.961 282.594 125.813 290.68 125.813C298.766 125.813 306.36 126.961 313.462 129.255C320.673 131.55 326.956 135.101 332.31 139.908C337.664 144.607 341.871 150.562 344.93 157.773C348.099 164.875 349.683 173.344 349.683 183.177V186.455C349.683 196.617 348.099 205.413 344.93 212.843C341.871 220.273 337.664 226.446 332.31 231.363C326.956 236.171 320.673 239.722 313.462 242.017C306.36 244.311 298.766 245.458 290.68 245.458ZM290.68 210.384C295.269 210.384 298.875 208.581 301.497 204.976C304.12 201.261 305.431 195.087 305.431 186.455V183.177C305.431 175.31 304.12 169.629 301.497 166.132C298.875 162.636 295.269 160.887 290.68 160.887C286.091 160.887 282.485 162.636 279.863 166.132C277.24 169.629 275.929 175.31 275.929 183.177V186.455C275.929 195.087 277.24 201.261 279.863 204.976C282.485 208.581 286.091 210.384 290.68 210.384Z" fill="#FF3ABC"/>
<path d="M361.117 128.272H427.496C440.498 128.272 450.168 130.73 456.506 135.647C462.843 140.564 466.012 148.322 466.012 158.921C466.012 164.821 464.537 169.902 461.587 174.163C458.746 178.315 454.758 181.32 449.622 183.177C463.827 186.455 470.929 195.579 470.929 210.548C470.929 221.256 467.542 229.342 460.767 234.805C453.993 240.268 442.848 243 427.332 243H361.117V128.272ZM414.22 214.81C419.356 214.81 422.852 214.154 424.71 212.843C426.676 211.532 427.66 209.237 427.66 205.959C427.66 202.79 426.676 200.55 424.71 199.239C422.743 197.928 419.137 197.273 413.892 197.273H404.386V214.81H414.22ZM412.09 172.36C415.805 172.36 418.482 171.759 420.121 170.557C421.869 169.246 422.743 167.17 422.743 164.329C422.743 161.488 421.869 159.467 420.121 158.265C418.482 157.063 415.914 156.462 412.417 156.462H404.386V172.36H412.09Z" fill="#FF3ABC"/>
<path d="M547.607 227.594H517.778L513.68 243H473.689L514.336 128.272H557.605L598.251 243H551.705L547.607 227.594ZM526.137 196.125H539.084L532.692 167.607L526.137 196.125Z" fill="#FF3ABC"/>
<path d="M628.152 202.517C621.597 199.021 616.789 194.486 613.729 188.914C610.67 183.341 609.14 176.949 609.14 169.738C609.14 163.073 610.124 157.172 612.091 152.037C614.057 146.901 617.117 142.585 621.269 139.089C625.421 135.483 630.72 132.806 637.167 131.058C643.723 129.2 651.59 128.272 660.768 128.272H712.396V243H669.127V209.237H665.849L648.476 243H604.223L628.152 202.517ZM653.393 169.738C653.393 172.469 654.212 174.819 655.851 176.785C657.49 178.752 660.276 179.736 664.21 179.736H669.127V159.74H664.21C660.386 159.74 657.599 160.723 655.851 162.69C654.212 164.657 653.393 167.006 653.393 169.738Z" fill="#FF3ABC"/>
<path d="M0.555908 256.272H110.367V371H67.0983V291.018H43.8248V371H0.555908V256.272Z" fill="#FF3ABC"/>
<path d="M179.204 373.458C171.119 373.458 163.47 372.311 156.258 370.017C149.156 367.722 142.928 364.226 137.574 359.527C132.22 354.719 127.959 348.601 124.79 341.171C121.731 333.741 120.201 324.835 120.201 314.455V311.177C120.201 301.344 121.731 292.875 124.79 285.773C127.959 278.562 132.22 272.607 137.574 267.908C142.928 263.101 149.156 259.55 156.258 257.255C163.47 254.961 171.119 253.813 179.204 253.813C187.29 253.813 194.884 254.961 201.986 257.255C209.197 259.55 215.48 263.101 220.834 267.908C226.188 272.607 230.395 278.562 233.454 285.773C236.623 292.875 238.207 301.344 238.207 311.177V314.455C238.207 324.617 236.623 333.413 233.454 340.843C230.395 348.273 226.188 354.446 220.834 359.363C215.48 364.171 209.197 367.722 201.986 370.017C194.884 372.311 187.29 373.458 179.204 373.458ZM179.204 338.384C183.793 338.384 187.399 336.581 190.021 332.976C192.644 329.261 193.955 323.087 193.955 314.455V311.177C193.955 303.31 192.644 297.629 190.021 294.132C187.399 290.636 183.793 288.887 179.204 288.887C174.615 288.887 171.009 290.636 168.387 294.132C165.765 297.629 164.453 303.31 164.453 311.177V314.455C164.453 323.087 165.765 329.261 168.387 332.976C171.009 336.581 174.615 338.384 179.204 338.384Z" fill="#FF3ABC"/>
<path d="M298.811 373.458C291.49 373.458 284.552 372.639 277.996 371C271.44 369.361 265.649 366.684 260.623 362.969C255.706 359.145 251.718 354.173 248.658 348.054C245.708 341.826 244.124 334.178 243.905 325.109H283.241C283.787 329.589 285.48 332.921 288.321 335.106C291.162 337.292 294.659 338.384 298.811 338.384C306.678 338.384 311.813 334.888 314.217 327.895H289.469V299.705H314.709C313.507 295.771 311.595 292.985 308.972 291.346C306.35 289.707 302.963 288.887 298.811 288.887C294.659 288.887 291.162 290.035 288.321 292.329C285.48 294.514 283.787 297.792 283.241 302.163H243.905C244.124 293.313 245.763 285.828 248.822 279.709C251.882 273.59 255.924 268.619 260.951 264.794C265.977 260.861 271.713 258.075 278.16 256.436C284.716 254.687 291.599 253.813 298.811 253.813C306.787 253.813 314.272 254.906 321.265 257.091C328.367 259.277 334.54 262.718 339.785 267.417C345.139 272.006 349.346 277.906 352.405 285.118C355.465 292.329 356.994 301.016 356.994 311.177V314.455C356.994 325.163 355.465 334.287 352.405 341.826C349.455 349.256 345.358 355.32 340.113 360.019C334.978 364.717 328.859 368.159 321.756 370.344C314.654 372.42 307.006 373.458 298.811 373.458Z" fill="#FF3ABC"/>
<path d="M419.211 373.458C409.159 373.458 400.582 372.256 393.479 369.853C386.487 367.34 380.75 363.898 376.27 359.527C371.9 355.157 368.676 349.912 366.6 343.793C364.524 337.674 363.486 330.9 363.486 323.47H402.822C402.822 325.655 402.931 327.95 403.149 330.353C403.368 332.648 403.969 334.779 404.952 336.745C406.045 338.603 407.684 340.187 409.869 341.498C412.164 342.7 415.278 343.301 419.211 343.301C422.708 343.301 425.494 342.646 427.57 341.335C429.646 339.914 430.684 337.619 430.684 334.451C430.684 332.921 430.466 331.61 430.029 330.517C429.592 329.425 428.772 328.551 427.57 327.895C426.478 327.239 424.893 326.802 422.817 326.584C420.85 326.256 418.283 326.092 415.114 326.092H408.558V299.541H415.114C419.594 299.541 422.762 298.94 424.62 297.738C426.478 296.427 427.406 294.351 427.406 291.51C427.406 286.483 424.401 283.97 418.392 283.97C415.114 283.97 412.492 284.462 410.525 285.445C408.558 286.429 407.028 287.74 405.936 289.379C404.952 291.018 404.297 292.876 403.969 294.952C403.75 297.028 403.641 299.158 403.641 301.344H364.306C364.306 285.172 368.95 273.208 378.237 265.45C387.525 257.692 400.91 253.813 418.392 253.813C426.696 253.813 434.126 254.469 440.682 255.78C447.347 257.091 452.974 259.113 457.563 261.844C462.153 264.576 465.649 268.018 468.053 272.17C470.457 276.322 471.659 281.239 471.659 286.921C471.659 292.821 470.074 297.902 466.906 302.163C463.737 306.315 459.366 309.32 453.794 311.177C467.889 314.455 474.937 323.579 474.937 338.548C474.937 349.365 470.129 357.888 460.514 364.116C451.007 370.344 437.24 373.458 419.211 373.458Z" fill="#FF3ABC"/>
<path d="M484.726 256.272H527.994V305.441L556.185 256.272H596.176V371H552.907V321.831L524.716 371H484.726V256.272Z" fill="#FF3ABC"/>
<path d="M629.081 330.517C622.525 327.021 617.717 322.486 614.658 316.914C611.598 311.341 610.069 304.949 610.069 297.738C610.069 291.073 611.052 285.172 613.019 280.037C614.986 274.901 618.045 270.585 622.197 267.089C626.349 263.483 631.649 260.806 638.095 259.058C644.651 257.2 652.518 256.272 661.696 256.272H713.324V371H670.055V337.237H666.777L649.404 371H605.152L629.081 330.517ZM654.321 297.738C654.321 300.469 655.141 302.819 656.779 304.785C658.418 306.752 661.205 307.736 665.138 307.736H670.055V287.74H665.138C661.314 287.74 658.528 288.723 656.779 290.69C655.141 292.657 654.321 295.006 654.321 297.738Z" fill="#FF3ABC"/>
</svg>
