<svg width="1127" height="225" viewBox="0 0 1127 225" fill="none" xmlns="http://www.w3.org/2000/svg">
<path d="M1125.29 89.5092C1124.23 75.1067 1122.1 63.5846 1118.58 54.9431C1116.55 50.1422 1113.67 45.8748 1109.94 42.3542C1106.21 38.8336 1102.27 36.1664 1098.11 34.2461C1093.95 32.3257 1089.05 30.8321 1083.4 29.7653C1077.75 28.6984 1072.85 27.9516 1068.48 27.7383C1064.21 27.5249 1059.09 27.4182 1053.34 27.4182C1028.5 27.4182 1007.29 34.1394 989.696 47.5818V0H935.009V53.3428C934.05 52.3826 933.09 51.4225 932.024 50.569C926.907 45.9815 920.618 42.0341 913.049 38.7269C905.48 35.3129 895.78 32.6458 884.053 30.6188C872.327 28.5917 859.108 27.5249 844.397 27.5249C811.883 27.5249 787.898 33.606 772.547 45.7681C765.938 50.9957 760.821 57.0768 757.09 64.1181V28.165H703.149V97.724C687.372 112.02 669.783 119.061 650.594 119.061C645.157 119.061 640.254 118.528 635.883 117.461C631.619 116.394 628.101 115.114 625.329 113.727C622.558 112.34 620.212 110.206 618.294 107.539C616.375 104.765 614.882 102.418 613.923 100.284C612.964 98.1508 612.217 95.2703 611.684 91.4296C611.151 87.6956 610.832 84.8151 610.725 82.788C610.618 80.761 610.618 77.7738 610.618 73.8265C610.618 73.5064 610.618 73.293 610.618 73.0797V28.165H556.677L556.464 36.6999C553.479 35.4196 550.601 34.2461 547.829 33.3926C542.606 31.6856 533.971 30.192 522.032 28.9118C510.092 27.6316 494.528 26.9915 475.447 26.9915C466.812 26.9915 459.456 27.0981 453.38 27.3115C447.303 27.5249 441.014 27.9516 434.618 28.3784C428.222 28.8051 422.892 29.5519 418.521 30.5121C414.257 31.4723 409.993 32.7525 405.835 34.2461C401.678 35.8464 398.373 37.7667 395.815 40.0071C393.256 42.2475 391.017 44.9146 388.992 48.0085C387.18 50.7824 385.794 53.9829 384.941 57.5036C382.169 53.5562 379.078 50.0356 375.56 47.155C369.484 42.1408 361.808 38.0868 352.534 35.0996C343.26 32.0057 334.092 29.9787 324.817 29.0185C315.543 27.9516 305.203 27.5249 293.583 27.5249C282.283 27.5249 272.156 28.165 262.988 29.3385C253.82 30.5121 244.972 32.6458 236.337 35.8464C227.703 38.9403 220.56 43.101 214.697 48.1152C211.286 51.1024 208.194 54.7297 205.529 58.8905V30.7255H151.056V46.1949C136.344 35.2063 115.237 29.5519 88.0535 29.5519C81.4442 29.5519 75.5811 29.7653 70.251 30.192C64.9208 30.6188 59.1643 31.3656 52.8748 32.6458C46.5852 33.926 41.0419 35.633 36.2448 37.66C31.3411 39.7937 26.6506 42.7809 21.9601 46.6216C17.2696 50.4623 13.4319 54.9431 10.3404 60.064C7.14236 65.0782 4.6905 71.3727 2.77166 78.8407C0.959421 86.3087 0 94.6302 0 103.805C0 113.193 1.59904 121.515 4.79711 128.876C7.99518 136.131 12.2593 142.105 17.4828 146.586C22.7063 151.174 29.1024 154.908 36.7778 157.895C44.3466 160.882 52.2352 162.909 60.3369 164.083C68.4387 165.256 77.2867 165.896 86.8809 165.896C102.018 165.896 115.877 163.549 128.456 158.855C140.928 154.161 148.604 148.506 151.269 141.892V147.546V148.72C151.269 149.68 151.162 150.853 150.949 152.24C150.736 153.627 150.309 155.228 149.883 157.041C149.457 158.855 148.604 160.775 147.324 162.802C146.045 164.829 144.553 166.856 142.741 168.777C140.928 170.697 138.476 172.617 135.385 174.538C132.294 176.458 128.776 178.058 124.831 179.445C120.887 180.832 116.09 181.899 110.44 182.752C104.684 183.499 98.394 183.926 91.5714 183.926C81.8706 183.926 72.7028 183.393 64.1746 182.326C55.6464 181.259 48.9305 179.979 44.0268 178.592C39.1231 177.205 34.6458 175.498 30.4883 173.684C26.4374 171.764 23.8789 170.484 22.8129 169.844C21.7469 169.097 21.0007 168.563 20.5743 168.03L2.55846 210.277L4.15749 211.024C5.22352 211.451 7.14236 212.198 9.70081 213.051C12.2593 213.905 15.3507 214.865 18.9752 216.038C22.5997 217.105 27.1836 218.172 32.7269 219.239C38.2702 220.306 44.3466 221.159 50.9559 222.013C57.5653 222.866 65.3472 223.613 74.4084 224.147C83.4696 224.68 92.9573 225 102.765 225C139.116 225 165.234 218.599 181.437 205.903C197.534 193.101 205.636 173.257 205.636 146.159V136.238C209.687 142.319 215.017 147.333 221.626 151.174C230.368 156.401 240.708 160.242 252.648 162.589C264.587 164.936 278.659 166.11 295.182 166.11C311.279 166.11 325.35 164.936 337.183 162.696C349.123 160.455 359.57 156.721 368.631 151.387C377.692 146.159 384.515 139.011 389.205 129.943C393.149 122.155 395.388 112.98 395.921 102.525C396.348 102.845 396.774 103.272 397.2 103.592C401.571 106.792 407.541 109.353 414.896 111.273C422.359 113.193 430.354 114.474 439.095 115.114C447.73 115.861 458.284 116.181 470.649 116.181C501.031 116.181 516.169 118.741 516.169 123.969C516.169 125.889 514.143 126.956 510.092 127.383C506.041 127.809 497.513 127.916 484.508 127.916C480.137 127.916 476.726 127.916 474.167 127.916C459.883 127.916 445.491 127.063 430.78 125.462C416.069 123.862 406.795 121.728 403.064 119.275L387.819 157.895C396.241 165.683 424.384 169.63 472.142 169.63C485.894 169.63 497.726 169.31 507.427 168.67C517.235 168.03 525.763 166.963 533.012 165.363C540.261 163.762 546.124 161.949 550.388 159.708C554.652 157.468 558.17 154.587 560.835 150.853C563.5 147.226 565.206 143.172 566.165 138.905C566.591 136.878 566.911 134.531 567.125 131.97C572.881 144.239 581.729 152.667 593.669 157.255C605.608 161.842 622.238 164.189 643.345 164.189C669.463 164.189 689.397 157.255 703.256 143.492V164.403H757.197V130.263C758.689 132.824 760.288 135.384 762.207 137.945C766.791 143.919 772.654 148.826 779.796 152.881C786.939 156.828 796.106 160.028 807.3 162.376C818.493 164.723 831.392 165.896 845.89 165.896C860.707 165.896 874.033 164.936 885.759 162.909C897.485 160.989 907.079 158.321 914.542 155.014C922.004 151.707 928.187 147.76 933.09 143.279C933.837 142.639 934.476 141.999 935.116 141.358V164.403H989.803V83.8549C1000.14 74.1465 1016.45 69.239 1038.63 69.239C1042.25 69.239 1045.56 69.559 1048.65 70.3058C1051.74 71.0526 1054.3 71.9061 1056.54 72.8663C1058.77 73.9331 1060.69 75.3201 1062.4 77.3471C1064.1 79.2674 1065.49 81.0811 1066.66 82.788C1067.73 84.3883 1068.69 86.6287 1069.43 89.4026C1070.18 92.1764 1070.82 94.4168 1071.25 96.2304C1071.67 98.0441 1071.89 100.498 1072.1 103.592C1072.21 106.686 1072.31 109.139 1072.31 110.74C1072.31 112.34 1072.31 114.687 1072.31 117.674C1072.31 118.634 1072.31 119.275 1072.31 119.595V164.509H1127V153.627C1126.79 125.249 1126.25 103.912 1125.29 89.5092ZM151.162 102.205C150.203 105.832 148.39 109.033 145.725 111.807C143.06 114.58 139.756 116.821 135.705 118.421C131.761 120.021 127.923 121.302 124.298 122.262C120.674 123.329 116.623 123.969 112.039 124.395C107.455 124.822 104.257 125.036 102.338 125.142C100.419 125.249 98.1808 125.249 95.6223 125.249C93.5969 125.249 91.678 125.249 89.8658 125.142C88.0535 125.036 85.3885 124.822 81.8706 124.289C78.3527 123.862 75.2613 123.009 72.4896 121.728C69.7179 120.448 66.9463 118.954 64.1746 117.034C61.403 115.114 59.1643 112.553 57.5653 109.246C55.9662 105.939 55.22 102.098 55.22 97.724C55.22 79.6942 68.3321 70.7326 94.6629 70.7326C102.018 70.7326 108.948 71.1593 115.45 72.0128C121.953 72.8663 127.923 74.0398 133.253 75.6401C138.69 77.2404 142.954 79.3741 146.152 82.2546C149.35 85.0284 150.949 88.3357 150.949 91.8563V102.205H151.162ZM327.163 120.448C319.914 125.036 309.36 127.383 295.608 127.383C281.324 127.383 270.877 124.822 264.054 119.595C257.231 114.474 253.82 106.472 253.82 95.5903C253.82 91.2162 254.673 87.2688 256.485 83.7482C258.298 80.2276 260.536 77.3471 263.308 75.2134C266.079 72.973 269.278 71.266 273.009 69.7724C276.74 68.2788 280.471 67.4253 283.989 66.7852C287.613 66.2518 291.238 65.9317 294.755 65.9317C299.766 65.9317 304.456 66.3585 308.934 67.2119C313.411 68.0654 317.888 69.559 322.579 71.5861C327.163 73.6131 330.894 76.8137 333.772 81.0811C336.544 85.3485 338.036 90.5761 338.036 96.6572C338.036 107.966 334.412 115.754 327.163 120.448ZM556.038 92.2831C552.094 88.8691 546.23 86.3087 538.448 84.495C530.667 82.788 521.605 81.5078 511.265 80.761C500.818 80.0142 487.599 79.5875 471.502 79.5875C447.836 79.5875 436.004 77.3471 435.79 72.973C435.79 70.6259 437.709 69.239 441.44 68.7055C445.171 68.2788 453.593 67.9587 466.599 67.9587C468.944 67.9587 470.756 67.9587 472.035 67.9587C486 67.9587 500.285 68.9189 514.889 70.9459C529.494 72.8663 540.474 75.2134 547.829 77.8805L556.677 58.357C556.891 72.973 557.424 84.9218 558.277 94.2034C557.424 93.5633 556.677 92.9232 556.038 92.2831ZM891.835 106.686L891.622 107.646C891.515 108.286 890.983 109.139 890.343 110.1C889.597 111.166 888.744 112.233 887.571 113.514C886.399 114.794 884.693 115.967 882.454 117.248C880.216 118.528 877.551 119.595 874.672 120.661C871.794 121.728 868.063 122.475 863.372 123.115C858.789 123.755 853.672 124.075 848.022 124.075C841.732 124.075 836.189 123.649 831.392 122.902C826.488 122.155 822.65 120.982 819.666 119.488C816.681 117.994 814.229 116.394 812.203 114.687C810.178 112.98 808.685 110.953 807.726 108.713C806.767 106.472 806.127 104.445 805.807 102.632C805.487 100.818 805.381 98.7909 805.381 96.6572C805.381 93.8834 805.594 91.3229 806.127 89.2959C806.553 87.1622 807.726 84.8151 809.432 82.2546C811.137 79.6942 813.483 77.5604 816.361 75.7468C819.239 74.0398 823.397 72.5462 828.94 71.3727C834.377 70.1991 840.879 69.559 848.235 69.559C855.59 69.559 862.093 70.1991 867.85 71.5861C873.606 72.8663 877.87 74.3599 880.642 75.9602C883.414 77.5605 885.759 79.3741 887.678 81.4011C889.597 83.4282 890.663 84.8151 891.089 85.6686C891.516 86.4154 891.729 87.0555 891.729 87.5889L935.436 81.0811V112.873L891.835 106.686Z" fill="#D21010"/>
<path d="M1125.29 89.5092C1124.23 75.1067 1122.1 63.5846 1118.58 54.9431C1116.55 50.1422 1113.67 45.8748 1109.94 42.3542C1106.21 38.8336 1102.27 36.1664 1098.11 34.2461C1093.95 32.3257 1089.05 30.8321 1083.4 29.7653C1077.75 28.6984 1072.85 27.9516 1068.48 27.7383C1064.21 27.5249 1059.09 27.4182 1053.34 27.4182C1028.5 27.4182 1007.29 34.1394 989.696 47.5818V0H935.009V53.3428C934.05 52.3826 933.09 51.4225 932.024 50.569C926.907 45.9815 920.618 42.0341 913.049 38.7269C905.48 35.3129 895.78 32.6458 884.053 30.6188C872.327 28.5917 859.108 27.5249 844.397 27.5249C811.883 27.5249 787.898 33.606 772.547 45.7681C765.938 50.9957 760.821 57.0768 757.09 64.1181V28.165H703.149V97.724C687.372 112.02 669.783 119.061 650.594 119.061C645.157 119.061 640.254 118.528 635.883 117.461C631.619 116.394 628.101 115.114 625.329 113.727C622.558 112.34 620.212 110.206 618.294 107.539C616.375 104.765 614.882 102.418 613.923 100.284C612.964 98.1508 612.217 95.2703 611.684 91.4296C611.151 87.6956 610.832 84.8151 610.725 82.788C610.618 80.761 610.618 77.7738 610.618 73.8265C610.618 73.5064 610.618 73.293 610.618 73.0797V28.165H556.677L556.464 36.6999C553.479 35.4196 550.601 34.2461 547.829 33.3926C542.606 31.6856 533.971 30.192 522.032 28.9118C510.092 27.6316 494.528 26.9915 475.447 26.9915C466.812 26.9915 459.456 27.0981 453.38 27.3115C447.303 27.5249 441.014 27.9516 434.618 28.3784C428.222 28.8051 422.892 29.5519 418.521 30.5121C414.257 31.4723 409.993 32.7525 405.835 34.2461C401.678 35.8464 398.373 37.7667 395.815 40.0071C393.256 42.2475 391.017 44.9146 388.992 48.0085C387.18 50.7824 385.794 53.9829 384.941 57.5036C382.169 53.5562 379.078 50.0356 375.56 47.155C369.484 42.1408 361.808 38.0868 352.534 35.0996C343.26 32.0057 334.092 29.9787 324.817 29.0185C315.543 27.9516 305.203 27.5249 293.583 27.5249C282.283 27.5249 272.156 28.165 262.988 29.3385C253.82 30.5121 244.972 32.6458 236.337 35.8464C227.703 38.9403 220.56 43.101 214.697 48.1152C211.286 51.1024 208.194 54.7297 205.529 58.8905V30.7255H151.056V46.1949C136.344 35.2063 115.237 29.5519 88.0535 29.5519C81.4442 29.5519 75.5811 29.7653 70.251 30.192C64.9208 30.6188 59.1643 31.3656 52.8748 32.6458C46.5852 33.926 41.0419 35.633 36.2448 37.66C31.3411 39.7937 26.6506 42.7809 21.9601 46.6216C17.2696 50.4623 13.4319 54.9431 10.3404 60.064C7.14236 65.0782 4.6905 71.3727 2.77166 78.8407C0.959421 86.3087 0 94.6302 0 103.805C0 113.193 1.59904 121.515 4.79711 128.876C7.99518 136.131 12.2593 142.105 17.4828 146.586C22.7063 151.174 29.1024 154.908 36.7778 157.895C44.3466 160.882 52.2352 162.909 60.3369 164.083C68.4387 165.256 77.2867 165.896 86.8809 165.896C102.018 165.896 115.877 163.549 128.456 158.855C140.928 154.161 148.604 148.506 151.269 141.892V147.546V148.72C151.269 149.68 151.162 150.853 150.949 152.24C150.736 153.627 150.309 155.228 149.883 157.041C149.457 158.855 148.604 160.775 147.324 162.802C146.045 164.829 144.553 166.856 142.741 168.777C140.928 170.697 138.476 172.617 135.385 174.538C132.294 176.458 128.776 178.058 124.831 179.445C120.887 180.832 116.09 181.899 110.44 182.752C104.684 183.499 98.394 183.926 91.5714 183.926C81.8706 183.926 72.7028 183.393 64.1746 182.326C55.6464 181.259 48.9305 179.979 44.0268 178.592C39.1231 177.205 34.6458 175.498 30.4883 173.684C26.4374 171.764 23.8789 170.484 22.8129 169.844C21.7469 169.097 21.0007 168.563 20.5743 168.03L2.55846 210.277L4.15749 211.024C5.22352 211.451 7.14236 212.198 9.70081 213.051C12.2593 213.905 15.3507 214.865 18.9752 216.038C22.5997 217.105 27.1836 218.172 32.7269 219.239C38.2702 220.306 44.3466 221.159 50.9559 222.013C57.5653 222.866 65.3472 223.613 74.4084 224.147C83.4696 224.68 92.9573 225 102.765 225C139.116 225 165.234 218.599 181.437 205.903C197.534 193.101 205.636 173.257 205.636 146.159V136.238C209.687 142.319 215.017 147.333 221.626 151.174C230.368 156.401 240.708 160.242 252.648 162.589C264.587 164.936 278.659 166.11 295.182 166.11C311.279 166.11 325.35 164.936 337.183 162.696C349.123 160.455 359.57 156.721 368.631 151.387C377.692 146.159 384.515 139.011 389.205 129.943C393.149 122.155 395.388 112.98 395.921 102.525C396.348 102.845 396.774 103.272 397.2 103.592C401.571 106.792 407.541 109.353 414.896 111.273C422.359 113.193 430.354 114.474 439.095 115.114C447.73 115.861 458.284 116.181 470.649 116.181C501.031 116.181 516.169 118.741 516.169 123.969C516.169 125.889 514.143 126.956 510.092 127.383C506.041 127.809 497.513 127.916 484.508 127.916C480.137 127.916 476.726 127.916 474.167 127.916C459.883 127.916 445.491 127.063 430.78 125.462C416.069 123.862 406.795 121.728 403.064 119.275L387.819 157.895C396.241 165.683 424.384 169.63 472.142 169.63C485.894 169.63 497.726 169.31 507.427 168.67C517.235 168.03 525.763 166.963 533.012 165.363C540.261 163.762 546.124 161.949 550.388 159.708C554.652 157.468 558.17 154.587 560.835 150.853C563.5 147.226 565.206 143.172 566.165 138.905C566.591 136.878 566.911 134.531 567.125 131.97C572.881 144.239 581.729 152.667 593.669 157.255C605.608 161.842 622.238 164.189 643.345 164.189C669.463 164.189 689.397 157.255 703.256 143.492V164.403H757.197V130.263C758.689 132.824 760.288 135.384 762.207 137.945C766.791 143.919 772.654 148.826 779.796 152.881C786.939 156.828 796.106 160.028 807.3 162.376C818.493 164.723 831.392 165.896 845.89 165.896C860.707 165.896 874.033 164.936 885.759 162.909C897.485 160.989 907.079 158.321 914.542 155.014C922.004 151.707 928.187 147.76 933.09 143.279C933.837 142.639 934.476 141.999 935.116 141.358V164.403H989.803V83.8549C1000.14 74.1465 1016.45 69.239 1038.63 69.239C1042.25 69.239 1045.56 69.559 1048.65 70.3058C1051.74 71.0526 1054.3 71.9061 1056.54 72.8663C1058.77 73.9331 1060.69 75.3201 1062.4 77.3471C1064.1 79.2674 1065.49 81.0811 1066.66 82.788C1067.73 84.3883 1068.69 86.6287 1069.43 89.4026C1070.18 92.1764 1070.82 94.4168 1071.25 96.2304C1071.67 98.0441 1071.89 100.498 1072.1 103.592C1072.21 106.686 1072.31 109.139 1072.31 110.74C1072.31 112.34 1072.31 114.687 1072.31 117.674C1072.31 118.634 1072.31 119.275 1072.31 119.595V164.509H1127V153.627C1126.79 125.249 1126.25 103.912 1125.29 89.5092ZM151.162 102.205C150.203 105.832 148.39 109.033 145.725 111.807C143.06 114.58 139.756 116.821 135.705 118.421C131.761 120.021 127.923 121.302 124.298 122.262C120.674 123.329 116.623 123.969 112.039 124.395C107.455 124.822 104.257 125.036 102.338 125.142C100.419 125.249 98.1808 125.249 95.6223 125.249C93.5969 125.249 91.678 125.249 89.8658 125.142C88.0535 125.036 85.3885 124.822 81.8706 124.289C78.3527 123.862 75.2613 123.009 72.4896 121.728C69.7179 120.448 66.9463 118.954 64.1746 117.034C61.403 115.114 59.1643 112.553 57.5653 109.246C55.9662 105.939 55.22 102.098 55.22 97.724C55.22 79.6942 68.3321 70.7326 94.6629 70.7326C102.018 70.7326 108.948 71.1593 115.45 72.0128C121.953 72.8663 127.923 74.0398 133.253 75.6401C138.69 77.2404 142.954 79.3741 146.152 82.2546C149.35 85.0284 150.949 88.3357 150.949 91.8563V102.205H151.162ZM327.163 120.448C319.914 125.036 309.36 127.383 295.608 127.383C281.324 127.383 270.877 124.822 264.054 119.595C257.231 114.474 253.82 106.472 253.82 95.5903C253.82 91.2162 254.673 87.2688 256.485 83.7482C258.298 80.2276 260.536 77.3471 263.308 75.2134C266.079 72.973 269.278 71.266 273.009 69.7724C276.74 68.2788 280.471 67.4253 283.989 66.7852C287.613 66.2518 291.238 65.9317 294.755 65.9317C299.766 65.9317 304.456 66.3585 308.934 67.2119C313.411 68.0654 317.888 69.559 322.579 71.5861C327.163 73.6131 330.894 76.8137 333.772 81.0811C336.544 85.3485 338.036 90.5761 338.036 96.6572C338.036 107.966 334.412 115.754 327.163 120.448ZM556.038 92.2831C552.094 88.8691 546.23 86.3087 538.448 84.495C530.667 82.788 521.605 81.5078 511.265 80.761C500.818 80.0142 487.599 79.5875 471.502 79.5875C447.836 79.5875 436.004 77.3471 435.79 72.973C435.79 70.6259 437.709 69.239 441.44 68.7055C445.171 68.2788 453.593 67.9587 466.599 67.9587C468.944 67.9587 470.756 67.9587 472.035 67.9587C486 67.9587 500.285 68.9189 514.889 70.9459C529.494 72.8663 540.474 75.2134 547.829 77.8805L556.677 58.357C556.891 72.973 557.424 84.9218 558.277 94.2034C557.424 93.5633 556.677 92.9232 556.038 92.2831ZM891.835 106.686L891.622 107.646C891.515 108.286 890.983 109.139 890.343 110.1C889.597 111.166 888.744 112.233 887.571 113.514C886.399 114.794 884.693 115.967 882.454 117.248C880.216 118.528 877.551 119.595 874.672 120.661C871.794 121.728 868.063 122.475 863.372 123.115C858.789 123.755 853.672 124.075 848.022 124.075C841.732 124.075 836.189 123.649 831.392 122.902C826.488 122.155 822.65 120.982 819.666 119.488C816.681 117.994 814.229 116.394 812.203 114.687C810.178 112.98 808.685 110.953 807.726 108.713C806.767 106.472 806.127 104.445 805.807 102.632C805.487 100.818 805.381 98.7909 805.381 96.6572C805.381 93.8834 805.594 91.3229 806.127 89.2959C806.553 87.1622 807.726 84.8151 809.432 82.2546C811.137 79.6942 813.483 77.5604 816.361 75.7468C819.239 74.0398 823.397 72.5462 828.94 71.3727C834.377 70.1991 840.879 69.559 848.235 69.559C855.59 69.559 862.093 70.1991 867.85 71.5861C873.606 72.8663 877.87 74.3599 880.642 75.9602C883.414 77.5605 885.759 79.3741 887.678 81.4011C889.597 83.4282 890.663 84.8151 891.089 85.6686C891.516 86.4154 891.729 87.0555 891.729 87.5889L935.436 81.0811V112.873L891.835 106.686Z" fill="url(#paint0_linear)"/>
<defs>
<linearGradient id="paint0_linear" x1="574.5" y1="20.5" x2="605" y2="181.5" gradientUnits="userSpaceOnUse">


<!-- F7E739 A06F92 5838D5 0000FF -->

<!-- hsla(55, 92%, 60%, 1);
hsla(317, 21%, 53%, 1);
hsla(252, 65%, 53%, 1);
hsla(240, 100%, 50%, 1); -->

<stop  stop-color="#F7E739">
  <animate
    attributeName="stop-color"
    values="
      hsla(55, 92%, 60%, 1);
      hsla(55, 92%, 60%, 1);

      hsla(55, 92%, 60%, .7);

      hsla(55, 92%, 60%, 1);
      hsla(55, 92%, 60%, 1);
      hsla(55, 92%, 60%, 1);
    "
    dur="10s" repeatCount="indefinite">
  </animate>
</stop>
<stop offset="0.5" stop-color="#0000FF">
  <animate
    attributeName="stop-color"
        values="
      hsla(317, 21%, 53%, 1);

      hsla(317, 21%, 53%, .5);

      hsla(317, 21%, 53%, 1);
    "
    dur="5s" repeatCount="indefinite">
  </animate>
</stop>
<stop offset="1" stop-color="#0000FF">
  <animate
    attributeName="stop-color"
        values="
      hsla(240, 100%, 50%, 1);

      hsla(240, 100%, 50%, .3);

      hsla(240, 100%, 50%, 1);
    "
    dur="10s" repeatCount="indefinite">
  </animate>
</stop>

</linearGradient>
</defs>
</svg>


