<svg width="617" height="355" viewBox="0 0 617 355" fill="none" xmlns="http://www.w3.org/2000/svg">
<mask id="mask0" mask-type="alpha" maskUnits="userSpaceOnUse" x="0" y="0" width="549" height="219">
<path fill-rule="evenodd" clip-rule="evenodd" d="M504.539 25.1645C482.595 22.8161 460.235 22.8481 438.187 23.6208C422.539 24.1693 407.076 24.9889 392.236 30.3099C382.367 34.101 374.558 42.3775 372.042 52.7441C359.032 34.2514 335.475 27.4933 313.933 25.2674C294.257 23.0085 273.822 23.0661 254.175 25.5761C233.386 28.2321 210.492 35.6186 198.642 54.0819V26.9139H145.994V41.8358C131.776 31.2361 111.376 25.7819 85.1029 25.7819C57.7205 25.7819 25.5523 29.4924 9.99392 55.2139C2.1609 67.4713 0 83.1584 0 97.4067C0 121.678 12.9558 140.807 35.5454 149.582C62.4927 160.196 97.2118 160.541 124.151 150.508C136.206 145.98 143.624 140.526 146.2 134.145C146.2 152.181 138.24 164.196 120.648 170.369C90.5447 180.934 47.1941 176.079 19.8848 159.358L2.47272 200.11C49.0984 221.843 134.578 227.779 175.357 195.891C190.915 183.542 198.745 164.401 198.745 138.262V128.691C208.743 143.671 227.161 150.77 244.181 154.11C270.488 159.271 299.553 159.188 325.884 154.213C345.881 150.468 366.393 141.471 376.163 122.619C379.975 115.107 382.139 106.257 382.654 96.1718C388.172 100.305 394.307 102.868 400.993 104.61C418.495 109.105 436.915 109.344 454.878 109.344C473.432 109.344 486.104 110.33 492.919 112.329C499.514 114.262 500.784 119.331 492.999 120.15C481.537 121.355 469.8 120.664 458.278 120.664C444.472 120.664 430.563 119.841 416.345 118.297C402.127 116.754 393.163 114.695 389.557 112.329L374.824 149.582C382.963 157.094 410.163 160.902 456.321 160.902C469.611 160.902 481.048 160.593 490.423 159.975C499.902 159.358 508.145 158.329 515.151 156.785C535.902 152.213 549.499 139.9 548.311 116.857C547.422 99.6077 538.517 82.993 520.405 78.7801C512.884 77.1336 504.126 75.8987 494.133 75.1783C484.036 74.458 471.26 74.0463 455.702 74.0463C432.83 74.0463 421.393 71.8852 421.187 67.666C421.187 65.402 423.042 64.0641 426.648 63.5496C436.407 62.4355 446.372 62.8014 456.183 62.8609C469.68 62.8609 483.52 63.7554 497.636 65.7107C511.751 67.563 522.363 69.8271 529.472 72.3998L547.193 36.8248C547.193 36.8248 528.187 27.6952 504.539 25.1645ZM146.097 95.8631H145.891V85.8809C145.891 77.0618 135.998 72.357 128.788 70.2387C116.782 66.6411 103.978 65.5049 91.4908 65.5049C66.0423 65.5049 53.3696 74.1492 53.3696 91.5409C53.3696 112.71 75.0977 118.091 92.418 118.091C109.76 118.091 140.626 116.506 146.097 95.8631ZM285.703 120.15C306.023 120.15 326.709 114.183 326.709 90.5118C326.709 68.3548 303.97 60.874 284.878 60.874C267.203 60.874 245.315 68.609 245.315 89.4827C245.315 113.028 265.066 120.15 285.703 120.15Z" fill="#D21010"/>
</mask>
<g mask="url(#mask0)">
<rect y="5" width="578" height="222" fill="#D27910"/>
<g filter="url(#filter0_f)">
<rect x="-210.736" y="43.2769" width="529.905" height="324.28" transform="rotate(-31.8123 -210.736 43.2769)" fill="#FFF700"/>
</g>
<g filter="url(#filter1_f)">
<rect x="47.2612" y="286.772" width="729.829" height="322.19" transform="rotate(-32 47.2612 286.772)" fill="#3300FF"/>
</g>
</g>
<mask id="mask1" mask-type="alpha" maskUnits="userSpaceOnUse" x="46" y="137" width="552" height="218">
<path fill-rule="evenodd" clip-rule="evenodd" d="M596.045 223.341C594.501 202.534 590.807 179.731 569.766 170.034C538.198 155.485 491.895 162.357 464.959 182.897V137H412.091V188.455C406.026 182.398 398.709 177.777 390.862 174.356C370.558 165.218 346.446 163.551 324.494 163.551C293.062 163.551 269.875 169.416 255.035 181.148C248.646 186.191 243.699 192.056 240.092 198.848V164.168H187.946V231.265C172.694 245.055 155.69 251.847 137.14 251.847C126.591 251.847 112.584 249.982 105.914 240.732C99.0058 230.768 98.4944 219.145 98.4944 207.493V164.168H46.3485V193.291C46.6989 217.261 47.0613 241.869 56.4479 264.299C62.0129 276.133 70.5665 284.263 82.1087 288.688C93.6508 293.113 109.727 295.377 130.132 295.377C155.381 295.377 174.652 288.688 188.049 275.413V295.583H240.195V262.652C250.774 280.761 268.518 289.419 288.631 293.628C313.085 298.744 339.918 298.379 364.48 294.142C381.716 291.326 399.524 286.007 412.194 273.355V295.583H465.062V217.887C475.058 208.522 490.825 203.788 512.261 203.788C523.152 203.788 533.012 207.631 539.364 216.857C546.014 226.818 544.826 240.924 544.826 252.361V295.686H597.694C597.694 271.579 597.651 247.402 596.045 223.341ZM370.354 239.909L412.504 245.878V215.211L370.251 221.488C369.235 217.062 363.438 212.521 359.533 210.271C350.486 205.059 338.385 204.097 328.204 204.097C316.001 204.097 298.287 204.967 290.692 216.343C285.734 223.77 285.566 233.763 289.043 241.864C294.934 255.591 315.419 256.683 327.998 256.683C339.194 256.683 351.348 255.768 361.285 250.097C365.109 247.915 369.348 244.428 370.354 239.909Z" fill="#D21010"/>
</mask>
<g mask="url(#mask1)">
<rect x="23" y="121" width="619" height="221" fill="#D27910"/>
<g filter="url(#filter2_f)">
<rect x="-281" y="234.39" width="736.543" height="336.946" transform="rotate(-33.955 -281 234.39)" fill="#FFF700"/>
</g>
<g filter="url(#filter3_f)">
<rect x="106.176" y="391.878" width="718.854" height="256.652" transform="rotate(-32 106.176 391.878)" fill="#3300FF"/>
</g>
</g>
<defs>
<filter id="filter0_f" x="-390.736" y="-416.056" width="981.243" height="914.899" filterUnits="userSpaceOnUse" color-interpolation-filters="sRGB">
<feFlood flood-opacity="0" result="BackgroundImageFix"/>
<feBlend mode="normal" in="SourceGraphic" in2="BackgroundImageFix" result="shape"/>
<feGaussianBlur stdDeviation="90" result="effect1_foregroundBlur"/>
</filter>
<filter id="filter1_f" x="-132.739" y="-279.978" width="1149.66" height="1019.98" filterUnits="userSpaceOnUse" color-interpolation-filters="sRGB">
<feFlood flood-opacity="0" result="BackgroundImageFix"/>
<feBlend mode="normal" in="SourceGraphic" in2="BackgroundImageFix" result="shape"/>
<feGaussianBlur stdDeviation="90" result="effect1_foregroundBlur"/>
</filter>
<filter id="filter2_f" x="-461" y="-357" width="1159.14" height="1050.88" filterUnits="userSpaceOnUse" color-interpolation-filters="sRGB">
<feFlood flood-opacity="0" result="BackgroundImageFix"/>
<feBlend mode="normal" in="SourceGraphic" in2="BackgroundImageFix" result="shape"/>
<feGaussianBlur stdDeviation="90" result="effect1_foregroundBlur"/>
</filter>
<filter id="filter3_f" x="-73.8241" y="-169.056" width="1105.63" height="958.588" filterUnits="userSpaceOnUse" color-interpolation-filters="sRGB">
<feFlood flood-opacity="0" result="BackgroundImageFix"/>
<feBlend mode="normal" in="SourceGraphic" in2="BackgroundImageFix" result="shape"/>
<feGaussianBlur stdDeviation="90" result="effect1_foregroundBlur"/>
</filter>
</defs>
</svg>
