<svg width="1041" height="208" viewBox="0 0 1041 208" fill="none" xmlns="http://www.w3.org/2000/svg">
<mask id="mask0" mask-type="alpha" maskUnits="userSpaceOnUse" x="0" y="0" width="1041" height="208">
<path fill-rule="evenodd" clip-rule="evenodd" d="M1013.49 31.5021C1033.55 40.75 1037.08 62.4954 1038.55 82.3373C1040.08 105.283 1040.12 128.339 1040.12 151.328H989.705V110.012C989.705 108.605 989.723 107.156 989.743 105.678C989.872 95.7001 990.019 84.4276 984.496 76.1547C978.438 67.3559 969.035 63.6912 958.649 63.6912C938.208 63.6912 923.171 68.2055 913.638 77.136V151.23H863.222V130.032C851.14 142.097 834.158 147.17 817.72 149.856C794.298 153.896 768.708 154.244 745.389 149.365C726.208 145.352 709.286 137.095 699.199 119.826V151.23H649.471V131.995C636.695 144.655 618.317 151.034 594.239 151.034C574.78 151.034 559.449 148.875 548.442 144.655C537.435 140.435 529.278 132.682 523.971 121.396C523.547 120.383 523.143 119.366 522.757 118.345C521.074 135.916 508.869 145.637 491.264 149.516C484.583 150.988 476.723 151.969 467.684 152.558C458.743 153.147 447.836 153.441 435.162 153.441C391.145 153.441 365.206 149.81 357.444 142.646L371.494 107.12C374.933 109.377 383.481 111.34 397.04 112.812C410.599 114.284 423.863 115.069 437.029 115.069C439.957 115.069 442.899 115.116 445.848 115.163C453.963 115.292 462.122 115.422 470.14 114.579C477.564 113.798 476.353 108.964 470.064 107.12C463.564 105.215 451.48 104.274 433.786 104.274C416.656 104.274 399.09 104.046 382.4 99.7598C376.023 98.0983 370.173 95.6543 364.911 91.7126C364.42 101.33 362.357 109.77 358.721 116.934C349.404 134.911 329.843 143.491 310.774 147.062C285.663 151.807 257.946 151.886 232.859 146.964C216.628 143.779 199.064 137.009 189.53 122.724V131.851C189.53 156.778 182.063 175.031 167.226 186.808C128.338 217.218 46.8218 211.556 2.35807 190.831L18.9628 151.969C45.0058 167.915 86.3463 172.544 115.054 162.47C131.83 156.582 139.421 145.125 139.421 127.925C136.964 134.01 129.89 139.211 118.395 143.529C92.7043 153.097 59.595 152.768 33.8972 142.646C12.3551 134.278 0 116.036 0 92.8902C0 79.3026 2.0607 64.3428 9.53053 52.6538C24.3675 28.125 55.0441 24.5865 81.1569 24.5865C106.211 24.5865 125.665 29.7878 139.224 39.896V25.666H189.432V51.5743C200.731 33.9671 222.564 26.9231 242.39 24.3903C261.125 21.9967 280.613 21.9417 299.376 24.0958C319.92 26.2186 342.384 32.6632 354.791 50.2985C357.19 40.4126 364.638 32.5199 374.049 28.9046C388.201 23.8303 402.946 23.0486 417.869 22.5256C438.895 21.7888 460.218 21.7582 481.144 23.9977C494.887 25.4684 506.985 29.2757 514.34 32.0259V25.9083H564.068V67.2242C564.068 78.3361 564.556 89.4197 571.144 98.9226C577.504 107.744 590.862 109.521 600.922 109.521C618.612 109.521 634.827 103.044 649.372 89.8939V25.9083H699.1V58.9806C702.54 52.5035 707.257 46.9097 713.35 42.101C727.502 30.9133 749.615 25.3195 779.589 25.3195C800.523 25.3195 823.517 26.9095 842.879 35.6239C850.362 38.8865 857.34 43.2927 863.124 49.0687V0H913.54V43.7693C939.228 24.1811 983.384 17.6279 1013.49 31.5021ZM514.34 50.1348V53.6812C514.512 65.4359 514.687 77.3518 516.034 89.0635C511.641 82.3265 505.106 77.1813 496.275 75.1273C489.103 73.5571 480.751 72.3795 471.221 71.6925C461.592 71.0055 449.409 70.613 434.572 70.613C412.76 70.613 401.854 68.5521 401.658 64.5285C401.658 62.3695 403.426 61.0937 406.865 60.603C414.581 59.7222 422.431 59.8114 430.221 59.9C431.828 59.9183 433.432 59.9365 435.031 59.9462C447.902 59.9462 461.101 60.7993 474.561 62.6639C488.022 64.4303 498.142 66.5894 504.921 69.0428L514.34 50.1348ZM863.517 103.829L823.322 98.1375C822.363 102.447 818.32 105.772 814.674 107.853C805.197 113.261 793.607 114.134 782.93 114.134C770.934 114.134 751.4 113.092 745.782 100.002C742.466 92.2763 742.626 82.7463 747.354 75.664C754.597 64.8152 771.49 63.9856 783.127 63.9856C792.835 63.9856 804.376 64.9037 813.003 69.8739C816.727 72.0192 822.255 76.3496 823.224 80.5709L863.517 74.5845V103.829ZM139.126 81.8988V91.4182H139.323C134.105 111.104 104.67 112.616 88.1328 112.616C71.6156 112.616 50.895 107.484 50.895 87.2964C50.895 70.7111 62.9801 62.4676 87.2485 62.4676C99.1571 62.4676 111.367 63.5511 122.816 66.9819C129.692 69.002 139.126 73.4887 139.126 81.8988ZM311.56 86.315C311.56 108.889 291.833 114.579 272.455 114.579C252.776 114.579 233.94 107.787 233.94 85.3336C233.94 65.4278 254.813 58.0514 271.669 58.0514C289.876 58.0514 311.56 65.1854 311.56 86.315Z" fill="#D21010"/>
</mask>
<g mask="url(#mask0)">
<rect x="-10.4899" y="-20.9797" width="1050.9" height="243.176" fill="#D27910"/>
<g filter="url(#filter0_f)">
<rect x="-282.714" y="-31.6536" width="1277.36" height="388.33" transform="rotate(-20 -282.714 -31.6536)" fill="#FFF700"/>
</g>
<g filter="url(#filter1_f)">
<rect x="349.805" y="163.193" width="769.655" height="408.116" transform="rotate(-20 349.805 163.193)" fill="#3300FF"/>
</g>
</g>
<defs>
<filter id="filter0_f" x="-454.368" y="-640.189" width="1676.45" height="1145.1" filterUnits="userSpaceOnUse" color-interpolation-filters="sRGB">
<feFlood flood-opacity="0" result="BackgroundImageFix"/>
<feBlend mode="normal" in="SourceGraphic" in2="BackgroundImageFix" result="shape"/>
<feGaussianBlur stdDeviation="85.8269" result="effect1_foregroundBlur"/>
</filter>
<filter id="filter1_f" x="178.151" y="-271.698" width="1206.13" height="990.048" filterUnits="userSpaceOnUse" color-interpolation-filters="sRGB">
<feFlood flood-opacity="0" result="BackgroundImageFix"/>
<feBlend mode="normal" in="SourceGraphic" in2="BackgroundImageFix" result="shape"/>
<feGaussianBlur stdDeviation="85.8269" result="effect1_foregroundBlur"/>
</filter>
</defs>
</svg>
