<svg width="1091" height="219" viewBox="0 0 1091 219" fill="none" xmlns="http://www.w3.org/2000/svg">
  <mask id="mask0" mask-type="alpha" maskUnits="userSpaceOnUse" x="0" y="0" width="1091" height="219">
    <path fill-rule="evenodd" clip-rule="evenodd"
      d="M1062.77 33.0338C1083.81 42.7314 1087.5 65.5341 1089.04 86.3408C1090.65 110.402 1090.69 134.579 1090.69 158.686H1037.83V115.361C1037.83 113.886 1037.85 112.366 1037.87 110.816C1038 100.353 1038.16 88.5327 1032.36 79.8575C1026.01 70.6309 1016.15 66.788 1005.26 66.788C983.825 66.788 968.058 71.5219 958.062 80.8866V158.583H905.194V136.355C892.524 149.007 874.716 154.326 857.48 157.142C832.918 161.379 806.085 161.744 781.631 156.628C761.518 152.419 743.774 143.76 733.195 125.652V158.583H681.049V138.413C667.652 151.688 648.381 158.377 623.132 158.377C602.727 158.377 586.651 156.113 575.109 151.688C563.566 147.263 555.013 139.133 549.448 127.299C549.004 126.237 548.579 125.17 548.175 124.099C546.41 142.524 533.611 152.718 515.151 156.785C508.145 158.329 499.902 159.358 490.423 159.976C481.048 160.593 469.611 160.902 456.321 160.902C410.163 160.902 382.963 157.094 374.824 149.582L389.557 112.329C393.163 114.696 402.127 116.754 416.345 118.297C430.563 119.841 444.472 120.664 458.278 120.664C461.349 120.664 464.434 120.713 467.526 120.762C476.036 120.898 484.592 121.034 492.999 120.15C500.784 119.331 499.514 114.262 492.919 112.329C486.104 110.33 473.432 109.344 454.878 109.344C436.915 109.344 418.495 109.105 400.993 104.61C394.307 102.868 388.172 100.305 382.654 96.1719C382.139 106.257 379.975 115.107 376.163 122.619C366.393 141.471 345.881 150.468 325.884 154.213C299.553 159.188 270.488 159.271 244.181 154.11C227.161 150.77 208.743 143.671 198.745 128.691V138.262C198.745 164.401 190.915 183.542 175.357 195.891C134.578 227.779 49.0984 221.843 2.47272 200.11L19.8848 159.358C47.1941 176.079 90.5447 180.934 120.648 170.369C138.24 164.196 146.2 152.181 146.2 134.145C143.624 140.526 136.206 145.98 124.151 150.508C97.2118 160.541 62.4927 160.196 35.5454 149.582C12.9558 140.807 0 121.678 0 97.4068C0 83.1585 2.1609 67.4713 9.99392 55.214C25.5523 29.4925 57.7205 25.782 85.1029 25.782C111.376 25.782 131.776 31.2362 145.994 41.8358V26.914H198.642V54.082C210.492 35.6186 233.386 28.2321 254.175 25.5762C273.822 23.0662 294.257 23.0085 313.933 25.2674C335.475 27.4934 359.032 34.2514 372.042 52.7442C374.558 42.3776 382.367 34.101 392.236 30.31C407.076 24.9889 422.539 24.1693 438.187 23.6209C460.235 22.8482 482.595 22.8162 504.539 25.1645C518.949 26.7067 531.636 30.6991 539.349 33.583V27.168H591.494V70.4928C591.494 82.1449 592.006 93.7675 598.914 103.732C605.584 112.982 619.591 114.847 630.14 114.847C648.69 114.847 665.694 108.055 680.946 94.2648V27.168H733.092V61.8484C736.699 55.0564 741.646 49.1906 748.035 44.148C762.875 32.4164 786.062 26.5506 817.494 26.5506C839.446 26.5506 863.558 28.2179 883.862 37.356C891.709 40.7772 899.026 45.3977 905.091 51.4546V0H957.959V45.8975C984.895 25.3568 1031.2 18.485 1062.77 33.0338ZM539.349 52.5727V56.2913C539.529 68.6175 539.712 81.1127 541.124 93.3937C536.518 86.3294 529.665 80.934 520.405 78.7802C512.884 77.1336 504.126 75.8987 494.133 75.1784C484.036 74.458 471.26 74.0464 455.702 74.0464C432.83 74.0464 421.393 71.8853 421.187 67.666C421.187 65.402 423.042 64.0642 426.648 63.5496C434.739 62.626 442.971 62.7196 451.14 62.8125C452.824 62.8316 454.506 62.8507 456.183 62.8609C469.68 62.8609 483.52 63.7555 497.636 65.7107C511.751 67.5631 522.363 69.8271 529.472 72.3998L539.349 52.5727ZM905.504 108.878L863.354 102.909C862.348 107.428 858.109 110.915 854.285 113.097C844.348 118.768 832.194 119.683 820.998 119.683C808.419 119.683 787.934 118.591 782.043 104.864C778.566 96.763 778.734 86.7696 783.692 79.3429C791.287 67.9667 809.001 67.0968 821.204 67.0968C831.385 67.0968 843.486 68.0595 852.533 73.2713C856.438 75.521 862.235 80.0619 863.251 84.4884L905.504 78.2109V108.878ZM145.891 85.8809V95.8631H146.097C140.626 116.506 109.76 118.091 92.418 118.091C75.0977 118.091 53.3696 112.71 53.3696 91.5409C53.3696 74.1493 66.0423 65.5049 91.4908 65.5049C103.978 65.5049 116.782 66.6411 128.788 70.2387C135.998 72.3571 145.891 77.0619 145.891 85.8809ZM326.709 90.5118C326.709 114.183 306.023 120.15 285.703 120.15C265.066 120.15 245.315 113.028 245.315 89.4827C245.315 68.6091 267.203 60.874 284.878 60.874C303.97 60.874 326.709 68.3549 326.709 90.5118Z"
      fill="#D21010" />
  </mask>
  <g mask="url(#mask0)">
    <rect x="-11" y="-22" width="1102" height="255" fill="#D21010" />
    <g filter="url(#filter0_f)">
      <rect x="-228.003" y="147.441" width="983.85" height="191.201" transform="rotate(-19.56 -228.003 147.441)"
        fill="#F3F739"/>
    </g>
    <g filter="url(#filter1_f)">
      <rect x="465.391" y="242.403" width="825.483" height="183.999" transform="rotate(-19.5627 465.391 242.403)"
        fill="#0000FF" />
    </g>
  </g>
  <defs>
    <filter id="filter0_f" x="-408.003" y="-361.946" width="1351.09" height="869.555" filterUnits="userSpaceOnUse"
      color-interpolation-filters="sRGB">
      <feFlood flood-opacity="0" result="BackgroundImageFix" />
      <feBlend mode="normal" in="SourceGraphic" in2="BackgroundImageFix" result="shape" />
      <feGaussianBlur stdDeviation="90" result="effect1_foregroundBlur" />
    </filter>
    <filter id="filter1_f" x="285.391" y="-214" width="1199.44" height="809.78" filterUnits="userSpaceOnUse"
      color-interpolation-filters="sRGB">
      <feFlood flood-opacity="0" result="BackgroundImageFix" />
      <feBlend mode="normal" in="SourceGraphic" in2="BackgroundImageFix" result="shape" />
      <feGaussianBlur stdDeviation="90" result="effect1_foregroundBlur" />
    </filter>
  </defs>
</svg>