<svg width="617" height="289" viewBox="0 0 617 289" fill="none" xmlns="http://www.w3.org/2000/svg">
<mask id="mask0" mask-type="alpha" maskUnits="userSpaceOnUse" x="0" y="0" width="568" height="203">
<path fill-rule="evenodd" clip-rule="evenodd" d="M522.032 2.92027C499.327 0.485723 476.192 0.518932 453.38 1.31999C437.189 1.88854 421.19 2.73823 405.835 8.25455C395.625 12.1847 387.544 20.765 384.941 31.512C371.48 12.3406 347.107 5.33457 324.817 3.02696C304.459 0.685131 283.316 0.744921 262.988 3.34701C241.478 6.10046 217.79 13.758 205.529 32.8989V4.73393H151.056V20.2033C136.344 9.21472 115.237 3.56038 88.0535 3.56038C59.7218 3.56038 26.4382 7.40706 10.3404 34.0725C2.23582 46.7796 0 63.0424 0 77.8136C0 102.975 13.405 122.807 36.7778 131.903C64.6594 142.907 100.582 143.265 128.456 132.863C140.928 128.169 148.604 122.515 151.269 115.9C151.269 134.598 143.033 147.054 124.831 153.454C93.684 164.406 48.8304 159.373 20.5743 142.038L2.55846 184.286C50.8007 206.816 139.244 212.97 181.437 179.912C197.534 167.109 205.636 147.266 205.636 120.168V110.246C215.981 125.775 235.037 133.135 252.648 136.597C279.867 141.948 309.939 141.862 337.183 136.704C357.873 132.822 379.097 123.495 389.205 103.952C393.149 96.1635 395.388 86.9886 395.921 76.5334C401.63 80.8185 407.978 83.4753 414.896 85.2816C433.005 89.9416 452.063 90.1891 470.649 90.1891C489.847 90.1891 502.958 91.2114 510.009 93.283C516.833 95.2878 518.147 100.543 510.092 101.391C498.233 102.64 486.088 101.925 474.167 101.925C459.883 101.925 445.491 101.071 430.78 99.4708C416.069 97.8705 406.795 95.7368 403.064 93.283L387.819 131.903C396.241 139.691 424.384 143.639 472.142 143.639C485.894 143.639 497.726 143.319 507.427 142.678C517.235 142.038 525.763 140.971 533.012 139.371C554.482 134.631 568.551 121.867 567.322 97.9772C566.402 80.0954 557.188 62.8709 538.448 58.5035C530.667 56.7965 521.605 55.5163 511.265 54.7695C500.818 54.0227 487.599 53.596 471.502 53.596C447.836 53.596 436.004 51.3556 435.79 46.9814C435.79 44.6344 437.709 43.2474 441.44 42.714C451.538 41.5591 461.848 41.9384 472 42C485.965 42 500.285 42.9274 514.889 44.9544C529.494 46.8748 540.474 49.2218 547.829 51.889L566.165 15.0085C566.165 15.0085 546.5 5.54392 522.032 2.92027ZM151.162 76.2133H150.949V65.8648C150.949 56.7221 140.714 51.8446 133.253 49.6486C120.831 45.919 107.583 44.741 94.6629 44.741C68.3321 44.741 55.22 53.7026 55.22 71.7325C55.22 93.6787 77.7015 99.2574 95.6223 99.2574C113.565 99.2574 145.502 97.6142 151.162 76.2133ZM295.608 101.391C316.633 101.391 338.036 95.2055 338.036 70.6656C338.036 47.6956 314.509 39.9402 294.755 39.9402C276.467 39.9402 253.82 47.9591 253.82 69.5988C253.82 94.0081 274.257 101.391 295.608 101.391Z" fill="#D21010"/>
</mask>
<g mask="url(#mask0)">
<rect y="-10.0002" width="578" height="222" fill="#D21010"/>
<g filter="url(#filter0_f)">
<rect x="-202.266" y="55.8965" width="680.656" height="155.844" transform="rotate(-19.9053 -202.266 55.8965)" fill="#F3F739"/>
</g>
<g filter="url(#filter1_f)">
<rect x="172" y="189.407" width="555.377" height="180.941" transform="rotate(-22.4859 172 189.407)" fill="#0000FF"/>
</g>
</g>
<mask id="mask1" mask-type="alpha" maskUnits="userSpaceOnUse" x="46" y="122" width="571" height="167">
<path fill-rule="evenodd" clip-rule="evenodd" d="M614.617 211.509C613.02 189.939 609.199 166.299 587.433 156.246C554.78 141.163 506.883 148.287 479.019 169.582V122H424.332V175.343C418.057 169.064 410.489 164.274 402.372 160.727C381.369 151.253 356.427 149.525 333.72 149.525C301.206 149.525 277.22 155.606 261.87 167.768C255.26 172.996 250.143 179.077 246.412 186.118V150.165H192.472V219.724C176.694 234.02 159.105 241.061 139.917 241.061C129.005 241.061 114.515 239.129 107.616 229.539C100.47 219.209 99.9408 207.159 99.9408 195.08V150.165H46V180.357C46.3625 205.206 46.7373 230.718 56.447 253.97C62.2035 266.239 71.0516 274.667 82.991 279.255C94.9305 283.842 111.56 286.189 132.668 286.189C158.785 286.189 178.72 279.255 192.578 265.492V286.403H246.519V252.263C257.461 271.036 275.817 280.013 296.622 284.376C321.917 289.68 349.674 289.301 375.081 284.909C392.911 281.989 411.332 276.475 424.438 263.358V286.403H479.125V205.855C489.466 196.147 505.776 191.239 527.949 191.239C539.215 191.239 549.415 195.223 555.986 204.788C562.864 215.114 561.636 229.738 561.636 241.595V286.509H616.323C616.323 261.518 616.279 236.453 614.617 211.509ZM381.158 228.686L424.758 234.873V203.081L381.051 209.589C380 205 374.004 200.292 369.964 197.96C360.606 192.557 348.088 191.559 337.557 191.559C324.934 191.559 306.61 192.461 298.754 204.255C293.625 211.954 293.452 222.314 297.049 230.713C303.142 244.943 324.332 246.075 337.344 246.075C348.925 246.075 361.497 245.126 371.777 239.248C375.732 236.985 380.118 233.37 381.158 228.686Z" fill="black"/>
</mask>
<g mask="url(#mask1)">
<rect x="23" y="106" width="619" height="221" fill="#D21010"/>
<g filter="url(#filter2_f)">
<rect x="-113" y="189.001" width="593.573" height="160.686" transform="rotate(-23.3227 -113 189.001)" fill="#F3F739"/>
</g>
<g filter="url(#filter3_f)">
<rect x="284" y="280.292" width="451.838" height="177.874" transform="rotate(-19.5627 284 280.292)" fill="#0000FF"/>
</g>
</g>
<defs>
<filter id="filter0_f" x="-382.266" y="-355.844" width="1053.05" height="738.274" filterUnits="userSpaceOnUse" color-interpolation-filters="sRGB">
<feFlood flood-opacity="0" result="BackgroundImageFix"/>
<feBlend mode="normal" in="SourceGraphic" in2="BackgroundImageFix" result="shape"/>
<feGaussianBlur stdDeviation="90" result="effect1_foregroundBlur"/>
</filter>
<filter id="filter1_f" x="-7.99991" y="-203" width="942.356" height="739.592" filterUnits="userSpaceOnUse" color-interpolation-filters="sRGB">
<feFlood flood-opacity="0" result="BackgroundImageFix"/>
<feBlend mode="normal" in="SourceGraphic" in2="BackgroundImageFix" result="shape"/>
<feGaussianBlur stdDeviation="90" result="effect1_foregroundBlur"/>
</filter>
<filter id="filter2_f" x="-293" y="-226" width="968.689" height="742.558" filterUnits="userSpaceOnUse" color-interpolation-filters="sRGB">
<feFlood flood-opacity="0" result="BackgroundImageFix"/>
<feBlend mode="normal" in="SourceGraphic" in2="BackgroundImageFix" result="shape"/>
<feGaussianBlur stdDeviation="90" result="effect1_foregroundBlur"/>
</filter>
<filter id="filter3_f" x="104" y="-51" width="845.315" height="678.898" filterUnits="userSpaceOnUse" color-interpolation-filters="sRGB">
<feFlood flood-opacity="0" result="BackgroundImageFix"/>
<feBlend mode="normal" in="SourceGraphic" in2="BackgroundImageFix" result="shape"/>
<feGaussianBlur stdDeviation="90" result="effect1_foregroundBlur"/>
</filter>
</defs>
</svg>
