<svg width="117" height="116" viewBox="0 0 117 116" fill="none" xmlns="http://www.w3.org/2000/svg">
<path d="M58.5055 0C42.6177 0 40.6238 0.0688761 34.3837 0.350418C28.1559 0.633168 23.9048 1.61071 20.1851 3.045C16.3375 4.52642 13.0737 6.50808 9.82201 9.73313C6.56791 12.957 4.56914 16.1929 3.07006 20.0064C1.61973 23.6954 0.632537 27.9113 0.352222 34.0835C0.0731252 40.2701 0 42.2482 0 58C0 73.7518 0.0706894 75.7226 0.353442 81.9093C0.639851 88.0839 1.62583 92.2985 3.07128 95.9864C4.5667 99.8011 6.56547 103.037 9.81835 106.261C13.0688 109.487 16.3326 111.474 20.1778 112.955C23.8999 114.389 28.1522 115.367 34.3789 115.65C40.6189 115.931 42.6116 116 58.4982 116C74.3872 116 76.375 115.931 82.615 115.65C88.8429 115.367 93.0988 114.389 96.8209 112.955C100.667 111.474 103.926 109.487 107.177 106.261C110.431 103.037 112.43 99.8011 113.929 95.9876C115.367 92.2985 116.354 88.0827 116.647 81.9105C116.927 75.7238 117 73.7518 117 58C117 42.2482 116.927 40.2713 116.647 34.0847C116.354 27.9101 115.367 23.6954 113.929 20.0076C112.43 16.1929 110.431 12.957 107.177 9.73313C103.923 6.50688 100.669 4.52521 96.8173 3.045C93.0879 1.61071 88.8344 0.633168 82.6065 0.350418C76.3664 0.0688761 74.3799 0 58.4872 0H58.5055ZM53.2575 10.4521C54.8151 10.4497 56.553 10.4521 58.5055 10.4521C74.1251 10.4521 75.9764 10.5077 82.1446 10.7856C87.8484 11.0442 90.9441 11.9891 93.0062 12.783C95.7362 13.8342 97.6826 15.0909 99.7289 17.1209C101.776 19.1509 103.044 21.0842 104.107 23.7909C104.907 25.833 105.862 28.9021 106.121 34.5571C106.402 40.6713 106.463 42.508 106.463 57.9867C106.463 73.4655 106.402 75.3021 106.121 81.4163C105.861 87.0713 104.907 90.1405 104.107 92.1825C103.046 94.8892 101.776 96.8165 99.7289 98.8453C97.6814 100.875 95.7375 102.132 93.0062 103.183C90.9465 103.981 87.8484 104.923 82.1446 105.182C75.9777 105.46 74.1251 105.52 58.5055 105.52C42.8846 105.52 41.0333 105.46 34.8664 105.182C29.1626 104.921 26.0669 103.976 24.0035 103.182C21.2735 102.131 19.3235 100.874 17.276 98.8441C15.2284 96.8141 13.9609 94.8856 12.8982 92.1777C12.0974 90.1356 11.1431 87.0665 10.8836 81.4115C10.6032 75.2973 10.5472 73.4606 10.5472 57.9722C10.5472 42.4838 10.6032 40.6568 10.8836 34.5426C11.1444 28.8876 12.0974 25.8185 12.8982 23.774C13.9585 21.0673 15.2284 19.134 17.276 17.104C19.3235 15.074 21.2735 13.8173 24.0035 12.7636C26.0657 11.9661 29.1626 11.0236 34.8664 10.7638C40.263 10.5222 42.3544 10.4497 53.2575 10.4376V10.4521ZM89.7326 20.0825C85.857 20.0825 82.7125 23.1964 82.7125 27.0401C82.7125 30.8826 85.857 34.0001 89.7326 34.0001C93.6083 34.0001 96.7527 30.8826 96.7527 27.0401C96.7527 23.1976 93.6083 20.0801 89.7326 20.0801V20.0825ZM58.5055 28.2146C41.9145 28.2146 28.463 41.551 28.463 58C28.463 74.449 41.9145 87.7794 58.5055 87.7794C75.0965 87.7794 88.5431 74.449 88.5431 58C88.5431 41.551 75.0953 28.2146 58.5043 28.2146H58.5055ZM58.5055 38.6667C69.2745 38.6667 78.0057 47.322 78.0057 58C78.0057 68.6768 69.2745 77.3333 58.5055 77.3333C47.7353 77.3333 39.0053 68.6768 39.0053 58C39.0053 47.322 47.7353 38.6667 58.5055 38.6667V38.6667Z" fill="#FFFF54"/>
</svg>
