<svg width="189" height="20" viewBox="0 0 189 20" fill="none" xmlns="http://www.w3.org/2000/svg">
<path d="M0 2.1499H3.864L7.938 9.6049L11.97 2.1499H15.75V16.8499H11.97V8.4289L8.925 14.0149H6.825L3.78 8.4289V16.8499H0V2.1499Z" fill="white"/>
<path d="M26.9146 14.0359H22.0006L20.9926 16.8499H17.4226L22.7776 2.1499H26.5576L31.9126 16.8499H27.9226L26.9146 14.0359ZM23.0716 11.1379H25.8436L24.4576 6.7699L23.0716 11.1379Z" fill="white"/>
<path d="M33.5918 2.1499H39.1568C40.2628 2.1499 41.2498 2.3039 42.1178 2.6119C42.9858 2.9059 43.7208 3.3469 44.3228 3.9349C44.9248 4.5229 45.3868 5.2579 45.7088 6.1399C46.0308 7.0219 46.1918 8.0369 46.1918 9.1849V9.6049C46.1918 10.7809 46.0238 11.8239 45.6878 12.7339C45.3658 13.6299 44.8898 14.3859 44.2598 15.0019C43.6438 15.6039 42.8878 16.0659 41.9918 16.3879C41.0958 16.6959 40.0808 16.8499 38.9468 16.8499H33.5918V2.1499ZM38.7368 13.7419C39.2128 13.7419 39.6608 13.6719 40.0808 13.5319C40.5148 13.3779 40.8928 13.1399 41.2148 12.8179C41.5508 12.4959 41.8098 12.0689 41.9918 11.5369C42.1878 11.0049 42.2858 10.3609 42.2858 9.6049V9.1849C42.2858 8.4709 42.1948 7.8689 42.0128 7.3789C41.8448 6.8749 41.6068 6.4689 41.2988 6.1609C41.0048 5.8389 40.6548 5.6079 40.2488 5.4679C39.8428 5.3279 39.4088 5.2579 38.9468 5.2579H37.3718V13.7419H38.7368Z" fill="white"/>
<path d="M48.6035 2.1499H59.3135V5.0479H52.3835V7.9249H58.6835V10.6549H52.3835V13.9519H59.3135V16.8499H48.6035V2.1499Z" fill="white"/>
<path d="M67.1885 2.1499H70.9685V16.8499H67.1885V2.1499Z" fill="white"/>
<path d="M74.1152 2.1499H77.4542L83.1452 10.3399V2.1499H87.1352V16.8499H83.5652L77.8952 8.6599V16.8499H74.1152V2.1499Z" fill="white"/>
<path d="M127.36 8.33887H129.723L127.01 4.68387L129.548 2.50827H127.098L125.085 4.50982V0.59375H123.159V8.33887H125.085V6.42435L125.697 5.9022L127.36 8.33887Z" fill="white"/>
<path d="M141.888 8.33887H144.25L141.538 4.68387L144.075 2.50827H141.625L139.612 4.50982V0.59375H137.687V8.33887H139.612V6.42435L140.225 5.9022L141.888 8.33887Z" fill="white"/>
<path d="M151.164 2.50827L153.527 8.33887H155.365L157.64 2.50827H155.54L154.84 4.77089C154.752 5.11901 154.577 5.81523 154.402 6.42435C154.263 6.05563 154.173 5.73572 154.093 5.45172C154.022 5.19948 153.959 4.97555 153.877 4.77089L153.177 2.50827H151.164Z" fill="white"/>
<path d="M158.165 1.98612H160.091V0.59375H158.165V1.98612Z" fill="white"/>
<path d="M158.165 8.33887H160.091V2.50827H158.165V8.33887Z" fill="white"/>
<path d="M165.692 8.33887H168.055L165.342 4.68387L167.88 2.50827H165.429L163.416 4.50982V0.59375H161.491V8.33887H163.416V6.42435L164.029 5.9022L165.692 8.33887Z" fill="white"/>
<path d="M172.255 2.42124C171.555 2.42124 171.03 2.59529 170.505 3.03041H170.417V0.59375H168.492V8.33887H170.417V5.11899C170.417 4.50982 170.417 4.33577 170.68 4.16172C170.943 3.98767 171.205 3.90065 171.555 3.90065C171.905 3.90065 172.168 3.98767 172.343 4.16172C172.518 4.33577 172.605 4.59685 172.605 5.11899V8.33887H174.531V4.77089C174.531 3.90065 174.356 3.46553 173.918 3.03041C173.568 2.59529 172.955 2.42124 172.255 2.42124Z" fill="white"/>
<path d="M175.843 1.98612H177.769V0.59375H175.843V1.98612Z" fill="white"/>
<path d="M175.843 8.33887H177.769V2.50827H175.843V8.33887Z" fill="white"/>
<path d="M180.919 3.03041V2.42124H179.081V8.25184H181.007V5.03196C181.007 4.50982 181.007 4.24875 181.269 4.07471C181.532 3.81363 181.794 3.7266 182.144 3.7266C182.494 3.7266 182.757 3.90066 182.932 4.07471C183.107 4.33575 183.107 4.50979 183.107 5.1188V8.25184H185.032V4.50982C185.032 3.20447 184.157 2.33423 182.757 2.33423C182.057 2.33423 181.619 2.42124 180.919 3.03041Z" fill="white"/>
<path d="M186.345 8.33887H188.27V6.42435H186.345V8.33887Z" fill="white"/>
<path d="M130.686 11.6458H132.611V10.2534H130.686V11.6458Z" fill="white"/>
<path d="M130.686 17.9985H132.611V12.1679H130.686V17.9985Z" fill="white"/>
<path fill-rule="evenodd" clip-rule="evenodd" d="M139.7 19.2169C140.137 18.8688 140.312 18.4336 140.312 17.4764V12.1679H138.474V12.8641C138.037 12.2549 137.424 11.9939 136.549 11.9939C134.886 11.9939 133.661 12.603 133.661 14.8657C133.661 17.1283 134.886 17.6504 136.637 17.6504C137.337 17.6504 137.774 17.4764 138.387 17.0413V17.3893C138.387 17.9985 138.299 18.2596 138.037 18.4336C137.862 18.6077 137.512 18.6947 137.162 18.6947C136.549 18.6947 136.199 18.5207 136.024 18.1726H134.011C134.099 19.3039 135.236 20.0001 137.074 20.0001C138.212 20.0001 139.087 19.739 139.7 19.2169ZM136.987 16.3451C136.112 16.3451 135.499 15.7359 135.499 14.8657C135.499 13.9954 136.024 13.3862 136.987 13.4733C137.862 13.4733 138.474 13.9954 138.474 14.8657C138.474 15.8229 137.862 16.3451 136.987 16.3451Z" fill="white"/>
<path d="M141.625 11.6458H143.55V10.2534H141.625V11.6458Z" fill="white"/>
<path d="M141.625 17.9985H143.55V12.1679H141.625V17.9985Z" fill="white"/>
<path d="M146.963 13.4733H148.189V12.342H146.963V10.3404H145.038V12.342H144.075V13.5603H145.038V16.171C145.038 17.0413 145.126 17.3894 145.388 17.6504C145.651 17.9115 146.088 17.9985 146.963 17.9985H148.189V16.6932H147.489C146.963 16.6932 146.963 16.6061 146.963 15.7359V13.4733Z" fill="white"/>
<path d="M148.984 13.9084C148.981 13.9371 148.978 13.9661 148.976 13.9954V13.9084H148.984Z" fill="white"/>
<path fill-rule="evenodd" clip-rule="evenodd" d="M148.984 13.9084H150.639C150.639 13.3862 151.077 13.2122 151.777 13.2122C152.477 13.2122 152.827 13.3863 152.827 13.7343C152.827 13.9954 152.652 14.0824 152.214 14.1695L151.164 14.3435C149.326 14.6046 148.539 15.1267 148.539 16.258C148.539 17.3894 149.501 18.0855 150.989 18.0855C151.777 18.0855 152.302 17.9115 152.914 17.4764C152.958 17.5634 152.98 17.6287 153.002 17.6939C153.024 17.7592 153.046 17.8245 153.089 17.9115H155.102C154.84 17.6504 154.84 17.5634 154.84 16.9543V14.2565C154.84 13.4733 154.577 12.9511 154.14 12.603C153.615 12.1679 152.827 11.9939 151.864 11.9939C150.068 11.9939 149.107 12.6591 148.984 13.9084ZM152.636 15.3165C152.786 15.2881 152.894 15.2675 153.002 15.2138V16.171C152.739 16.6061 152.214 16.8672 151.602 16.8672C150.989 16.8672 150.639 16.6061 150.639 16.258C150.639 15.91 150.902 15.7359 151.602 15.5619L152.302 15.3878C152.436 15.3546 152.544 15.334 152.636 15.3165Z" fill="white"/>
<path d="M156.24 17.9985H158.165V10.2534H156.24V17.9985Z" fill="white"/>
<path fill-rule="evenodd" clip-rule="evenodd" d="M127.535 17.9985H129.373V10.3404H127.448V12.6901C127.01 12.2549 126.485 12.0809 125.785 12.0809C123.947 12.0809 122.809 12.7771 122.809 15.1267C122.809 17.4764 123.947 18.1726 125.697 18.1726C126.485 18.1726 127.01 17.9115 127.535 17.3893V17.9985ZM127.535 15.1267C127.535 16.4321 127.01 16.7802 126.135 16.7802C125.26 16.7802 124.735 16.4321 124.735 15.1267C124.735 13.8214 125.26 13.4733 126.135 13.4733C127.01 13.4733 127.535 13.8214 127.535 15.1267Z" fill="white"/>
<path fill-rule="evenodd" clip-rule="evenodd" d="M129.635 5.38006C129.635 3.03042 131.123 2.33423 133.136 2.33423C135.149 2.33423 136.637 3.03042 136.637 5.38006C136.637 7.72971 135.149 8.4259 133.136 8.4259C131.123 8.4259 129.635 7.72971 129.635 5.38006ZM131.561 5.38006C131.561 6.77245 132.173 7.12054 133.136 7.12054C134.099 7.12054 134.711 6.68542 134.711 5.38006C134.711 4.07471 134.186 3.7266 133.136 3.7266C132.086 3.7266 131.561 3.98768 131.561 5.38006Z" fill="white"/>
<path fill-rule="evenodd" clip-rule="evenodd" d="M144.075 5.38006C144.075 3.03042 145.563 2.33423 147.576 2.33423C149.676 2.33423 151.077 3.03042 151.077 5.38006C151.077 7.72971 149.589 8.4259 147.576 8.4259C145.563 8.4259 144.075 7.72971 144.075 5.38006ZM146.001 5.38006C146.001 6.77245 146.613 7.12054 147.576 7.12054C148.626 7.12054 149.151 6.68542 149.151 5.38006C149.151 4.07471 148.626 3.7266 147.576 3.7266C146.526 3.7266 146.001 3.98768 146.001 5.38006Z" fill="white"/>
<path fill-rule="evenodd" clip-rule="evenodd" d="M97 19V0H116V19H97ZM110.591 1.94082L113.97 5.32021V1.94082H110.591ZM103.565 16.2588L113.259 6.56526L109.435 2.7412L99.7412 12.4347L103.565 16.2588ZM108.102 2.02974L99.0298 11.1897V2.02974H108.102ZM102.409 16.9702L99.0298 13.5908V16.9702H102.409ZM113.97 7.81029L104.81 16.9702H113.97V7.81029Z" fill="white"/>
</svg>
