<svg viewBox="0 0 1149 108" fill="none" xmlns="http://www.w3.org/2000/svg">
<path d="M0.119995 0.899994H40.512V75.564H54.894V0.899994H95.286V75.564H109.668V0.899994H150.06V108H0.119995V0.899994Z" fill="white"/>
<path d="M162.234 0.899994H202.779L226.188 46.035L249.597 0.899994H289.224V108H248.832V65.16L236.439 88.875H215.019L202.626 65.16V108H162.234V0.899994Z" fill="white"/>
<path d="M364.677 93.618H336.831L333.006 108H295.674L333.618 0.899994H374.01L411.954 108H368.502L364.677 93.618ZM344.634 64.242H356.721L350.754 37.62L344.634 64.242Z" fill="white"/>
<path d="M418.33 0.899994H468.055C484.477 0.899994 496.36 4.266 503.704 10.998C511.048 17.628 514.72 27.165 514.72 39.609C514.72 51.339 511.048 60.468 503.704 66.996C496.36 73.524 484.477 76.788 468.055 76.788H458.722V108H418.33V0.899994ZM463.312 48.942C467.494 48.942 470.35 48.024 471.88 46.188C473.512 44.352 474.328 42.159 474.328 39.609C474.328 37.059 473.512 34.866 471.88 33.03C470.248 31.194 467.392 30.276 463.312 30.276H458.722V48.942H463.312Z" fill="white"/>
<path d="M523.069 0.899994H563.461V40.221H568.051L588.859 0.899994H631.699L601.864 50.625L633.229 108H587.941L568.051 67.149H563.461V108H523.069V0.899994Z" fill="white"/>
<path d="M640.06 0.899994H724.21V30.276H680.452V41.292H719.62V66.078H680.452V78.624H724.21V108H640.06V0.899994Z" fill="white"/>
<path d="M760.624 33.336H732.625V0.899994H829.015V33.336H801.016V108H760.624V33.336Z" fill="white"/>
<path d="M838.183 0.899994H878.576V46.8L904.891 0.899994H942.224V108H901.831V62.1L875.516 108H838.183V0.899994Z" fill="white"/>
<path d="M954.428 0.899994H994.82V37.467H1018.08V0.899994H1058.47V108H1018.08V69.903H994.82V108H954.428V0.899994Z" fill="white"/>
<path d="M1070.67 0.899994H1148.7V33.336H1111.06V108H1070.67V0.899994Z" fill="white"/>
</svg>
