<svg width="628" height="227" viewBox="0 0 628 227" fill="none" xmlns="http://www.w3.org/2000/svg">
<path d="M0.119995 0.900024H40.512V75.564H54.894V0.900024H95.286V75.564H109.668V0.900024H150.06V108H0.119995V0.900024Z" fill="white"/>
<path d="M162.234 0.900024H202.779L226.188 46.035L249.597 0.900024H289.224V108H248.832V65.16L236.439 88.875H215.019L202.626 65.16V108H162.234V0.900024Z" fill="white"/>
<path d="M364.677 93.618H336.831L333.006 108H295.674L333.618 0.900024H374.01L411.954 108H368.502L364.677 93.618ZM344.634 64.242H356.721L350.754 37.62L344.634 64.242Z" fill="white"/>
<path d="M418.33 0.900024H468.055C484.477 0.900024 496.36 4.26603 503.704 10.998C511.048 17.628 514.72 27.165 514.72 39.609C514.72 51.339 511.048 60.468 503.704 66.996C496.36 73.524 484.477 76.788 468.055 76.788H458.722V108H418.33V0.900024ZM463.312 48.942C467.494 48.942 470.35 48.024 471.88 46.188C473.512 44.352 474.328 42.159 474.328 39.609C474.328 37.059 473.512 34.866 471.88 33.03C470.248 31.194 467.392 30.276 463.312 30.276H458.722V48.942H463.312Z" fill="white"/>
<path d="M520.009 48.942H627.109V81.378H520.009V48.942Z" fill="white"/>
<path d="M0.119995 119.9H40.512V159.221H45.102L65.91 119.9H108.75L78.915 169.625L110.28 227H64.992L45.102 186.149H40.512V227H0.119995V119.9Z" fill="white"/>
<path d="M117.111 119.9H201.261V149.276H157.503V160.292H196.671V185.078H157.503V197.624H201.261V227H117.111V119.9Z" fill="white"/>
<path d="M237.675 152.336H209.676V119.9H306.066V152.336H278.067V227H237.675V152.336Z" fill="white"/>
<path d="M315.234 119.9H355.626V165.8L381.942 119.9H419.274V227H378.882V181.1L352.566 227H315.234V119.9Z" fill="white"/>
<path d="M431.478 119.9H471.87V156.467H495.126V119.9H535.518V227H495.126V188.903H471.87V227H431.478V119.9Z" fill="white"/>
<path d="M547.723 119.9H625.753V152.336H588.115V227H547.723V119.9Z" fill="white"/>
</svg>
