<svg width="116" height="116" viewBox="0 0 116 116" fill="none" xmlns="http://www.w3.org/2000/svg">
<path d="M110.5 58C110.5 86.9949 86.9949 110.5 58 110.5C29.005 110.5 5.5 86.9949 5.5 58C5.5 29.005 29.005 5.5 58 5.5C86.9949 5.5 110.5 29.005 110.5 58Z" stroke="#FFFF54" stroke-width="11"/>
<path d="M24.1388 57.4971C24.1388 57.4971 53.1388 45.5954 63.1966 41.4046C67.0521 39.7283 80.1273 34.3641 80.1273 34.3641C80.1273 34.3641 86.1619 32.0173 85.659 37.7167C85.4914 40.0636 84.1504 48.2774 82.8093 57.1618C80.7978 69.7341 78.6186 83.4797 78.6186 83.4797C78.6186 83.4797 78.2833 87.3352 75.4336 88.0058C72.5839 88.6763 67.8903 85.6589 67.0521 84.9884C66.3816 84.4855 54.4799 76.9422 50.1215 73.2543C48.9481 72.2485 47.607 70.237 50.2891 67.8902C56.3238 62.3584 63.5319 55.4855 67.8903 51.1271C69.9018 49.1156 71.9134 44.4219 63.5319 50.1214C51.6302 58.3352 39.896 66.0462 39.896 66.0462C39.896 66.0462 37.214 67.7225 32.1851 66.2139C27.1562 64.7052 21.2891 62.6936 21.2891 62.6936C21.2891 62.6936 17.266 60.1792 24.1388 57.4971Z" fill="#FFFF54"/>
</svg>
