<svg width="272" height="73" viewBox="0 0 272 73" fill="none" xmlns="http://www.w3.org/2000/svg">
<mask id="path-1-inside-1" fill="white">
<path d="M189.491 22.6487L189.491 22.6498C189.498 22.6474 189.497 22.647 189.491 22.6487Z"/>
<path d="M19.7959 14.5868H0V5.82717H35.3345V14.5868H35.0084L16.7031 24.4873H35.3345V33.3035H0V24.4873H0.419209L19.7959 14.5868Z"/>
<path fill-rule="evenodd" clip-rule="evenodd" d="M71.703 9.3065C72.914 10.2683 73.8083 11.3809 74.3673 12.6444C75.2709 14.7282 75.8485 17.3589 76.0907 20.5177C76.3422 23.6953 76.4633 27.9667 76.4633 33.3318H65.6943C65.6943 32.5492 65.6757 31.71 65.6478 30.8237C62.3407 32.8132 58.5119 33.8127 54.1801 33.8127C52.9039 33.8127 51.8139 33.7938 50.929 33.7656C50.044 33.7373 48.9447 33.6524 47.6312 33.5298C46.3177 33.4072 45.2091 33.2281 44.3055 33.0112C43.4019 32.7849 42.4517 32.4549 41.4549 32.0117C40.4581 31.5686 39.6476 31.0405 39.0235 30.4276C38.3993 29.8148 37.8777 29.0227 37.4771 28.061C37.0765 27.0992 36.8716 26.0337 36.8716 24.8645C36.8716 23.3747 37.3466 22.0923 38.2969 20.9986C39.2564 19.9048 40.5513 19.0467 42.2095 18.415C43.8677 17.7832 45.6749 17.3212 47.6405 17.0195C49.6061 16.7178 51.7301 16.5669 54.0031 16.5669C57.8692 16.5669 61.3625 17.1515 64.4833 18.3207C63.8592 16.4255 62.8065 15.1902 61.3253 14.6056C59.8441 14.021 57.4965 13.7287 54.2826 13.7287C51.6649 13.7287 49.1403 13.9079 46.7276 14.2756C44.3148 14.6339 42.7684 14.9168 42.0977 15.1243C41.4269 15.3317 40.8587 15.5108 40.3929 15.6711L37.9615 8.18444C43.2714 6.20434 48.9354 5.20485 54.9533 5.20485C56.2669 5.20485 57.5431 5.25199 58.7914 5.32743C60.0397 5.40286 61.5209 5.59144 63.235 5.89317C64.9491 6.19491 66.4955 6.59093 67.8463 7.10009C69.1971 7.60926 70.4826 8.34474 71.703 9.3065ZM64.9584 24.7702C64.6789 25.1757 63.589 25.6282 61.6793 26.1186C59.7789 26.6089 57.6828 26.854 55.4098 26.854C50.9476 26.854 48.7211 26.194 48.7211 24.8645C48.7211 24.2327 49.2801 23.7707 50.4073 23.469C51.5345 23.1673 53.3883 23.0164 55.9781 23.0164C61.0924 23.0164 64.092 23.4313 64.9677 24.2516C64.9584 24.3176 64.9584 24.4873 64.9584 24.7702Z"/>
<path d="M102.119 5.87432L89.9524 16.2935V0.141434H79.0437V33.3035H89.9524V28.325L93.2688 25.0625L102.119 33.3035H116.996L101.318 19.6125L116.996 5.87432H102.119Z"/>
<path d="M136.801 24.1573C140.639 24.1573 144.133 22.7241 147.281 19.8482V5.82717H158.032V33.2941H147.272V29.0793C144.524 31.8609 140.546 33.2469 135.339 33.2469C131.128 33.2469 127.83 32.7849 125.445 31.8514C123.06 30.918 121.29 29.2113 120.135 26.7126C119.288 24.9116 118.729 22.6864 118.449 20.0368C118.17 17.3872 118.03 13.3704 118.03 8.00529L118.077 5.82717H128.836V15.0205C128.836 15.8126 128.846 16.4066 128.864 16.8215C128.883 17.2364 128.939 17.821 129.05 18.5753C129.162 19.3296 129.311 19.9236 129.498 20.348C129.684 20.7723 129.973 21.2626 130.364 21.8189C130.755 22.3658 131.221 22.7901 131.771 23.073C132.32 23.3558 133.019 23.6104 133.876 23.8273C134.733 24.0442 135.711 24.1573 136.801 24.1573Z"/>
<path d="M189.006 22.809C188.643 22.9221 188.168 23.0635 187.553 23.2333C186.948 23.403 186.277 23.5727 185.56 23.733C184.842 23.8933 184.032 24.0253 183.128 24.1385C182.225 24.2516 181.377 24.3082 180.604 24.3082C180.073 24.3082 179.588 24.2233 179.15 24.0442C178.713 23.8744 178.358 23.6481 178.098 23.3841C177.837 23.1201 177.613 22.7901 177.446 22.4129C177.278 22.0358 177.147 21.6963 177.073 21.3946C176.998 21.0929 176.943 20.7723 176.905 20.4234L176.901 20.371L176.901 20.3689C176.875 20.0508 176.859 19.8422 176.859 19.7351V13.9739H190.106V5.73289H176.859V0H165.997V5.73289H160.565V13.9739H165.997V19.4711C165.997 21.6209 166.043 23.3841 166.136 24.7796C166.229 26.1657 166.434 27.4198 166.742 28.523C167.049 29.6262 167.431 30.4748 167.869 31.0594C168.307 31.644 168.931 32.1343 169.741 32.5303C170.552 32.9264 171.446 33.1809 172.434 33.2847C173.412 33.3978 174.669 33.4544 176.197 33.4544C179.411 33.4544 182.504 33.2375 185.485 32.8132C188.466 32.3889 190.404 32.0589 191.317 31.8137C192.22 31.578 192.91 31.3611 193.375 31.1726L189.491 22.6498C189.463 22.6611 189.297 22.7159 189.006 22.809Z"/>
<path fill-rule="evenodd" clip-rule="evenodd" d="M223.335 7.22268C225.17 7.845 226.698 8.6559 227.918 9.66481C229.138 10.6737 230.117 12.0221 230.862 13.7099C231.616 15.3977 231.989 17.3778 231.989 19.6502C231.989 22.2338 231.533 24.4496 230.61 26.2789C229.688 28.1175 228.319 29.5602 226.511 30.6162C224.704 31.6723 222.608 32.4266 220.242 32.8887C217.876 33.3507 215.081 33.577 211.867 33.577C208.597 33.577 205.765 33.3412 203.399 32.8698C201.033 32.3889 198.974 31.6252 197.223 30.5691C195.471 29.513 194.167 28.0798 193.31 26.26C192.453 24.4402 192.025 22.2432 192.025 19.6502C192.025 17.4438 192.379 15.5014 193.077 13.823C193.776 12.1541 194.708 10.8057 195.863 9.79682C197.018 8.78791 198.452 7.96758 200.167 7.33583C201.881 6.70409 203.651 6.27034 205.477 6.03462C207.302 5.79889 209.343 5.67631 211.588 5.67631C213.898 5.67631 215.966 5.78004 217.81 5.98747C219.655 6.19491 221.49 6.60979 223.335 7.22268ZM218.248 24.4213C216.795 25.3548 214.699 25.8168 211.951 25.8168C209.11 25.8168 207.014 25.2982 205.654 24.2516C204.293 23.2144 203.613 21.602 203.613 19.4239C203.613 18.5376 203.79 17.7455 204.154 17.0289C204.517 16.3217 204.964 15.7466 205.514 15.3034C206.063 14.8602 206.706 14.5019 207.451 14.2096C208.197 13.9268 208.933 13.7287 209.65 13.6156C210.367 13.5025 211.085 13.4459 211.802 13.4459C212.799 13.4459 213.74 13.5307 214.634 13.7099C215.519 13.8796 216.432 14.1719 217.345 14.5868C218.267 14.9922 219.003 15.6334 219.571 16.5009C220.13 17.3684 220.41 18.415 220.41 19.6502C220.428 21.9038 219.702 23.4879 218.248 24.4213Z"/>
<path d="M257.123 5.87432L244.956 16.2935V0.141434H234.048V33.3035H244.956V28.325L248.273 25.0625L257.123 33.3035H272L256.322 19.6125L272 5.87432H257.123Z"/>
<path fill-rule="evenodd" clip-rule="evenodd" d="M200.204 59.7238C199.952 56.5463 199.365 53.925 198.452 51.8317C197.884 50.5682 196.99 49.4556 195.751 48.4938C194.521 47.532 193.217 46.7966 191.848 46.2874C190.478 45.7782 188.923 45.3822 187.19 45.0805C185.457 44.7787 183.957 44.5902 182.69 44.5147C181.433 44.4393 180.138 44.3922 178.806 44.3922C172.713 44.3922 166.993 45.3916 161.627 47.3717L164.087 54.8584C164.562 54.6982 165.13 54.519 165.81 54.3116C166.49 54.1041 168.046 53.8212 170.496 53.4629C172.937 53.0952 175.489 52.916 178.135 52.916C181.386 52.916 183.762 53.2084 185.252 53.793C186.752 54.3776 187.814 55.6128 188.447 57.508C185.289 56.3388 181.759 55.7542 177.846 55.7542C175.545 55.7542 173.403 55.9051 171.409 56.2068C169.425 56.5085 167.59 56.9706 165.922 57.6023C164.245 58.2341 162.932 59.0921 161.972 60.1859C161.013 61.2796 160.528 62.562 160.528 64.0518C160.528 65.221 160.733 66.2865 161.143 67.2483C161.553 68.21 162.075 69.0021 162.708 69.615C163.342 70.2279 164.161 70.7559 165.167 71.199C166.174 71.6422 167.142 71.9722 168.055 72.1985C168.968 72.4154 170.086 72.5946 171.418 72.7171C172.741 72.8397 173.859 72.9246 174.753 72.9529C175.657 72.9811 176.747 73 178.042 73C182.429 73 186.295 72.0005 189.64 70.011C189.668 70.8973 189.686 71.7365 189.686 72.5191H200.567C200.576 67.1728 200.455 62.9015 200.204 59.7238ZM185.625 65.3153C187.553 64.825 188.662 64.3724 188.941 63.9669V63.4483C188.065 62.628 185.029 62.2131 179.858 62.2131C177.231 62.2131 175.359 62.364 174.222 62.6657C173.086 62.9675 172.518 63.4295 172.518 64.0612C172.518 65.3907 174.772 66.0508 179.281 66.0508C181.582 66.0508 183.696 65.8056 185.625 65.3153Z"/>
<path d="M147.291 45.0616H158.038V72.4908H147.291V45.0616Z"/>
<path d="M158.038 37.5844H147.291V42.9401H158.038V37.5844Z"/>
<path fill-rule="evenodd" clip-rule="evenodd" d="M133.559 47.9988C129.714 46.0784 125.395 45.1182 120.601 45.1182C118.263 45.1182 116.064 45.3916 113.996 45.948C111.928 46.5043 110.074 47.3058 108.435 48.3618C106.795 49.4179 105.491 50.8228 104.532 52.5766C103.572 54.3304 103.088 56.3105 103.088 58.5169C103.088 60.2896 103.274 61.8925 103.656 63.3258C104.038 64.759 104.532 65.9659 105.146 66.9277C105.761 67.8894 106.544 68.7381 107.485 69.4641C108.435 70.1901 109.394 70.7559 110.372 71.1708C111.351 71.5856 112.469 71.9062 113.735 72.142C114.993 72.3777 116.167 72.538 117.238 72.6134C118.309 72.6888 119.511 72.736 120.834 72.736C126.321 72.736 130.569 71.6799 133.559 69.5584V72.4908H144.543V39.3287H133.569L133.559 47.9988ZM133.569 60.9779C132.656 62.4017 131.435 63.3352 129.898 63.7972C128.37 64.2498 126.069 64.4855 123.014 64.4855C117.555 64.4855 114.825 62.6092 114.825 58.8469C114.825 58.1492 114.9 57.5174 115.04 56.9517C115.179 56.386 115.394 55.9145 115.682 55.5279C115.962 55.1507 116.26 54.8207 116.558 54.5284C116.856 54.2456 117.238 54.0193 117.695 53.8401C118.151 53.6704 118.552 53.5289 118.878 53.4347C119.204 53.3404 119.623 53.2649 120.107 53.2178C120.592 53.1706 120.955 53.1424 121.197 53.1424H122.352C128.818 53.1424 132.563 54.5001 133.569 57.2157V60.9779Z"/>
<path fill-rule="evenodd" clip-rule="evenodd" d="M96.8181 48.1166C95.0295 46.7966 92.9335 45.8537 90.5114 45.2691C88.0893 44.6939 85.2387 44.4016 81.9596 44.4016C75.2988 44.4016 70.2777 45.6557 66.8774 48.1638C63.4865 50.6719 61.7911 54.1795 61.7911 58.6772C61.7911 60.5065 61.9681 62.1188 62.3127 63.5049C62.6574 64.891 63.3002 66.1922 64.2225 67.4086C65.1447 68.6343 66.3651 69.6433 67.8742 70.4447C69.3834 71.2462 71.349 71.8779 73.7524 72.3211C76.1559 72.7737 78.9879 73 82.239 73C85.0151 73 87.5583 72.9151 89.8872 72.736C92.2162 72.5568 94.0327 72.3588 95.3369 72.1325C96.6411 71.9062 97.8149 71.6516 98.8489 71.3593C99.883 71.067 100.526 70.869 100.787 70.7559C101.038 70.6427 101.215 70.5579 101.318 70.4919L96.5386 62.6752L94.7221 63.156C93.4831 63.4766 91.6386 63.7972 89.1979 64.1178C86.7572 64.4384 84.3164 64.5987 81.8571 64.5987C79.0531 64.5987 76.9477 64.3252 75.5504 63.7784C74.1437 63.2315 73.3705 62.5243 73.2121 61.6568H101.597C101.849 58.4698 101.569 55.7542 100.74 53.4818C99.9016 51.2282 98.5974 49.4367 96.8181 48.1166ZM73.5848 55.5845C73.3332 55.9711 73.183 56.3482 73.183 56.7348H90.3064C90.3064 55.6788 89.673 54.7924 88.4153 54.0853C87.1577 53.3781 85.0244 53.0292 82.0341 53.0292C80.2827 53.0292 78.7829 53.1612 77.5439 53.4158C76.3049 53.6704 75.4013 54.0004 74.8237 54.4059C74.2555 54.8019 73.8363 55.1979 73.5848 55.5845Z"/>
<path d="M58.5399 50.6531C59.015 51.8223 59.369 53.4063 59.6019 55.4147C59.8441 57.4231 59.9745 59.3561 60.0211 61.2042C60.049 63.0711 60.0677 66.1167 60.0677 70.3504V72.4814H49.0379V63.3352C49.0379 62.958 49.0565 62.43 49.0845 61.7511C49.1135 61.2223 49.1312 60.7616 49.1465 60.3657L49.1466 60.3628V60.3622L49.159 60.0444C49.1776 59.5824 49.159 59.0355 49.1124 58.3849C49.0658 57.7343 48.9727 57.1968 48.8516 56.7725C48.7211 56.3482 48.5255 55.8862 48.2553 55.3959C47.9852 54.9056 47.6405 54.519 47.212 54.2361C46.7835 53.9532 46.2432 53.7175 45.6004 53.5289C44.9576 53.3403 44.1937 53.246 43.3087 53.246C41.7344 53.246 40.1693 53.6138 38.6229 54.3587C37.0765 55.1036 35.9214 55.9428 35.1668 56.8951C35.3252 59.1392 35.3997 63.6275 35.3997 70.3504V72.4814H24.5189V63.3352C24.5189 62.9957 24.5376 62.4583 24.5655 61.7511C24.5935 61.0439 24.6121 60.4687 24.6121 60.0256C24.6121 59.5824 24.5841 59.0261 24.5376 58.366C24.491 57.6966 24.3978 57.1685 24.2767 56.7537C24.1463 56.3482 23.9414 55.8956 23.6619 55.4053C23.3824 54.915 23.0284 54.5284 22.5999 54.2455C22.1807 53.9627 21.6311 53.7269 20.9697 53.5383C20.3082 53.3498 19.5444 53.2555 18.6966 53.2555C15.3802 53.2555 12.8277 54.5378 11.0298 57.0931V72.4908H0V45.0616H11.0112V48.4278C12.7159 47.2586 14.4207 46.3628 16.1255 45.7499C17.8303 45.137 19.9263 44.8259 22.4229 44.8259C25.0406 44.8259 27.2578 45.1465 29.0743 45.7971C30.8909 46.4382 32.3162 47.6923 33.3595 49.5593C37.0486 46.4005 41.6226 44.8259 47.0816 44.8259C48.1529 44.8259 49.1031 44.873 49.9229 44.9485C50.7427 45.0239 51.6183 45.1842 52.5499 45.4199C53.4815 45.6556 54.2919 45.9857 54.9906 46.3911C55.68 46.7966 56.3414 47.3623 56.9749 48.0695C57.6083 48.7861 58.13 49.6441 58.5399 50.6531Z"/>
</mask>
<path d="M189.491 22.6487L189.491 22.6498C189.498 22.6474 189.497 22.647 189.491 22.6487Z" fill="#FFFF54"/>
<path d="M19.7959 14.5868H0V5.82717H35.3345V14.5868H35.0084L16.7031 24.4873H35.3345V33.3035H0V24.4873H0.419209L19.7959 14.5868Z" fill="#FFFF54"/>
<path fill-rule="evenodd" clip-rule="evenodd" d="M71.703 9.3065C72.914 10.2683 73.8083 11.3809 74.3673 12.6444C75.2709 14.7282 75.8485 17.3589 76.0907 20.5177C76.3422 23.6953 76.4633 27.9667 76.4633 33.3318H65.6943C65.6943 32.5492 65.6757 31.71 65.6478 30.8237C62.3407 32.8132 58.5119 33.8127 54.1801 33.8127C52.9039 33.8127 51.8139 33.7938 50.929 33.7656C50.044 33.7373 48.9447 33.6524 47.6312 33.5298C46.3177 33.4072 45.2091 33.2281 44.3055 33.0112C43.4019 32.7849 42.4517 32.4549 41.4549 32.0117C40.4581 31.5686 39.6476 31.0405 39.0235 30.4276C38.3993 29.8148 37.8777 29.0227 37.4771 28.061C37.0765 27.0992 36.8716 26.0337 36.8716 24.8645C36.8716 23.3747 37.3466 22.0923 38.2969 20.9986C39.2564 19.9048 40.5513 19.0467 42.2095 18.415C43.8677 17.7832 45.6749 17.3212 47.6405 17.0195C49.6061 16.7178 51.7301 16.5669 54.0031 16.5669C57.8692 16.5669 61.3625 17.1515 64.4833 18.3207C63.8592 16.4255 62.8065 15.1902 61.3253 14.6056C59.8441 14.021 57.4965 13.7287 54.2826 13.7287C51.6649 13.7287 49.1403 13.9079 46.7276 14.2756C44.3148 14.6339 42.7684 14.9168 42.0977 15.1243C41.4269 15.3317 40.8587 15.5108 40.3929 15.6711L37.9615 8.18444C43.2714 6.20434 48.9354 5.20485 54.9533 5.20485C56.2669 5.20485 57.5431 5.25199 58.7914 5.32743C60.0397 5.40286 61.5209 5.59144 63.235 5.89317C64.9491 6.19491 66.4955 6.59093 67.8463 7.10009C69.1971 7.60926 70.4826 8.34474 71.703 9.3065ZM64.9584 24.7702C64.6789 25.1757 63.589 25.6282 61.6793 26.1186C59.7789 26.6089 57.6828 26.854 55.4098 26.854C50.9476 26.854 48.7211 26.194 48.7211 24.8645C48.7211 24.2327 49.2801 23.7707 50.4073 23.469C51.5345 23.1673 53.3883 23.0164 55.9781 23.0164C61.0924 23.0164 64.092 23.4313 64.9677 24.2516C64.9584 24.3176 64.9584 24.4873 64.9584 24.7702Z" fill="#FFFF54"/>
<path d="M102.119 5.87432L89.9524 16.2935V0.141434H79.0437V33.3035H89.9524V28.325L93.2688 25.0625L102.119 33.3035H116.996L101.318 19.6125L116.996 5.87432H102.119Z" fill="#FFFF54"/>
<path d="M136.801 24.1573C140.639 24.1573 144.133 22.7241 147.281 19.8482V5.82717H158.032V33.2941H147.272V29.0793C144.524 31.8609 140.546 33.2469 135.339 33.2469C131.128 33.2469 127.83 32.7849 125.445 31.8514C123.06 30.918 121.29 29.2113 120.135 26.7126C119.288 24.9116 118.729 22.6864 118.449 20.0368C118.17 17.3872 118.03 13.3704 118.03 8.00529L118.077 5.82717H128.836V15.0205C128.836 15.8126 128.846 16.4066 128.864 16.8215C128.883 17.2364 128.939 17.821 129.05 18.5753C129.162 19.3296 129.311 19.9236 129.498 20.348C129.684 20.7723 129.973 21.2626 130.364 21.8189C130.755 22.3658 131.221 22.7901 131.771 23.073C132.32 23.3558 133.019 23.6104 133.876 23.8273C134.733 24.0442 135.711 24.1573 136.801 24.1573Z" fill="#FFFF54"/>
<path d="M189.006 22.809C188.643 22.9221 188.168 23.0635 187.553 23.2333C186.948 23.403 186.277 23.5727 185.56 23.733C184.842 23.8933 184.032 24.0253 183.128 24.1385C182.225 24.2516 181.377 24.3082 180.604 24.3082C180.073 24.3082 179.588 24.2233 179.15 24.0442C178.713 23.8744 178.358 23.6481 178.098 23.3841C177.837 23.1201 177.613 22.7901 177.446 22.4129C177.278 22.0358 177.147 21.6963 177.073 21.3946C176.998 21.0929 176.943 20.7723 176.905 20.4234L176.901 20.371L176.901 20.3689C176.875 20.0508 176.859 19.8422 176.859 19.7351V13.9739H190.106V5.73289H176.859V0H165.997V5.73289H160.565V13.9739H165.997V19.4711C165.997 21.6209 166.043 23.3841 166.136 24.7796C166.229 26.1657 166.434 27.4198 166.742 28.523C167.049 29.6262 167.431 30.4748 167.869 31.0594C168.307 31.644 168.931 32.1343 169.741 32.5303C170.552 32.9264 171.446 33.1809 172.434 33.2847C173.412 33.3978 174.669 33.4544 176.197 33.4544C179.411 33.4544 182.504 33.2375 185.485 32.8132C188.466 32.3889 190.404 32.0589 191.317 31.8137C192.22 31.578 192.91 31.3611 193.375 31.1726L189.491 22.6498C189.463 22.6611 189.297 22.7159 189.006 22.809Z" fill="#FFFF54"/>
<path fill-rule="evenodd" clip-rule="evenodd" d="M223.335 7.22268C225.17 7.845 226.698 8.6559 227.918 9.66481C229.138 10.6737 230.117 12.0221 230.862 13.7099C231.616 15.3977 231.989 17.3778 231.989 19.6502C231.989 22.2338 231.533 24.4496 230.61 26.2789C229.688 28.1175 228.319 29.5602 226.511 30.6162C224.704 31.6723 222.608 32.4266 220.242 32.8887C217.876 33.3507 215.081 33.577 211.867 33.577C208.597 33.577 205.765 33.3412 203.399 32.8698C201.033 32.3889 198.974 31.6252 197.223 30.5691C195.471 29.513 194.167 28.0798 193.31 26.26C192.453 24.4402 192.025 22.2432 192.025 19.6502C192.025 17.4438 192.379 15.5014 193.077 13.823C193.776 12.1541 194.708 10.8057 195.863 9.79682C197.018 8.78791 198.452 7.96758 200.167 7.33583C201.881 6.70409 203.651 6.27034 205.477 6.03462C207.302 5.79889 209.343 5.67631 211.588 5.67631C213.898 5.67631 215.966 5.78004 217.81 5.98747C219.655 6.19491 221.49 6.60979 223.335 7.22268ZM218.248 24.4213C216.795 25.3548 214.699 25.8168 211.951 25.8168C209.11 25.8168 207.014 25.2982 205.654 24.2516C204.293 23.2144 203.613 21.602 203.613 19.4239C203.613 18.5376 203.79 17.7455 204.154 17.0289C204.517 16.3217 204.964 15.7466 205.514 15.3034C206.063 14.8602 206.706 14.5019 207.451 14.2096C208.197 13.9268 208.933 13.7287 209.65 13.6156C210.367 13.5025 211.085 13.4459 211.802 13.4459C212.799 13.4459 213.74 13.5307 214.634 13.7099C215.519 13.8796 216.432 14.1719 217.345 14.5868C218.267 14.9922 219.003 15.6334 219.571 16.5009C220.13 17.3684 220.41 18.415 220.41 19.6502C220.428 21.9038 219.702 23.4879 218.248 24.4213Z" fill="#FFFF54"/>
<path d="M257.123 5.87432L244.956 16.2935V0.141434H234.048V33.3035H244.956V28.325L248.273 25.0625L257.123 33.3035H272L256.322 19.6125L272 5.87432H257.123Z" fill="#FFFF54"/>
<path fill-rule="evenodd" clip-rule="evenodd" d="M200.204 59.7238C199.952 56.5463 199.365 53.925 198.452 51.8317C197.884 50.5682 196.99 49.4556 195.751 48.4938C194.521 47.532 193.217 46.7966 191.848 46.2874C190.478 45.7782 188.923 45.3822 187.19 45.0805C185.457 44.7787 183.957 44.5902 182.69 44.5147C181.433 44.4393 180.138 44.3922 178.806 44.3922C172.713 44.3922 166.993 45.3916 161.627 47.3717L164.087 54.8584C164.562 54.6982 165.13 54.519 165.81 54.3116C166.49 54.1041 168.046 53.8212 170.496 53.4629C172.937 53.0952 175.489 52.916 178.135 52.916C181.386 52.916 183.762 53.2084 185.252 53.793C186.752 54.3776 187.814 55.6128 188.447 57.508C185.289 56.3388 181.759 55.7542 177.846 55.7542C175.545 55.7542 173.403 55.9051 171.409 56.2068C169.425 56.5085 167.59 56.9706 165.922 57.6023C164.245 58.2341 162.932 59.0921 161.972 60.1859C161.013 61.2796 160.528 62.562 160.528 64.0518C160.528 65.221 160.733 66.2865 161.143 67.2483C161.553 68.21 162.075 69.0021 162.708 69.615C163.342 70.2279 164.161 70.7559 165.167 71.199C166.174 71.6422 167.142 71.9722 168.055 72.1985C168.968 72.4154 170.086 72.5946 171.418 72.7171C172.741 72.8397 173.859 72.9246 174.753 72.9529C175.657 72.9811 176.747 73 178.042 73C182.429 73 186.295 72.0005 189.64 70.011C189.668 70.8973 189.686 71.7365 189.686 72.5191H200.567C200.576 67.1728 200.455 62.9015 200.204 59.7238ZM185.625 65.3153C187.553 64.825 188.662 64.3724 188.941 63.9669V63.4483C188.065 62.628 185.029 62.2131 179.858 62.2131C177.231 62.2131 175.359 62.364 174.222 62.6657C173.086 62.9675 172.518 63.4295 172.518 64.0612C172.518 65.3907 174.772 66.0508 179.281 66.0508C181.582 66.0508 183.696 65.8056 185.625 65.3153Z" fill="#FFFF54"/>
<path d="M147.291 45.0616H158.038V72.4908H147.291V45.0616Z" fill="#FFFF54"/>
<path d="M158.038 37.5844H147.291V42.9401H158.038V37.5844Z" fill="#FFFF54"/>
<path fill-rule="evenodd" clip-rule="evenodd" d="M133.559 47.9988C129.714 46.0784 125.395 45.1182 120.601 45.1182C118.263 45.1182 116.064 45.3916 113.996 45.948C111.928 46.5043 110.074 47.3058 108.435 48.3618C106.795 49.4179 105.491 50.8228 104.532 52.5766C103.572 54.3304 103.088 56.3105 103.088 58.5169C103.088 60.2896 103.274 61.8925 103.656 63.3258C104.038 64.759 104.532 65.9659 105.146 66.9277C105.761 67.8894 106.544 68.7381 107.485 69.4641C108.435 70.1901 109.394 70.7559 110.372 71.1708C111.351 71.5856 112.469 71.9062 113.735 72.142C114.993 72.3777 116.167 72.538 117.238 72.6134C118.309 72.6888 119.511 72.736 120.834 72.736C126.321 72.736 130.569 71.6799 133.559 69.5584V72.4908H144.543V39.3287H133.569L133.559 47.9988ZM133.569 60.9779C132.656 62.4017 131.435 63.3352 129.898 63.7972C128.37 64.2498 126.069 64.4855 123.014 64.4855C117.555 64.4855 114.825 62.6092 114.825 58.8469C114.825 58.1492 114.9 57.5174 115.04 56.9517C115.179 56.386 115.394 55.9145 115.682 55.5279C115.962 55.1507 116.26 54.8207 116.558 54.5284C116.856 54.2456 117.238 54.0193 117.695 53.8401C118.151 53.6704 118.552 53.5289 118.878 53.4347C119.204 53.3404 119.623 53.2649 120.107 53.2178C120.592 53.1706 120.955 53.1424 121.197 53.1424H122.352C128.818 53.1424 132.563 54.5001 133.569 57.2157V60.9779Z" fill="#FFFF54"/>
<path fill-rule="evenodd" clip-rule="evenodd" d="M96.8181 48.1166C95.0295 46.7966 92.9335 45.8537 90.5114 45.2691C88.0893 44.6939 85.2387 44.4016 81.9596 44.4016C75.2988 44.4016 70.2777 45.6557 66.8774 48.1638C63.4865 50.6719 61.7911 54.1795 61.7911 58.6772C61.7911 60.5065 61.9681 62.1188 62.3127 63.5049C62.6574 64.891 63.3002 66.1922 64.2225 67.4086C65.1447 68.6343 66.3651 69.6433 67.8742 70.4447C69.3834 71.2462 71.349 71.8779 73.7524 72.3211C76.1559 72.7737 78.9879 73 82.239 73C85.0151 73 87.5583 72.9151 89.8872 72.736C92.2162 72.5568 94.0327 72.3588 95.3369 72.1325C96.6411 71.9062 97.8149 71.6516 98.8489 71.3593C99.883 71.067 100.526 70.869 100.787 70.7559C101.038 70.6427 101.215 70.5579 101.318 70.4919L96.5386 62.6752L94.7221 63.156C93.4831 63.4766 91.6386 63.7972 89.1979 64.1178C86.7572 64.4384 84.3164 64.5987 81.8571 64.5987C79.0531 64.5987 76.9477 64.3252 75.5504 63.7784C74.1437 63.2315 73.3705 62.5243 73.2121 61.6568H101.597C101.849 58.4698 101.569 55.7542 100.74 53.4818C99.9016 51.2282 98.5974 49.4367 96.8181 48.1166ZM73.5848 55.5845C73.3332 55.9711 73.183 56.3482 73.183 56.7348H90.3064C90.3064 55.6788 89.673 54.7924 88.4153 54.0853C87.1577 53.3781 85.0244 53.0292 82.0341 53.0292C80.2827 53.0292 78.7829 53.1612 77.5439 53.4158C76.3049 53.6704 75.4013 54.0004 74.8237 54.4059C74.2555 54.8019 73.8363 55.1979 73.5848 55.5845Z" fill="#FFFF54"/>
<path d="M58.5399 50.6531C59.015 51.8223 59.369 53.4063 59.6019 55.4147C59.8441 57.4231 59.9745 59.3561 60.0211 61.2042C60.049 63.0711 60.0677 66.1167 60.0677 70.3504V72.4814H49.0379V63.3352C49.0379 62.958 49.0565 62.43 49.0845 61.7511C49.1135 61.2223 49.1312 60.7616 49.1465 60.3657L49.1466 60.3628V60.3622L49.159 60.0444C49.1776 59.5824 49.159 59.0355 49.1124 58.3849C49.0658 57.7343 48.9727 57.1968 48.8516 56.7725C48.7211 56.3482 48.5255 55.8862 48.2553 55.3959C47.9852 54.9056 47.6405 54.519 47.212 54.2361C46.7835 53.9532 46.2432 53.7175 45.6004 53.5289C44.9576 53.3403 44.1937 53.246 43.3087 53.246C41.7344 53.246 40.1693 53.6138 38.6229 54.3587C37.0765 55.1036 35.9214 55.9428 35.1668 56.8951C35.3252 59.1392 35.3997 63.6275 35.3997 70.3504V72.4814H24.5189V63.3352C24.5189 62.9957 24.5376 62.4583 24.5655 61.7511C24.5935 61.0439 24.6121 60.4687 24.6121 60.0256C24.6121 59.5824 24.5841 59.0261 24.5376 58.366C24.491 57.6966 24.3978 57.1685 24.2767 56.7537C24.1463 56.3482 23.9414 55.8956 23.6619 55.4053C23.3824 54.915 23.0284 54.5284 22.5999 54.2455C22.1807 53.9627 21.6311 53.7269 20.9697 53.5383C20.3082 53.3498 19.5444 53.2555 18.6966 53.2555C15.3802 53.2555 12.8277 54.5378 11.0298 57.0931V72.4908H0V45.0616H11.0112V48.4278C12.7159 47.2586 14.4207 46.3628 16.1255 45.7499C17.8303 45.137 19.9263 44.8259 22.4229 44.8259C25.0406 44.8259 27.2578 45.1465 29.0743 45.7971C30.8909 46.4382 32.3162 47.6923 33.3595 49.5593C37.0486 46.4005 41.6226 44.8259 47.0816 44.8259C48.1529 44.8259 49.1031 44.873 49.9229 44.9485C50.7427 45.0239 51.6183 45.1842 52.5499 45.4199C53.4815 45.6556 54.2919 45.9857 54.9906 46.3911C55.68 46.7966 56.3414 47.3623 56.9749 48.0695C57.6083 48.7861 58.13 49.6441 58.5399 50.6531Z" fill="#FFFF54"/>
<path d="M189.006 22.809L194.062 39.0398L194.122 39.0211L194.182 39.0019L189.006 22.809ZM187.553 23.2333L183.029 6.84616L182.997 6.85507L182.965 6.86411L187.553 23.2333ZM193.375 31.1726L199.755 46.9301L216.204 40.2706L208.845 24.1226L193.375 31.1726ZM191.317 31.8137L187.025 15.3643L186.967 15.3796L186.908 15.3954L191.317 31.8137ZM172.434 33.2847L174.387 16.3973L174.298 16.387L174.21 16.3777L172.434 33.2847ZM169.741 32.5303L162.278 47.8044L162.278 47.8045L169.741 32.5303ZM167.869 31.0594L154.262 41.2502L154.262 41.2503L167.869 31.0594ZM166.136 24.7796L149.174 25.9119L149.175 25.9198L166.136 24.7796ZM165.997 13.9739H182.997V-3.02609H165.997V13.9739ZM160.565 13.9739H143.565V30.9739H160.565V13.9739ZM160.565 5.73289V-11.2671H143.565V5.73289H160.565ZM165.997 5.73289V22.7329H182.997V5.73289H165.997ZM165.997 0V-17H148.997V0H165.997ZM176.859 0H193.859V-17H176.859V0ZM176.859 5.73289H159.859V22.7329H176.859V5.73289ZM190.106 5.73289H207.106V-11.2671H190.106V5.73289ZM190.106 13.9739V30.9739H207.106V13.9739H190.106ZM176.859 13.9739V-3.02609H159.859V13.9739H176.859ZM176.901 20.371L159.948 21.6299L159.951 21.6808L159.956 21.7318L176.901 20.371ZM176.905 20.4234L159.96 21.7841L159.978 22.007L160.001 22.2294L176.905 20.4234ZM177.073 21.3946L193.577 17.3189L193.577 17.3171L177.073 21.3946ZM177.446 22.4129L161.911 29.319L161.912 29.3191L177.446 22.4129ZM179.15 24.0442L185.588 8.31034L185.442 8.2505L185.295 8.19338L179.15 24.0442ZM183.128 24.1385L185.24 41.0067L185.24 41.0067L183.128 24.1385ZM185.56 23.733L189.267 40.3238L189.267 40.3238L185.56 23.733ZM189.491 22.6487L185.32 6.16811L165.797 11.1085L173.944 29.5262L189.491 22.6487ZM102.119 5.87432V-11.1257H95.8342L91.0609 -7.03783L102.119 5.87432ZM89.9524 16.2935H72.9524V53.2341L101.01 29.2056L89.9524 16.2935ZM116.996 5.87432L128.2 18.6602L162.192 -11.1257H116.996V5.87432ZM101.318 19.6125L90.114 6.82663L75.4973 19.6345L90.1358 32.4174L101.318 19.6125ZM116.996 33.3035V50.3035H162.309L128.178 20.4986L116.996 33.3035ZM102.119 33.3035L90.5336 45.7447L95.4292 50.3035H102.119V33.3035ZM93.2688 25.0625L104.854 12.6213L92.9463 1.53286L81.347 12.9436L93.2688 25.0625ZM89.9524 28.325L78.0306 16.206L72.9524 21.2016V28.325H89.9524ZM89.9524 33.3035V50.3035H106.952V33.3035H89.9524ZM79.0437 33.3035H62.0437V50.3035H79.0437V33.3035ZM79.0437 0.141434V-16.8586H62.0437V0.141434H79.0437ZM89.9524 0.141434H106.952V-16.8586H89.9524V0.141434ZM71.703 9.3065L82.2754 -4.00604L82.2505 -4.02579L82.2256 -4.04546L71.703 9.3065ZM74.3673 12.6444L89.9639 5.881L89.9392 5.82391L89.914 5.767L74.3673 12.6444ZM67.8463 7.10009L73.8425 -8.80731L73.8424 -8.80734L67.8463 7.10009ZM63.235 5.89317L60.2878 22.6357L60.2878 22.6358L63.235 5.89317ZM58.7914 5.32743L57.7659 22.2965L57.7661 22.2965L58.7914 5.32743ZM37.9615 8.18444L32.0217 -7.74411L16.7624 -2.05388L21.7928 13.4354L37.9615 8.18444ZM40.3929 15.6711L24.2242 20.9221L29.5674 37.3749L45.9247 31.7459L40.3929 15.6711ZM42.0977 15.1243L47.1205 31.3653L47.1209 31.3652L42.0977 15.1243ZM46.7276 14.2756L49.2247 31.0912L49.2569 31.0864L49.289 31.0816L46.7276 14.2756ZM61.3253 14.6056L55.0842 30.4186L55.0842 30.4186L61.3253 14.6056ZM64.4833 18.3207L58.519 34.2401L91.7207 46.6792L80.6302 13.0031L64.4833 18.3207ZM38.2969 20.9986L25.5173 9.78775L25.4902 9.81858L25.4633 9.84955L38.2969 20.9986ZM39.0235 30.4276L50.9344 18.2979L50.9343 18.2978L39.0235 30.4276ZM41.4549 32.0117L48.3613 16.4779L48.3613 16.4778L41.4549 32.0117ZM44.3055 33.0112L40.1755 49.5019L40.2568 49.5223L40.3383 49.5418L44.3055 33.0112ZM47.6312 33.5298L46.0516 50.4563L46.0517 50.4563L47.6312 33.5298ZM50.929 33.7656L51.472 16.7742L51.472 16.7742L50.929 33.7656ZM65.6478 30.8237L82.6393 30.2879L81.7257 1.31194L56.8842 16.2566L65.6478 30.8237ZM65.6943 33.3318H48.6943V50.3318H65.6943V33.3318ZM76.4633 33.3318V50.3318H93.4633V33.3318H76.4633ZM76.0907 20.5177L59.1404 21.8174L59.142 21.8383L59.1437 21.8591L76.0907 20.5177ZM61.6793 26.1186L57.4517 9.6526L57.442 9.6551L57.4323 9.6576L61.6793 26.1186ZM64.9584 24.7702L78.9556 34.418L81.9584 30.0614V24.7702H64.9584ZM50.4073 23.469L54.803 39.8909L54.8031 39.8908L50.4073 23.469ZM64.9677 24.2516L81.8011 26.6259L83.0344 17.8821L76.5901 11.8451L64.9677 24.2516ZM19.7959 14.5868L27.5309 29.7252L19.7959 -2.41321V14.5868ZM0 14.5868H-17V31.5868H0V14.5868ZM0.419209 24.4873V41.4873H4.51072L8.15418 39.6257L0.419209 24.4873ZM0 24.4873V7.48733H-17V24.4873H0ZM0 33.3035H-17V50.3035H0V33.3035ZM35.3345 33.3035V50.3035H52.3345V33.3035H35.3345ZM35.3345 24.4873H52.3345V7.48733H35.3345V24.4873ZM16.7031 24.4873L8.61563 9.53429L16.7031 41.4873V24.4873ZM35.0084 14.5868V-2.41321H30.7057L26.921 -0.366253L35.0084 14.5868ZM35.3345 14.5868V31.5868H52.3345V14.5868H35.3345ZM35.3345 5.82717H52.3345V-11.1728H35.3345V5.82717ZM0 5.82717V-11.1728H-17V5.82717H0ZM147.281 19.8482L158.746 32.4005L164.281 27.3448V19.8482H147.281ZM133.876 23.8273L129.706 40.3078L129.706 40.3079L133.876 23.8273ZM131.771 23.073L123.991 38.1885L123.991 38.1887L131.771 23.073ZM130.364 21.8189L116.459 31.5985L116.498 31.6546L116.538 31.7103L130.364 21.8189ZM129.05 18.5753L112.234 21.0674L112.234 21.0674L129.05 18.5753ZM128.864 16.8215L111.881 17.5844L111.881 17.5844L128.864 16.8215ZM128.836 5.82717H145.836V-11.1728H128.836V5.82717ZM118.077 5.82717V-11.1728H101.436L101.08 5.46367L118.077 5.82717ZM118.03 8.00529L101.034 7.64179L101.03 7.82352V8.00529H118.03ZM118.449 20.0368L135.355 18.2536L135.355 18.2535L118.449 20.0368ZM120.135 26.7126L135.566 19.579L135.542 19.5257L135.517 19.4725L120.135 26.7126ZM125.445 31.8514L119.249 47.6819L119.249 47.6819L125.445 31.8514ZM147.272 29.0793H164.272V-12.316L135.179 17.1314L147.272 29.0793ZM147.272 33.2941H130.272V50.2941H147.272V33.2941ZM158.032 33.2941V50.2941H175.032V33.2941H158.032ZM158.032 5.82717H175.032V-11.1728H158.032V5.82717ZM147.281 5.82717V-11.1728H130.281V5.82717H147.281ZM223.335 7.22268L228.794 -8.87684L228.745 -8.89359L228.695 -8.91005L223.335 7.22268ZM227.918 9.66481L238.75 -3.43732L238.75 -3.43747L227.918 9.66481ZM200.167 7.33583L194.288 -8.61532L194.288 -8.61525L200.167 7.33583ZM195.863 9.79682L184.68 -3.00724L184.68 -3.00707L195.863 9.79682ZM193.077 13.823L177.396 7.25826L177.389 7.27396L177.383 7.28969L193.077 13.823ZM193.31 26.26L177.93 33.503L177.93 33.5032L193.31 26.26ZM197.223 30.5691L188.444 45.1272L188.444 45.1272L197.223 30.5691ZM203.399 32.8698L200.013 49.5292L200.045 49.5357L200.077 49.5421L203.399 32.8698ZM220.242 32.8887L223.5 49.5736L223.5 49.5735L220.242 32.8887ZM230.61 26.2789L215.43 18.6256L215.423 18.6412L215.415 18.6569L230.61 26.2789ZM230.862 13.7099L215.31 20.5768L215.326 20.6126L215.342 20.6483L230.862 13.7099ZM218.248 24.4213L209.061 10.1179L209.061 10.118L218.248 24.4213ZM205.654 24.2516L216.021 10.7789L215.992 10.7563L215.962 10.7337L205.654 24.2516ZM204.154 17.0289L189.033 9.26023L189.012 9.30108L188.991 9.34205L204.154 17.0289ZM205.514 15.3034L194.844 2.06912L194.843 2.06945L205.514 15.3034ZM207.451 14.2096L201.419 -1.68399L201.331 -1.65079L201.244 -1.61664L207.451 14.2096ZM209.65 13.6156L207.001 -3.17679L207.001 -3.17677L209.65 13.6156ZM214.634 13.7099L211.295 30.3787L211.363 30.3925L211.432 30.4056L214.634 13.7099ZM217.345 14.5868L210.311 30.0636L210.407 30.107L210.503 30.1492L217.345 14.5868ZM219.571 16.5009L233.861 7.29282L233.827 7.2391L233.792 7.18564L219.571 16.5009ZM220.41 19.6502H203.41V19.7204L203.41 19.7907L220.41 19.6502ZM257.123 5.87432V-11.1257H250.838L246.065 -7.03784L257.123 5.87432ZM244.956 16.2935H227.956V53.2341L256.014 29.2056L244.956 16.2935ZM272 5.87432L283.204 18.6602L317.196 -11.1257L272 -11.1257V5.87432ZM256.322 19.6125L245.118 6.82662L230.501 19.6345L245.14 32.4174L256.322 19.6125ZM272 33.3035V50.3035H317.313L283.182 20.4986L272 33.3035ZM257.123 33.3035L245.538 45.7447L250.433 50.3035H257.123V33.3035ZM248.273 25.0625L259.858 12.6213L247.95 1.53287L236.351 12.9436L248.273 25.0625ZM244.956 28.325L233.035 16.206L227.956 21.2016V28.325H244.956ZM244.956 33.3035V50.3035H261.956V33.3035H244.956ZM234.048 33.3035H217.048V50.3035H234.048V33.3035ZM234.048 0.141434V-16.8586H217.048V0.141434H234.048ZM244.956 0.141434H261.956V-16.8586H244.956V0.141434ZM58.5399 50.6531L42.7901 57.0517L42.7905 57.0528L58.5399 50.6531ZM59.6019 55.4147L42.715 57.373L42.7195 57.4116L42.7242 57.4502L59.6019 55.4147ZM56.9749 48.0695L69.7119 36.8103L69.6748 36.7683L69.6374 36.7266L56.9749 48.0695ZM54.9906 46.3911L63.6091 31.7377L63.5662 31.7125L63.5233 31.6876L54.9906 46.3911ZM49.9229 44.9485L48.3651 61.8769L48.3653 61.8769L49.9229 44.9485ZM33.3595 49.5593L18.5198 57.8527L28.6474 75.9746L44.4164 62.4723L33.3595 49.5593ZM29.0743 45.7971L23.3423 61.8016L23.3791 61.8148L23.416 61.8278L29.0743 45.7971ZM11.0112 48.4278H-5.98884V80.7011L20.6263 62.4473L11.0112 48.4278ZM11.0112 45.0616H28.0112V28.0616H11.0112V45.0616ZM0 45.0616V28.0616H-17V45.0616H0ZM0 72.4908H-17V89.4908H0V72.4908ZM11.0298 72.4908V89.4908H28.0298V72.4908H11.0298ZM11.0298 57.0931L-2.87351 47.3106L-5.9702 51.7117V57.0931H11.0298ZM20.9697 53.5383L16.3084 69.8868L16.3085 69.8869L20.9697 53.5383ZM22.5999 54.2455L13.091 68.3374L13.1625 68.3856L13.2345 68.4331L22.5999 54.2455ZM23.6619 55.4053L8.89257 63.8236L8.89261 63.8236L23.6619 55.4053ZM24.2767 56.7537L40.5957 51.9901L40.5309 51.7682L40.4601 51.5482L24.2767 56.7537ZM24.5376 58.366L7.57858 59.5461L7.57915 59.5544L7.57974 59.5627L24.5376 58.366ZM24.5189 72.4814H7.51894V89.4814H24.5189V72.4814ZM35.3997 72.4814V89.4814H52.3997V72.4814H35.3997ZM35.1668 56.8951L21.8424 46.3376L17.7444 51.5096L18.209 58.0918L35.1668 56.8951ZM45.6004 53.5289L50.3862 37.2165L50.386 37.2164L45.6004 53.5289ZM47.212 54.2361L37.8463 68.4235L37.8468 68.4239L47.212 54.2361ZM48.2553 55.3959L33.3657 63.5994L33.3659 63.5999L48.2553 55.3959ZM48.8516 56.7725L65.1987 52.1065L65.1517 51.9419L65.1014 51.7782L48.8516 56.7725ZM49.159 60.0444L32.1728 59.3599L32.1723 59.3707L32.1719 59.3814L49.159 60.0444ZM49.1466 60.3622L32.1595 59.6992L32.1466 60.0306V60.3622H49.1466ZM49.1466 60.3628L66.1328 61.0462L66.1466 60.7046V60.3628H49.1466ZM49.0845 61.7511L32.11 60.8188L32.1036 60.9353L32.0988 61.0519L49.0845 61.7511ZM49.0379 72.4814H32.0379V89.4814H49.0379V72.4814ZM60.0677 72.4814V89.4814H77.0677V72.4814H60.0677ZM60.0211 61.2042L77.0192 60.9497L77.0179 60.8629L77.0157 60.776L60.0211 61.2042ZM96.8181 48.1166L106.947 34.4638L106.93 34.4511L106.913 34.4385L96.8181 48.1166ZM90.5114 45.2691L94.5 28.7436L94.4696 28.7363L94.4392 28.729L90.5114 45.2691ZM100.74 53.4818L116.71 47.6549L116.692 47.6045L116.673 47.5542L100.74 53.4818ZM101.597 61.6568V78.6568H117.308L118.544 62.9943L101.597 61.6568ZM73.2121 61.6568V44.6568H52.8275L56.4885 64.7099L73.2121 61.6568ZM75.5504 63.7784L81.7461 47.9476L81.7283 47.9406L81.7105 47.9337L75.5504 63.7784ZM89.1979 64.1178L91.4118 80.973L91.4119 80.973L89.1979 64.1178ZM94.7221 63.156L98.9807 79.614L99.0266 79.6021L99.0725 79.59L94.7221 63.156ZM96.5386 62.6752L111.043 53.8077L104.435 42.9993L92.1882 46.2412L96.5386 62.6752ZM101.318 70.4919L110.523 84.7838L124.483 75.7919L115.822 61.6244L101.318 70.4919ZM100.787 70.7559L107.552 86.3517L107.657 86.3063L107.761 86.2596L100.787 70.7559ZM89.8872 72.736L91.191 89.6859L91.1911 89.6859L89.8872 72.736ZM73.7524 72.3211L76.8984 55.6147L76.8668 55.6088L76.8351 55.6029L73.7524 72.3211ZM67.8742 70.4447L59.9006 85.4588L59.9007 85.4588L67.8742 70.4447ZM64.2225 67.4086L77.8069 57.1879L77.7879 57.1626L77.7688 57.1375L64.2225 67.4086ZM62.3127 63.5049L45.8152 67.6075L45.8152 67.6075L62.3127 63.5049ZM66.8774 48.1638L56.786 34.4831L56.777 34.4897L56.7681 34.4963L66.8774 48.1638ZM73.183 56.7348H56.183V73.7348H73.183V56.7348ZM73.5848 55.5845L87.834 64.8558L87.8343 64.8554L73.5848 55.5845ZM90.3064 56.7348V73.7348H107.306V56.7348H90.3064ZM88.4153 54.0853L80.083 68.9032L80.083 68.9032L88.4153 54.0853ZM77.5439 53.4158L80.9655 70.0679L80.9656 70.0679L77.5439 53.4158ZM74.8237 54.4059L84.5435 68.3531L84.5674 68.3365L84.5913 68.3197L74.8237 54.4059ZM133.559 47.9988L125.963 63.2074L150.53 75.4773L150.559 48.0171L133.559 47.9988ZM133.569 39.3287V22.3287H116.587L116.569 39.3105L133.569 39.3287ZM144.543 39.3287H161.543V22.3287H144.543V39.3287ZM144.543 72.4908V89.4908H161.543V72.4908H144.543ZM133.559 72.4908H116.559V89.4908H133.559V72.4908ZM133.559 69.5584H150.559V36.6537L123.723 55.6934L133.559 69.5584ZM113.735 72.142L116.867 55.4329L116.856 55.4309L116.845 55.4288L113.735 72.142ZM110.372 71.1708L103.734 86.8211L103.734 86.8212L110.372 71.1708ZM107.485 69.4641L97.099 82.9229L97.131 82.9476L97.1632 82.9722L107.485 69.4641ZM105.146 66.9277L119.47 57.7712L119.47 57.771L105.146 66.9277ZM103.656 63.3258L87.2292 67.7034L87.2292 67.7035L103.656 63.3258ZM108.435 48.3618L99.2293 34.0699L99.2293 34.0699L108.435 48.3618ZM129.898 63.7972L134.727 80.097L134.759 80.0874L134.792 80.0776L129.898 63.7972ZM133.569 60.9779L147.879 70.1541L150.569 65.9601V60.9779H133.569ZM115.04 56.9517L98.5357 52.8749L98.5356 52.8754L115.04 56.9517ZM115.682 55.5279L129.302 65.7016L129.322 65.6752L129.341 65.6489L115.682 55.5279ZM116.558 54.5284L104.857 42.1966L104.755 42.2926L104.656 42.3902L116.558 54.5284ZM117.695 53.8401L111.77 37.9058L111.626 37.9593L111.484 38.0152L117.695 53.8401ZM120.107 53.2178L118.461 36.2977L118.46 36.2977L120.107 53.2178ZM133.569 57.2157H150.569V54.1678L149.51 51.3097L133.569 57.2157ZM158.038 37.5844H175.038V20.5844H158.038V37.5844ZM147.291 37.5844V20.5844H130.291V37.5844H147.291ZM158.038 42.9401V59.9401H175.038V42.9401H158.038ZM147.291 42.9401H130.291V59.9401H147.291V42.9401ZM147.291 45.0616V28.0616H130.291V45.0616H147.291ZM158.038 45.0616H175.038V28.0616H158.038V45.0616ZM147.291 72.4908H130.291V89.4908H147.291V72.4908ZM158.038 72.4908V89.4908H175.038V72.4908H158.038ZM200.204 59.7238L183.257 61.0652L183.257 61.0654L200.204 59.7238ZM198.452 51.8317L214.035 45.0356L213.996 44.9469L213.957 44.8585L198.452 51.8317ZM200.567 72.5191V89.5191H217.538L217.567 72.5487L200.567 72.5191ZM189.686 72.5191H172.686V89.5191H189.686V72.5191ZM189.64 70.011L206.631 69.4749L205.722 40.6628L180.948 55.4008L189.64 70.011ZM174.753 72.9529L174.216 89.9444L174.221 89.9445L174.753 72.9529ZM171.418 72.7171L172.987 55.7896L172.976 55.7886L171.418 72.7171ZM168.055 72.1985L163.965 88.6991L164.046 88.7191L164.126 88.7383L168.055 72.1985ZM165.167 71.199L172.02 55.6415L172.02 55.6414L165.167 71.199ZM162.708 69.615L174.529 57.3974L174.529 57.3973L162.708 69.615ZM161.143 67.2483L145.504 73.9133L145.504 73.9134L161.143 67.2483ZM161.972 60.1859L149.193 48.9749L149.193 48.975L161.972 60.1859ZM165.922 57.6023L171.916 73.5107L171.93 73.5052L171.945 73.4997L165.922 57.6023ZM171.409 56.2068L168.865 39.3982L168.853 39.4L171.409 56.2068ZM188.447 57.508L182.545 73.4504L215.818 85.7693L204.571 52.1189L188.447 57.508ZM185.252 53.793L179.045 69.6192L179.062 69.6258L179.078 69.6322L185.252 53.793ZM170.496 53.4629L172.956 70.284L172.992 70.2787L173.029 70.2732L170.496 53.4629ZM165.81 54.3116L170.77 70.5719L170.77 70.5718L165.81 54.3116ZM164.087 54.8584L147.936 60.1639L153.284 76.4444L169.521 70.9664L164.087 54.8584ZM161.627 47.3717L155.742 31.423L140.359 37.0996L145.477 52.6772L161.627 47.3717ZM182.69 44.5147L181.673 61.4842L181.68 61.4847L182.69 44.5147ZM195.751 48.4938L185.278 61.8844L185.302 61.9036L185.327 61.9228L195.751 48.4938ZM188.941 63.9669L202.938 73.6157L205.941 69.2588V63.9669H188.941ZM185.625 65.3153L181.436 48.8395L185.625 65.3153ZM188.941 63.4483H205.941V56.0794L200.563 51.0416L188.941 63.4483ZM174.222 62.6657L178.584 79.0965L178.585 79.0965L174.222 62.6657ZM176.901 20.3689L193.854 19.1101L193.851 19.0608L193.847 19.0116L176.901 20.3689ZM49.1465 60.3657L32.1602 59.6823L32.1596 59.6971L32.159 59.7119L49.1465 60.3657ZM183.951 6.57807C183.77 6.63447 183.472 6.72399 183.029 6.84616L192.077 39.6204C192.864 39.4031 193.516 39.2097 194.062 39.0398L183.951 6.57807ZM183.284 6.8237C183.458 6.75546 183.595 6.70502 183.657 6.68242C183.731 6.65547 183.79 6.63434 183.827 6.62131C183.9 6.59562 183.955 6.57704 183.977 6.56956C184.024 6.55364 184.048 6.54591 184.034 6.55036C184.013 6.55733 183.947 6.57869 183.831 6.61602L194.182 39.0019C194.356 38.9462 194.519 38.8936 194.66 38.8471C194.728 38.8248 194.817 38.7955 194.912 38.7632C194.958 38.7476 195.032 38.7221 195.121 38.6909C195.158 38.678 195.4 38.5931 195.699 38.476L183.284 6.8237ZM208.845 24.1226L204.961 15.5999L174.022 29.6998L177.906 38.2225L208.845 24.1226ZM195.608 48.2632C196.791 47.9546 198.293 47.522 199.755 46.9301L186.996 15.415C187.087 15.378 187.164 15.3485 187.223 15.3263C187.283 15.3039 187.33 15.287 187.364 15.2752C187.398 15.2633 187.421 15.2554 187.433 15.2514C187.446 15.2473 187.449 15.2462 187.444 15.2481C187.431 15.2521 187.389 15.2648 187.316 15.2856C187.243 15.3061 187.147 15.3325 187.025 15.3643L195.608 48.2632ZM187.881 49.6436C190.618 49.254 193.63 48.7947 195.726 48.2321L186.908 15.3954C187.157 15.3286 187.246 15.3153 187.073 15.3503C186.93 15.3793 186.683 15.4258 186.309 15.4899C185.556 15.6187 184.5 15.7821 183.089 15.9828L187.881 49.6436ZM176.197 50.4544C180.178 50.4544 184.073 50.1856 187.881 49.6436L183.089 15.9828C180.935 16.2895 178.644 16.4544 176.197 16.4544V50.4544ZM170.48 50.1721C172.359 50.3894 174.332 50.4544 176.197 50.4544V16.4544C175.636 16.4544 175.2 16.4439 174.875 16.4292C174.714 16.422 174.593 16.4143 174.507 16.4077C174.42 16.4011 174.382 16.3967 174.387 16.3973L170.48 50.1721ZM162.278 47.8045C164.984 49.1265 167.818 49.8934 170.658 50.1916L174.21 16.3777C175.074 16.4685 176.12 16.7263 177.205 17.2562L162.278 47.8045ZM154.262 41.2503C156.652 44.4408 159.605 46.4982 162.278 47.8044L177.205 17.2563C178.257 17.7704 179.962 18.8472 181.476 20.8685L154.262 41.2503ZM150.366 33.0863C150.981 35.2936 152.089 38.3487 154.262 41.2502L181.476 20.8686C182.177 21.8048 182.577 22.6016 182.783 23.0634C182.997 23.5417 183.091 23.864 183.118 23.9597L150.366 33.0863ZM149.175 25.9198C149.332 28.2588 149.696 30.683 150.366 33.0863L183.118 23.9597C183.148 24.0677 183.149 24.0971 183.139 24.0359C183.13 23.9757 183.112 23.8454 183.098 23.6395L149.175 25.9198ZM148.997 19.4711C148.997 21.8236 149.046 23.998 149.174 25.9119L183.099 23.6474C183.04 22.7703 182.997 21.4182 182.997 19.4711H148.997ZM148.997 13.9739V19.4711H182.997V13.9739H148.997ZM160.565 30.9739H165.997V-3.02609H160.565V30.9739ZM143.565 5.73289V13.9739H177.565V5.73289H143.565ZM165.997 -11.2671H160.565V22.7329H165.997V-11.2671ZM148.997 0V5.73289H182.997V0H148.997ZM176.859 -17H165.997V17H176.859V-17ZM193.859 5.73289V0H159.859V5.73289H193.859ZM190.106 -11.2671H176.859V22.7329H190.106V-11.2671ZM207.106 13.9739V5.73289H173.106V13.9739H207.106ZM176.859 30.9739H190.106V-3.02609H176.859V30.9739ZM193.851 19.0627L193.846 19.0103L159.956 21.7318L159.96 21.7841L193.851 19.0627ZM193.577 17.3171C193.702 17.8257 193.772 18.2684 193.809 18.6174L160.001 22.2294C160.113 23.2761 160.294 24.36 160.569 25.4721L193.577 17.3171ZM192.98 15.5069C192.994 15.5389 193.068 15.7064 193.166 15.9699C193.261 16.2264 193.423 16.6935 193.577 17.3189L160.569 25.4703C160.998 27.2093 161.597 28.6104 161.911 29.319L192.98 15.5069ZM190.191 11.436C191.475 12.736 192.376 14.1488 192.98 15.5068L161.912 29.3191C162.851 31.4314 164.199 33.5043 166.005 35.3322L190.191 11.436ZM185.295 8.19338C186.679 8.72989 188.48 9.70421 190.191 11.436L166.005 35.3322C168.237 37.5921 170.746 39.019 173.006 39.895L185.295 8.19338ZM180.604 7.30818C181.894 7.30818 183.654 7.5187 185.588 8.31034L172.712 39.778C175.523 40.9279 178.251 41.3082 180.604 41.3082V7.30818ZM181.016 7.27018C180.866 7.28894 180.754 7.29887 180.679 7.30389C180.603 7.30899 180.579 7.30818 180.604 7.30818V41.3082C182.186 41.3082 183.746 41.1938 185.24 41.0067L181.016 7.27018ZM181.852 7.14219C181.852 7.14212 181.835 7.14607 181.797 7.1533C181.76 7.16052 181.705 7.17036 181.633 7.18233C181.486 7.20668 181.284 7.2366 181.016 7.27019L185.24 41.0067C186.487 40.8507 187.862 40.6378 189.267 40.3238L181.852 7.14219ZM182.965 6.86411C182.659 6.94975 182.283 7.04601 181.852 7.14224L189.267 40.3238C190.271 40.0994 191.236 39.8562 192.141 39.6024L182.965 6.86411ZM173.944 29.5262L173.945 29.5273L205.038 15.7723L205.037 15.7712L173.944 29.5262ZM195.709 38.4719C195.785 38.4421 196.195 38.2824 196.701 38.0456C196.854 37.974 197.635 37.6129 198.561 37.0294C198.893 36.8199 200.211 35.993 201.599 34.5852C202.263 33.9127 203.749 32.3121 204.907 29.8229C206.142 27.1722 207.564 22.145 205.318 16.4296C203.17 10.9648 199.017 8.36456 196.873 7.33183C194.695 6.28289 192.804 5.95004 191.945 5.82506C190.162 5.56534 188.749 5.6595 188.357 5.68581C187.321 5.75536 186.52 5.90919 186.35 5.94121C185.815 6.0418 185.401 6.14776 185.32 6.16811L193.661 39.1292C193.584 39.1487 193.172 39.2541 192.639 39.3544C192.47 39.3862 191.67 39.54 190.634 39.6095C190.242 39.6358 188.83 39.73 187.046 39.4702C186.188 39.3453 184.296 39.0124 182.119 37.9635C179.975 36.9308 175.822 34.3306 173.674 28.8658C171.428 23.1504 172.85 18.1232 174.084 15.4726C175.243 12.9834 176.729 11.3829 177.392 10.7104C178.781 9.30271 180.098 8.47592 180.431 8.26653C181.356 7.68324 182.137 7.32246 182.289 7.25117C182.793 7.01511 183.201 6.8564 183.273 6.8278L195.709 38.4719ZM91.0609 -7.03783L78.8946 3.38131L101.01 29.2056L113.177 18.7865L91.0609 -7.03783ZM116.996 -11.1257H102.119V22.8743H116.996V-11.1257ZM112.521 32.3984L128.2 18.6602L105.792 -6.91154L90.114 6.82663L112.521 32.3984ZM128.178 20.4986L112.499 6.80756L90.1358 32.4174L105.814 46.1085L128.178 20.4986ZM102.119 50.3035H116.996V16.3035H102.119V50.3035ZM81.6836 37.5037L90.5336 45.7447L113.704 20.8623L104.854 12.6213L81.6836 37.5037ZM101.874 40.4439L105.191 37.1815L81.347 12.9436L78.0306 16.206L101.874 40.4439ZM106.952 33.3035V28.325H72.9524V33.3035H106.952ZM79.0437 50.3035H89.9524V16.3035H79.0437V50.3035ZM62.0437 0.141434V33.3035H96.0437V0.141434H62.0437ZM89.9524 -16.8586H79.0437V17.1414H89.9524V-16.8586ZM106.952 16.2935V0.141434H72.9524V16.2935H106.952ZM61.1305 22.619C60.4976 22.1164 59.5246 21.1134 58.8205 19.5218L89.914 5.767C88.0921 1.64843 85.3304 -1.57986 82.2754 -4.00604L61.1305 22.619ZM61.8501 23.0075C61.45 22.8567 61.2245 22.6932 61.1804 22.6585L82.2256 -4.04546C79.7408 -6.00372 76.9441 -7.63818 73.8425 -8.80731L61.8501 23.0075ZM60.2878 22.6358C61.2658 22.8079 61.7395 22.9658 61.8502 23.0075L73.8424 -8.80734C71.2514 -9.78398 68.6324 -10.4181 66.1822 -10.8494L60.2878 22.6358ZM57.7661 22.2965C58.1757 22.3212 58.9836 22.4062 60.2878 22.6357L66.1822 -10.8494C64.0582 -11.2233 61.9037 -11.5155 59.8168 -11.6416L57.7661 22.2965ZM54.9533 22.2049C55.8603 22.2049 56.7879 22.2374 57.7659 22.2965L59.8169 -11.6416C58.2983 -11.7334 56.6734 -11.7951 54.9533 -11.7951V22.2049ZM43.9013 24.113C47.2129 22.8781 50.8559 22.2049 54.9533 22.2049V-11.7951C47.0149 -11.7951 39.33 -10.4694 32.0217 -7.74411L43.9013 24.113ZM56.5616 10.4201L54.1302 2.93345L21.7928 13.4354L24.2242 20.9221L56.5616 10.4201ZM37.0748 -1.11677C36.404 -0.909298 35.6065 -0.660168 34.8611 -0.403673L45.9247 31.7459C46.1109 31.6819 46.4499 31.5727 47.1205 31.3653L37.0748 -1.11677ZM44.2304 -2.53996C42.1835 -2.23598 39.2375 -1.78567 37.0745 -1.11667L47.1209 31.3652C46.8608 31.4456 46.6701 31.4956 46.5818 31.5181C46.5317 31.5308 46.4946 31.5398 46.4723 31.545C46.4498 31.5503 46.4377 31.553 46.4374 31.5531C46.437 31.5532 46.4453 31.5513 46.4633 31.5475C46.4812 31.5438 46.5067 31.5386 46.5404 31.5319C46.6087 31.5183 46.7018 31.5004 46.8227 31.4782C47.333 31.3848 48.1153 31.256 49.2247 31.0912L44.2304 -2.53996ZM54.2826 -3.27126C50.894 -3.27126 47.5081 -3.03965 44.1661 -2.53029L49.289 31.0816C50.7726 30.8554 52.4358 30.7287 54.2826 30.7287V-3.27126ZM67.5664 -1.20728C62.9551 -3.02727 57.9065 -3.27126 54.2826 -3.27126V30.7287C54.8327 30.7287 55.2814 30.7414 55.6383 30.7601C55.9981 30.779 56.2304 30.8024 56.3532 30.8177C56.4813 30.8336 56.4368 30.8342 56.2567 30.7929C56.0861 30.7539 55.6671 30.6486 55.0842 30.4186L67.5664 -1.20728ZM80.6302 13.0031C78.8533 7.60759 74.8806 1.67952 67.5664 -1.20728L55.0842 30.4186C53.1811 29.6674 51.5249 28.4538 50.2766 26.9862C49.0962 25.5985 48.5609 24.3201 48.3364 23.6383L80.6302 13.0031ZM54.0031 33.5669C56.1531 33.5669 57.5844 33.89 58.519 34.2401L70.4476 2.4013C65.1407 0.413036 59.5852 -0.433104 54.0031 -0.433104V33.5669ZM50.2199 33.8227C51.2197 33.6692 52.4721 33.5669 54.0031 33.5669V-0.433104C50.9881 -0.433104 47.9925 -0.233669 45.0611 0.216315L50.2199 33.8227ZM48.2618 34.3011C48.6546 34.1515 49.2792 33.9671 50.2199 33.8227L45.0611 0.216315C42.0706 0.675374 39.0807 1.41503 36.1571 2.52888L48.2618 34.3011ZM51.0764 32.2094C49.8654 33.5898 48.66 34.1494 48.2618 34.3011L36.1571 2.52888C32.4425 3.94408 28.6473 6.21976 25.5173 9.78775L51.0764 32.2094ZM53.8716 24.8645C53.8716 25.9591 53.6906 27.276 53.176 28.67C52.6593 30.0697 51.9199 31.2388 51.1304 32.1476L25.4633 9.84955C21.7627 14.1093 19.8716 19.3755 19.8716 24.8645H53.8716ZM53.1703 21.5247C53.714 22.8301 53.8716 24.0127 53.8716 24.8645H19.8716C19.8716 28.0547 20.439 31.3682 21.7839 34.5972L53.1703 21.5247ZM50.9343 18.2978C52.169 19.5102 52.8341 20.7174 53.1703 21.5247L21.7839 34.5972C22.9212 37.328 24.6297 40.1193 27.1126 42.5574L50.9343 18.2978ZM48.3613 16.4778C48.7813 16.6646 49.7985 17.1826 50.9344 18.2979L27.1126 42.5574C29.4967 44.8985 32.135 46.4726 34.5485 47.5456L48.3613 16.4778ZM48.4354 16.5205C48.5101 16.5392 48.5415 16.5509 48.5281 16.5462C48.5146 16.5415 48.4593 16.5214 48.3613 16.4779L34.5485 47.5456C36.3429 48.3434 38.2214 49.0125 40.1755 49.5019L48.4354 16.5205ZM49.2108 16.6034C48.873 16.5718 48.624 16.5388 48.4572 16.5125C48.2874 16.4858 48.231 16.4706 48.2727 16.4806L40.3383 49.5418C42.1985 49.9883 44.1305 50.277 46.0516 50.4563L49.2108 16.6034ZM51.472 16.7742C51.127 16.7632 50.4508 16.7191 49.2107 16.6034L46.0517 50.4563C47.4386 50.5857 48.9609 50.7113 50.3859 50.7569L51.472 16.7742ZM54.1801 16.8127C53.067 16.8127 52.1589 16.7962 51.472 16.7742L50.3859 50.7569C51.4689 50.7915 52.7408 50.8127 54.1801 50.8127V16.8127ZM56.8842 16.2566C56.5312 16.469 55.8045 16.8127 54.1801 16.8127V50.8127C61.2194 50.8127 68.1502 49.1575 74.4113 45.3908L56.8842 16.2566ZM82.6943 33.3318C82.6943 32.2962 82.6699 31.2585 82.6393 30.2879L48.6562 31.3594C48.6815 32.1615 48.6943 32.8022 48.6943 33.3318H82.6943ZM76.4633 16.3318H65.6943V50.3318H76.4633V16.3318ZM59.1437 21.8591C59.3434 24.3828 59.4633 28.1414 59.4633 33.3318H93.4633C93.4633 27.7919 93.341 23.0078 93.0377 19.1763L59.1437 21.8591ZM58.7706 19.4078C58.7156 19.2811 58.777 19.3875 58.8708 19.8157C58.9636 20.2396 59.0696 20.8933 59.1404 21.8174L93.0409 19.218C92.7059 14.8491 91.8478 10.2252 89.9639 5.881L58.7706 19.4078ZM65.9068 42.5845C67.2073 42.2506 68.816 41.7862 70.4088 41.1297C71.2035 40.8021 72.3583 40.2794 73.6087 39.4977C74.6523 38.8452 76.9905 37.2689 78.9556 34.418L50.9612 15.1224C51.9431 13.698 52.9639 12.6986 53.6946 12.0666C54.4428 11.4195 55.1131 10.9631 55.5847 10.6683C56.4924 10.1008 57.203 9.7979 57.4515 9.69546C57.9521 9.48913 58.0609 9.49618 57.4517 9.6526L65.9068 42.5845ZM55.4098 43.854C58.8889 43.854 62.4351 43.4803 65.9262 42.5795L57.4323 9.6576C57.1227 9.73748 56.4767 9.85403 55.4098 9.85403V43.854ZM31.7211 24.8645C31.7211 30.6632 34.4183 35.3804 37.8109 38.4122C40.7095 41.0025 43.7925 42.1313 45.5491 42.6534C49.0842 43.704 52.7564 43.854 55.4098 43.854V9.85403C53.601 9.85403 53.9288 9.67403 55.2352 10.0623C55.8774 10.2531 58.1249 10.9676 60.4666 13.0603C63.3023 15.5944 65.7211 19.7305 65.7211 24.8645H31.7211ZM46.0116 7.04711C44.3559 7.49028 41.2696 8.49167 38.3045 10.9449C34.7803 13.8607 31.7211 18.684 31.7211 24.8645H65.7211C65.7211 30.4132 62.9414 34.6896 59.9785 37.141C57.5747 39.1299 55.3314 39.7494 54.803 39.8909L46.0116 7.04711ZM55.9781 6.01639C53.2537 6.01639 49.4618 6.12354 46.0114 7.04716L54.8031 39.8908C54.3325 40.0168 54.0202 40.0663 53.9399 40.0785C53.8457 40.0928 53.8634 40.0865 54.0214 40.0737C54.3539 40.0466 54.9804 40.0164 55.9781 40.0164V6.01639ZM76.5901 11.8451C73.6674 9.10716 70.5146 7.97379 69.0724 7.5144C67.3319 6.96001 65.6771 6.66361 64.3802 6.48513C61.771 6.12602 58.864 6.01639 55.9781 6.01639V40.0164C58.2064 40.0164 59.3564 40.1142 59.7445 40.1676C59.9464 40.1954 59.5252 40.1565 58.7533 39.9106C58.3464 39.781 57.6518 39.5342 56.8035 39.1007C55.982 38.6808 54.6969 37.9242 53.3454 36.6581L76.5901 11.8451ZM81.9584 24.7702C81.9584 24.5807 81.9588 24.6033 81.958 24.6595C81.9576 24.6934 81.9554 24.8522 81.9457 25.0715C81.9407 25.1862 81.9314 25.368 81.9139 25.5932C81.8978 25.802 81.8656 26.1688 81.8011 26.6259L48.1343 21.8773C48.0162 22.7151 47.987 23.3872 47.9789 23.5699C47.9666 23.8484 47.9627 24.0797 47.9611 24.1997C47.958 24.428 47.9584 24.6768 47.9584 24.7702H81.9584ZM19.7959 -2.41321H0V31.5868H19.7959V-2.41321ZM8.15418 39.6257L27.5309 29.7252L12.0609 -0.551575L-7.31576 9.34896L8.15418 39.6257ZM0 41.4873H0.419209V7.48733H0V41.4873ZM17 33.3035V24.4873H-17V33.3035H17ZM35.3345 16.3035H0V50.3035H35.3345V16.3035ZM18.3345 24.4873V33.3035H52.3345V24.4873H18.3345ZM16.7031 41.4873H35.3345V7.48733H16.7031V41.4873ZM26.921 -0.366253L8.61563 9.53429L24.7905 39.4404L43.0958 29.5398L26.921 -0.366253ZM35.3345 -2.41321H35.0084V31.5868H35.3345V-2.41321ZM18.3345 5.82717V14.5868H52.3345V5.82717H18.3345ZM0 22.8272H35.3345V-11.1728H0V22.8272ZM17 14.5868V5.82717H-17V14.5868H17ZM136.801 41.1573C145.352 41.1573 152.83 37.8042 158.746 32.4005L135.817 7.2959C135.526 7.56144 135.525 7.48564 135.838 7.35714C135.986 7.29645 136.161 7.24186 136.351 7.20476C136.54 7.16779 136.696 7.15731 136.801 7.15731V41.1573ZM129.706 40.3079C132.156 40.9279 134.564 41.1573 136.801 41.1573V7.15731C136.858 7.15731 137.31 7.16043 138.046 7.3467L129.706 40.3079ZM123.991 38.1887C125.993 39.2189 127.981 39.8714 129.706 40.3078L138.046 7.34676C138.08 7.35516 138.227 7.39352 138.464 7.47882C138.697 7.56276 139.074 7.71254 139.55 7.95726L123.991 38.1887ZM116.538 31.7103C118.244 34.0953 120.676 36.4821 123.991 38.1885L139.55 7.95746C141.766 9.09808 143.266 10.6363 144.19 11.9275L116.538 31.7103ZM113.932 27.1828C114.73 28.999 115.689 30.5045 116.459 31.5985L144.269 12.0393C144.288 12.0655 144.375 12.1907 144.502 12.4064C144.625 12.6153 144.834 12.9903 145.063 13.5131L113.932 27.1828ZM112.234 21.0674C112.441 22.4615 112.867 24.7567 113.932 27.1828L145.063 13.5131C145.451 14.396 145.644 15.0886 145.731 15.4327C145.824 15.8028 145.86 16.037 145.867 16.0832L112.234 21.0674ZM111.881 17.5844C111.933 18.73 112.063 19.913 112.234 21.0674L145.867 16.0832C145.855 16.0061 145.847 15.9451 145.841 15.9C145.836 15.8547 145.833 15.8281 145.832 15.8196C145.831 15.8107 145.833 15.8249 145.835 15.861C145.837 15.8794 145.839 15.9049 145.841 15.9371C145.843 15.9693 145.845 16.0099 145.847 16.0586L111.881 17.5844ZM111.836 15.0205C111.836 15.8868 111.845 16.7832 111.881 17.5844L145.847 16.0586C145.848 16.0708 145.844 15.9951 145.841 15.798C145.838 15.6094 145.836 15.3543 145.836 15.0205H111.836ZM118.077 22.8272H128.836V-11.1728H118.077V22.8272ZM135.026 8.36878L135.073 6.19067L101.08 5.46367L101.034 7.64179L135.026 8.36878ZM135.355 18.2535C135.174 16.5291 135.03 13.2451 135.03 8.00529H101.03C101.03 13.4958 101.166 18.2454 101.543 21.8201L135.355 18.2535ZM135.517 19.4725C135.625 19.7031 135.617 19.7506 135.563 19.5353C135.509 19.3202 135.424 18.9077 135.355 18.2536L101.543 21.82C101.956 25.7357 102.866 29.9416 104.754 33.9527L135.517 19.4725ZM131.642 16.021C132.448 16.3367 133.343 16.8712 134.146 17.6475C134.933 18.4085 135.364 19.1421 135.566 19.579L104.704 33.8462C107.564 40.0306 112.485 45.0344 119.249 47.6819L131.642 16.021ZM135.339 16.2469C133.826 16.2469 132.765 16.1621 132.078 16.0653C131.366 15.9651 131.295 15.8852 131.642 16.021L119.249 47.6819C124.486 49.7319 130.216 50.2469 135.339 50.2469V16.2469ZM135.179 17.1314C135.447 16.8602 135.738 16.6316 136.024 16.4544C136.306 16.2798 136.523 16.1916 136.625 16.1558C136.807 16.0922 136.471 16.2469 135.339 16.2469V50.2469C143.514 50.2469 152.464 48.0126 159.365 41.0272L135.179 17.1314ZM164.272 33.2941V29.0793H130.272V33.2941H164.272ZM158.032 16.2941H147.272V50.2941H158.032V16.2941ZM141.032 5.82717V33.2941H175.032V5.82717H141.032ZM147.281 22.8272H158.032V-11.1728H147.281V22.8272ZM164.281 19.8482V5.82717H130.281V19.8482H164.281ZM217.875 23.3222C218.206 23.4342 217.791 23.3497 217.086 22.7671L238.75 -3.43747C235.605 -6.03785 232.134 -7.74421 228.794 -8.87684L217.875 23.3222ZM215.911 22.881C216.486 22.9456 217.162 23.0854 217.974 23.3554L228.695 -8.91005C225.819 -9.86581 222.824 -10.5558 219.71 -10.906L215.911 22.881ZM211.588 22.6763C213.407 22.6763 214.825 22.7589 215.911 22.881L219.71 -10.906C217.107 -11.1988 214.389 -11.3237 211.588 -11.3237V22.6763ZM207.653 22.8947C208.643 22.7668 209.946 22.6763 211.588 22.6763V-11.3237C208.739 -11.3237 205.961 -11.1691 203.3 -10.8255L207.653 22.8947ZM206.045 23.287C206.554 23.0995 207.082 22.9685 207.653 22.8947L203.3 -10.8255C200.22 -10.4278 197.207 -9.69129 194.288 -8.61532L206.045 23.287ZM207.046 22.6009C206.372 23.1887 205.914 23.3355 206.046 23.2869L194.288 -8.61525C190.991 -7.40039 187.663 -5.61291 184.68 -3.00724L207.046 22.6009ZM208.759 20.3878C208.638 20.6761 208.176 21.6133 207.046 22.6007L184.68 -3.00707C181.239 -0.00186765 178.914 3.63205 177.396 7.25826L208.759 20.3878ZM209.025 19.6502C209.025 19.2484 209.089 19.5952 208.772 20.3564L177.383 7.28969C175.669 11.4077 175.025 15.6392 175.025 19.6502H209.025ZM208.69 19.017C208.923 19.5126 209.008 19.8695 209.033 19.9973C209.056 20.1159 209.025 20.0201 209.025 19.6502H175.025C175.025 24.0607 175.748 28.8692 177.93 33.503L208.69 19.017ZM206.001 16.011C206.457 16.2858 206.994 16.6974 207.514 17.2697C208.036 17.8444 208.424 18.4532 208.69 19.0168L177.93 33.5032C180.251 38.4303 183.886 42.3788 188.444 45.1272L206.001 16.011ZM206.785 16.2103C205.963 16.0433 205.8 15.8897 206.001 16.0109L188.444 45.1272C192.148 47.3606 196.103 48.7346 200.013 49.5292L206.785 16.2103ZM211.867 16.577C209.343 16.577 207.682 16.389 206.721 16.1975L200.077 49.5421C203.848 50.2935 207.852 50.577 211.867 50.577V16.577ZM216.984 16.2037C215.995 16.3969 214.348 16.577 211.867 16.577V50.577C215.814 50.577 219.756 50.3045 223.5 49.5736L216.984 16.2037ZM217.934 15.9385C218.036 15.8794 217.798 16.0448 216.984 16.2038L223.5 49.5735C227.418 48.8085 231.373 47.4652 235.088 45.294L217.934 15.9385ZM215.415 18.6569C215.677 18.1332 216.053 17.5768 216.543 17.0578C217.032 16.5417 217.526 16.1771 217.934 15.9385L235.088 45.294C239.651 42.6277 243.363 38.772 245.806 33.9008L215.415 18.6569ZM214.989 19.6502C214.989 20.2896 214.871 19.7347 215.43 18.6256L245.79 33.9322C248.194 29.1646 248.989 24.1779 248.989 19.6502H214.989ZM215.342 20.6483C214.914 19.6915 214.989 19.2054 214.989 19.6502H248.989C248.989 15.5502 248.318 11.1039 246.381 6.77144L215.342 20.6483ZM217.086 22.7669C215.94 21.8196 215.445 20.8811 215.31 20.5768L246.413 6.84304C244.788 3.1631 242.337 -0.472122 238.75 -3.43732L217.086 22.7669ZM211.951 42.8168C216.175 42.8168 222.053 42.1827 227.436 38.7247L209.061 10.118C210.381 9.2698 211.467 8.96929 211.912 8.87075C212.353 8.7732 212.419 8.81684 211.951 8.81684V42.8168ZM195.286 37.7243C201.022 42.1383 207.634 42.8168 211.951 42.8168V8.81684C211.501 8.81684 211.705 8.76926 212.343 8.92758C212.995 9.0895 214.423 9.54942 216.021 10.7789L195.286 37.7243ZM186.613 19.4239C186.613 25.2967 188.635 32.6528 195.345 37.7695L215.962 10.7337C217.694 12.0544 219 13.7951 219.784 15.651C220.517 17.3872 220.613 18.7836 220.613 19.4239H186.613ZM188.991 9.34205C187.284 12.7084 186.613 16.1834 186.613 19.4239H220.613C220.613 20.8918 220.297 22.7827 219.317 24.7158L188.991 9.34205ZM194.843 2.06945C192.141 4.24828 190.288 6.81732 189.033 9.26023L219.275 24.7976C218.746 25.8262 217.787 27.2449 216.184 28.5374L194.843 2.06945ZM201.244 -1.61664C199.191 -0.811411 196.972 0.352804 194.844 2.06912L216.184 28.5377C215.155 29.3677 214.221 29.8153 213.659 30.0359L201.244 -1.61664ZM207.001 -3.17677C205.039 -2.86729 203.171 -2.34894 201.419 -1.68399L213.484 30.1033C213.223 30.2025 212.826 30.3248 212.299 30.408L207.001 -3.17677ZM211.802 -3.55412C210.187 -3.55412 208.584 -3.42641 207.001 -3.17679L212.299 30.408C212.151 30.4313 211.983 30.4459 211.802 30.4459V-3.55412ZM217.973 -2.95895C215.836 -3.38707 213.763 -3.55412 211.802 -3.55412V30.4459C211.834 30.4459 211.643 30.4485 211.295 30.3787L217.973 -2.95895ZM224.378 -0.890058C222.327 -1.82208 220.132 -2.54554 217.836 -2.98585L211.432 30.4056C210.906 30.3048 210.536 30.1659 210.311 30.0636L224.378 -0.890058ZM233.792 7.18564C231.542 3.75042 228.317 0.840478 224.187 -0.975565L210.503 30.1492C208.217 29.144 206.464 27.5164 205.351 25.8162L233.792 7.18564ZM237.41 19.6502C237.41 15.786 236.505 11.396 233.861 7.29282L205.281 25.709C203.755 23.3408 203.41 21.0441 203.41 19.6502H237.41ZM227.436 38.7248C235.213 33.7294 237.46 25.6956 237.409 19.5098L203.41 19.7907C203.405 19.119 203.495 17.4982 204.404 15.4979C205.391 13.3255 207.025 11.4258 209.061 10.1179L227.436 38.7248ZM246.065 -7.03784L233.899 3.3813L256.014 29.2056L268.181 18.7865L246.065 -7.03784ZM272 -11.1257H257.123V22.8743H272V-11.1257ZM267.525 32.3984L283.204 18.6602L260.796 -6.91155L245.118 6.82662L267.525 32.3984ZM283.182 20.4986L267.504 6.80756L245.14 32.4174L260.818 46.1085L283.182 20.4986ZM257.123 50.3035H272V16.3035H257.123V50.3035ZM236.688 37.5037L245.538 45.7447L268.708 20.8623L259.858 12.6213L236.688 37.5037ZM256.878 40.4439L260.195 37.1815L236.351 12.9436L233.035 16.206L256.878 40.4439ZM261.956 33.3035V28.325H227.956V33.3035H261.956ZM234.048 50.3035H244.956V16.3035H234.048V50.3035ZM217.048 0.141434V33.3035H251.048V0.141434H217.048ZM244.956 -16.8586H234.048V17.1414H244.956V-16.8586ZM261.956 16.2935V0.141434H227.956V16.2935H261.956ZM42.7905 57.0528C42.6846 56.7922 42.6238 56.6037 42.595 56.5078C42.5657 56.4104 42.5599 56.3775 42.5698 56.4215C42.5793 56.4644 42.6 56.5639 42.6268 56.7279C42.6534 56.8911 42.6839 57.1044 42.715 57.373L76.4887 53.4565C76.1705 50.7123 75.58 47.4296 74.2893 44.2533L42.7905 57.0528ZM44.2379 59.3286C43.4542 58.4421 43.0151 57.6057 42.7901 57.0517L74.2897 44.2544C73.2449 41.6826 71.7625 39.1301 69.7119 36.8103L44.2379 59.3286ZM46.3722 61.0445C45.2248 60.3697 44.5657 59.6952 44.3124 59.4124L69.6374 36.7266C68.117 35.0294 66.1351 33.2234 63.6091 31.7377L46.3722 61.0445ZM48.3796 61.9005C47.9205 61.7843 47.2425 61.5499 46.458 61.0946L63.5233 31.6876C61.3414 30.4214 59.0424 29.527 56.7202 28.9393L48.3796 61.9005ZM48.3653 61.8769C48.2985 61.8708 48.2492 61.8647 48.2186 61.8604C48.188 61.8562 48.1738 61.8536 48.177 61.8541C48.1802 61.8547 48.1986 61.8581 48.2331 61.8656C48.2676 61.8732 48.3162 61.8844 48.3796 61.9005L56.7202 28.9393C55.1318 28.5374 53.3664 28.1935 51.4805 28.02L48.3653 61.8769ZM47.0816 61.8259C47.6592 61.8259 48.0888 61.8515 48.3651 61.8769L51.4807 28.02C50.1174 27.8945 48.6466 27.8259 47.0816 27.8259V61.8259ZM44.4164 62.4723C44.6327 62.2871 45.1291 61.8259 47.0816 61.8259V27.8259C38.116 27.8259 29.4644 30.514 22.3027 36.6463L44.4164 62.4723ZM23.416 61.8278C22.3052 61.4357 21.2228 60.8121 20.2875 59.9906C19.3747 59.1887 18.8214 58.3925 18.5198 57.8527L48.1993 41.2659C45.3876 36.2347 40.905 31.945 34.7326 29.7664L23.416 61.8278ZM22.4229 61.8259C23.0505 61.8259 23.4282 61.8651 23.5987 61.89C23.7699 61.9149 23.6574 61.9144 23.3423 61.8016L34.8063 29.7926C30.6054 28.288 26.3165 27.8259 22.4229 27.8259V61.8259ZM21.8768 61.7475C21.5126 61.8784 21.3447 61.8928 21.4524 61.8769C21.5593 61.8612 21.8688 61.8259 22.4229 61.8259V27.8259C18.6203 27.8259 14.453 28.286 10.3742 29.7524L21.8768 61.7475ZM20.6263 62.4473C21.32 61.9716 21.7374 61.7976 21.8768 61.7475L10.3742 29.7524C7.10407 30.928 4.11186 32.5456 1.39597 34.4082L20.6263 62.4473ZM-5.98884 45.0616V48.4278H28.0112V45.0616H-5.98884ZM0 62.0616H11.0112V28.0616H0V62.0616ZM17 72.4908V45.0616H-17V72.4908H17ZM11.0298 55.4908H0V89.4908H11.0298V55.4908ZM-5.9702 57.0931V72.4908H28.0298V57.0931H-5.9702ZM18.6966 36.2555C10.2195 36.2555 2.31647 39.9344 -2.87351 47.3106L24.9331 66.8757C24.3741 67.6702 23.3779 68.6791 21.9087 69.4152C20.4745 70.1337 19.2635 70.2555 18.6966 70.2555V36.2555ZM25.631 37.1899C23.1349 36.4782 20.7511 36.2555 18.6966 36.2555V70.2555C18.3376 70.2555 17.4816 70.2213 16.3084 69.8868L25.631 37.1899ZM32.1088 40.1537C29.7262 38.5459 27.3598 37.6828 25.6308 37.1898L16.3085 69.8869C16.0505 69.8133 15.6409 69.6819 15.1265 69.4595C14.6188 69.2399 13.9048 68.8865 13.091 68.3374L32.1088 40.1537ZM38.4312 46.987C36.9621 44.4096 34.8378 41.9541 31.9653 40.0579L13.2345 68.4331C11.2191 67.1028 9.80272 65.4204 8.89257 63.8236L38.4312 46.987ZM40.4601 51.5482C39.8883 49.7704 39.1417 48.2335 38.4312 46.987L8.89261 63.8236C8.74103 63.5577 8.4043 62.926 8.09332 61.9592L40.4601 51.5482ZM41.4966 57.186C41.387 55.6118 41.1349 53.8372 40.5957 51.9901L7.95777 61.5172C7.66079 60.4999 7.59495 59.7813 7.57858 59.5461L41.4966 57.186ZM41.6121 60.0256C41.6121 58.9728 41.5498 57.9404 41.4954 57.1694L7.57974 59.5627C7.59675 59.8037 7.60587 59.9635 7.61045 60.0624C7.61536 60.1687 7.61209 60.1433 7.61209 60.0256H41.6121ZM41.5523 62.4224C41.5797 61.7282 41.6121 60.8449 41.6121 60.0256H7.61209C7.61209 60.0198 7.61213 60.0396 7.61125 60.0912C7.61037 60.142 7.6088 60.2127 7.60611 60.3077C7.60058 60.5029 7.59176 60.7514 7.57878 61.0798L41.5523 62.4224ZM41.5189 63.3352C41.5189 63.3973 41.5182 63.4193 41.5189 63.3839C41.5195 63.3523 41.5209 63.2946 41.5237 63.2034C41.5295 63.0155 41.5387 62.765 41.5523 62.4224L7.57878 61.0798C7.55456 61.6926 7.51894 62.5921 7.51894 63.3352H41.5189ZM41.5189 72.4814V63.3352H7.51894V72.4814H41.5189ZM35.3997 55.4814H24.5189V89.4814H35.3997V55.4814ZM18.3997 70.3504V72.4814H52.3997V70.3504H18.3997ZM18.209 58.0918C18.3178 59.6334 18.3997 63.511 18.3997 70.3504H52.3997C52.3997 63.7439 52.3326 58.6451 52.1246 55.6984L18.209 58.0918ZM31.2454 39.0429C28.3652 40.4303 24.7557 42.6608 21.8424 46.3376L48.4912 67.4526C47.7595 68.376 47.0652 68.9549 46.6395 69.2665C46.2175 69.5754 45.9633 69.6923 46.0004 69.6744L31.2454 39.0429ZM43.3087 36.246C38.9951 36.246 34.9207 37.2726 31.2454 39.0429L46.0004 69.6744C45.418 69.955 44.4737 70.246 43.3087 70.246V36.246ZM50.386 37.2164C47.7825 36.4526 45.3271 36.246 43.3087 36.246V70.246C43.0603 70.246 42.1326 70.228 40.8148 69.8414L50.386 37.2164ZM56.5777 40.0487C54.3559 38.5819 52.1475 37.7332 50.3862 37.2165L40.8146 69.8414C40.3389 69.7018 39.2111 69.3245 37.8463 68.4235L56.5777 40.0487ZM63.145 47.1924C61.7073 44.5829 59.5694 42.0235 56.5772 40.0484L37.8468 68.4239C35.7116 67.0145 34.2631 65.2282 33.3657 63.5994L63.145 47.1924ZM65.1014 51.7782C64.5912 50.1182 63.912 48.5844 63.1448 47.1919L33.3659 63.5999C33.139 63.188 32.8511 62.5783 32.6017 61.7668L65.1014 51.7782ZM66.069 57.1708C65.9586 55.6291 65.7096 53.8966 65.1987 52.1065L32.5044 61.4386C32.2357 60.4971 32.173 59.8395 32.1558 59.599L66.069 57.1708ZM66.1452 60.729C66.2005 59.3571 66.1354 58.0982 66.069 57.1708L32.1558 59.599C32.167 59.7552 32.1682 59.8088 32.1676 59.7875C32.1672 59.7739 32.166 59.7306 32.1661 59.6622C32.1662 59.594 32.1675 59.4915 32.1728 59.3599L66.1452 60.729ZM66.1466 60.3628V60.3622H32.1466V60.3628H66.1466ZM66.0379 63.3352C66.0379 63.3981 66.0368 63.3686 66.0426 63.181C66.048 63.0059 66.0568 62.7737 66.0701 62.4503L32.0988 61.0519C32.0733 61.672 32.0379 62.5498 32.0379 63.3352H66.0379ZM66.0379 72.4814V63.3352H32.0379V72.4814H66.0379ZM60.0677 55.4814H49.0379V89.4814H60.0677V55.4814ZM43.0677 70.3504V72.4814H77.0677V70.3504H43.0677ZM43.023 61.4586C43.049 63.1993 43.0677 66.1463 43.0677 70.3504H77.0677C77.0677 66.0872 77.049 62.943 77.0192 60.9497L43.023 61.4586ZM42.7242 57.4502C42.8979 58.8906 42.9925 60.2858 43.0265 61.6324L77.0157 60.776C76.9565 58.4264 76.7903 55.9557 76.4796 53.3793L42.7242 57.4502ZM106.913 34.4385C103.073 31.6045 98.8363 29.7902 94.5 28.7436L86.5228 61.7945C86.793 61.8597 86.9085 61.9118 86.9119 61.9133C86.9145 61.9145 86.8951 61.9058 86.8588 61.8847C86.8222 61.8634 86.7756 61.8335 86.7232 61.7948L106.913 34.4385ZM116.673 47.5542C114.803 42.5265 111.62 37.9305 106.947 34.4638L86.689 61.7695C86.1958 61.4036 85.7548 60.9568 85.4028 60.4747C85.0579 60.0024 84.8822 59.6118 84.8069 59.4095L116.673 47.5542ZM118.544 62.9943C118.926 58.1595 118.608 52.8556 116.71 47.6549L84.7698 59.3087C84.6462 58.9698 84.6489 58.8312 84.6656 58.9908C84.6831 59.159 84.708 59.582 84.6498 60.3193L118.544 62.9943ZM73.2121 78.6568H101.597V44.6568H73.2121V78.6568ZM81.7105 47.9337C82.1861 48.1186 83.6856 48.7469 85.3489 50.2591C87.1931 51.9357 89.2275 54.7245 89.9357 58.6037L56.4885 64.7099C58.2858 74.5544 66.361 78.4453 69.3903 79.623L81.7105 47.9337ZM81.8571 47.5987C81.4286 47.5987 81.0894 47.5881 80.8309 47.5737C80.5702 47.5592 80.4212 47.5424 80.3682 47.5355C80.3115 47.5281 80.4017 47.5369 80.6087 47.5854C80.7157 47.6105 80.8655 47.6489 81.0518 47.7055C81.2376 47.762 81.4722 47.8404 81.7461 47.9476L69.3547 79.6091C73.7685 81.3366 78.4523 81.5987 81.8571 81.5987V47.5987ZM86.984 47.2626C85.2737 47.4872 83.5726 47.5987 81.8571 47.5987V81.5987C85.0603 81.5987 88.2406 81.3896 91.4118 80.973L86.984 47.2626ZM90.4635 46.6981C90.4698 46.6964 90.3942 46.716 90.2173 46.7528C90.0442 46.7888 89.8067 46.8346 89.496 46.8886C88.8677 46.998 88.0394 47.1239 86.9839 47.2626L91.4119 80.973C94.0297 80.6292 96.7068 80.2024 98.9807 79.614L90.4635 46.6981ZM92.1882 46.2412L90.3716 46.7221L99.0725 79.59L100.889 79.1091L92.1882 46.2412ZM115.822 61.6244L111.043 53.8077L82.0346 71.5426L86.8135 79.3593L115.822 61.6244ZM107.761 86.2596C107.945 86.1765 108.265 86.0311 108.622 85.8553C108.901 85.7181 109.654 85.3438 110.523 84.7838L92.1122 56.1999C92.5408 55.9238 92.8939 55.7255 93.1025 55.612C93.3224 55.4923 93.4959 55.4053 93.5938 55.357C93.7736 55.2685 93.8795 55.2221 93.8127 55.2522L107.761 86.2596ZM103.473 87.7183C104.058 87.5529 106 87.0247 107.552 86.3517L94.0212 55.1601C94.1715 55.0948 94.3013 55.0414 94.4042 55.0001C94.5081 54.9585 94.5976 54.924 94.669 54.897C94.8084 54.8444 94.9139 54.8074 94.9719 54.7874C95.0326 54.7664 95.0712 54.7538 95.0817 54.7504C95.0933 54.7466 95.0889 54.7481 95.0652 54.7555C95.0151 54.771 94.9214 54.7995 94.7726 54.8431C94.6263 54.886 94.4453 54.938 94.2246 55.0004L103.473 87.7183ZM98.2432 88.8823C99.9408 88.5877 101.717 88.2146 103.473 87.7183L94.2246 55.0004C93.9123 55.0887 93.3414 55.2248 92.4306 55.3828L98.2432 88.8823ZM91.1911 89.6859C93.6811 89.4944 96.1347 89.2481 98.2432 88.8823L92.4306 55.3828C91.9307 55.4695 90.7512 55.6193 88.5834 55.7861L91.1911 89.6859ZM82.239 90C85.3505 90 88.3392 89.9053 91.191 89.6859L88.5834 55.7861C86.7774 55.925 84.6797 56 82.239 56V90ZM70.6064 89.0275C74.3228 89.7273 78.2557 90 82.239 90V56C79.72 56 77.989 55.8201 76.8984 55.6147L70.6064 89.0275ZM59.9007 85.4588C63.422 87.3289 67.1887 88.3974 70.6698 89.0393L76.8351 55.6029C76.2246 55.4904 75.8445 55.3853 75.6556 55.3249C75.4597 55.2623 75.5542 55.2747 75.8478 55.4307L59.9007 85.4588ZM50.638 77.6293C53.2472 81.0972 56.4904 83.6477 59.9006 85.4588L75.8479 55.4307C76.2397 55.6388 77.0422 56.1715 77.8069 57.1879L50.638 77.6293ZM45.8152 67.6075C46.7686 71.4412 48.5013 74.8114 50.6761 77.6797L77.7688 57.1375C78.0991 57.573 78.5463 58.3408 78.8103 59.4023L45.8152 67.6075ZM44.7911 58.6772C44.7911 61.5564 45.065 64.5908 45.8152 67.6075L78.8103 59.4023C78.8446 59.5402 78.8378 59.556 78.8235 59.4237C78.8093 59.2929 78.7911 59.0486 78.7911 58.6772H44.7911ZM56.7681 34.4963C48.7129 40.4544 44.7911 49.2135 44.7911 58.6772H78.7911C78.7911 58.5942 78.7963 59.1881 78.3665 60.0767C77.9184 61.0031 77.318 61.5864 76.9868 61.8313L56.7681 34.4963ZM81.9596 27.4016C73.6073 27.4016 64.3577 28.8979 56.786 34.4831L76.9689 61.8445C76.5271 62.1704 76.4844 62.0428 77.3116 61.8364C78.1596 61.6248 79.6443 61.4016 81.9596 61.4016V27.4016ZM94.4392 28.729C90.4144 27.7733 86.1917 27.4016 81.9596 27.4016V61.4016C84.2857 61.4016 85.7642 61.6145 86.5836 61.8091L94.4392 28.729ZM90.183 56.7348C90.183 60.8818 88.5527 63.7513 87.834 64.8558L59.3355 46.3131C58.1137 48.1909 56.183 51.8147 56.183 56.7348H90.183ZM90.3064 39.7348H73.183V73.7348H90.3064V39.7348ZM80.083 68.9032C79.2164 68.4159 77.5244 67.2967 75.997 65.1575C74.3222 62.8117 73.3064 59.8637 73.3064 56.7348H107.306C107.306 47.3407 101.123 41.7279 96.7477 39.2673L80.083 68.9032ZM82.0341 70.0292C82.9349 70.0292 83.2357 70.0865 83.1069 70.0652C83.0238 70.0515 82.7148 69.997 82.245 69.8504C81.7848 69.7068 81.0134 69.4264 80.083 68.9032L96.7477 39.2673C91.3917 36.2555 85.3934 36.0292 82.0341 36.0292V70.0292ZM80.9656 70.0679C80.8402 70.0937 80.8619 70.0811 81.0632 70.0637C81.2599 70.0466 81.5787 70.0292 82.0341 70.0292V36.0292C79.4995 36.0292 76.7965 36.2142 74.1222 36.7637L80.9656 70.0679ZM84.5913 68.3197C83.3116 69.218 82.2368 69.6518 81.7545 69.8274C81.4787 69.9279 81.2707 69.9891 81.1499 70.022C81.0872 70.0391 81.0401 70.0507 81.0105 70.0577C80.9954 70.0613 80.9841 70.0639 80.9768 70.0655C80.9694 70.0671 80.9656 70.0679 80.9655 70.0679L74.1223 36.7637C72.1017 37.1789 68.4845 38.0853 65.0562 40.492L84.5913 68.3197ZM87.8343 64.8554C87.0757 66.0215 86.3114 66.8325 85.7918 67.326C85.2587 67.8322 84.8113 68.1665 84.5435 68.3531L65.104 40.4586C63.614 41.4969 61.2506 43.3695 59.3352 46.3136L87.8343 64.8554ZM141.155 32.7903C134.691 29.5616 127.724 28.1182 120.601 28.1182V62.1182C123.066 62.1182 124.738 62.5953 125.963 63.2074L141.155 32.7903ZM116.569 39.3105L116.559 47.9806L150.559 48.0171L150.569 39.347L116.569 39.3105ZM144.543 22.3287H133.569V56.3287H144.543V22.3287ZM161.543 72.4908V39.3287H127.543V72.4908H161.543ZM133.559 89.4908H144.543V55.4908H133.559V89.4908ZM116.559 69.5584V72.4908H150.559V69.5584H116.559ZM120.834 89.736C128.169 89.736 136.413 88.3773 143.396 83.4234L123.723 55.6934C124.257 55.3143 124.479 55.3333 124.019 55.4482C123.535 55.5686 122.529 55.736 120.834 55.736V89.736ZM116.044 89.5714C117.508 89.6745 119.108 89.736 120.834 89.736V55.736C119.915 55.736 119.111 55.7032 118.432 55.6554L116.044 89.5714ZM110.604 88.851C112.349 89.1781 114.184 89.4405 116.044 89.5714L118.432 55.6554C118.15 55.6355 117.637 55.5772 116.867 55.4329L110.604 88.851ZM103.734 86.8212C106.082 87.8171 108.428 88.4463 110.626 88.8551L116.845 55.4288C116.687 55.3993 116.629 55.3814 116.655 55.3888C116.681 55.3963 116.807 55.4342 117.011 55.5203L103.734 86.8212ZM97.1632 82.9722C99.1217 84.4686 101.306 85.7913 103.734 86.8211L117.011 55.5204C117.482 55.7205 117.748 55.9116 117.806 55.956L97.1632 82.9722ZM90.823 76.0841C92.5371 78.7655 94.674 81.0516 97.099 82.9229L117.87 56.0053C118.413 56.4245 118.985 57.0134 119.47 57.7712L90.823 76.0841ZM87.2292 67.7035C87.9142 70.2738 88.9991 73.2312 90.8231 76.0843L119.47 57.771C119.783 58.2609 119.953 58.6355 120.029 58.8192C120.105 59.0043 120.113 59.0608 120.083 58.948L87.2292 67.7035ZM86.0876 58.5169C86.0876 61.4536 86.3935 64.5676 87.2292 67.7034L120.083 58.9481C120.12 59.0894 120.121 59.135 120.112 59.0618C120.103 58.9876 120.088 58.8113 120.088 58.5169H86.0876ZM89.6177 44.4172C87.1633 48.9033 86.0876 53.7336 86.0876 58.5169H120.088C120.088 58.6643 120.071 58.9744 119.967 59.3985C119.862 59.8297 119.69 60.2897 119.445 60.736L89.6177 44.4172ZM99.2293 34.0699C95.161 36.6903 91.9132 40.2215 89.6177 44.4172L119.445 60.736C119.28 61.0385 119.035 61.398 118.698 61.7623C118.359 62.1277 117.993 62.4264 117.64 62.6537L99.2293 34.0699ZM109.58 29.5315C106.006 30.4931 102.503 31.9613 99.2293 34.0699L117.64 62.6537C117.646 62.6502 117.851 62.5154 118.412 62.3644L109.58 29.5315ZM120.601 28.1182C116.929 28.1182 113.233 28.5489 109.58 29.5315L118.412 62.3644C118.896 62.2343 119.596 62.1182 120.601 62.1182V28.1182ZM134.792 80.0776C140.403 78.3911 144.884 74.8257 147.879 70.1541L119.258 51.8018C119.762 51.0148 120.529 50.0973 121.619 49.2612C122.718 48.4177 123.895 47.8503 125.005 47.5168L134.792 80.0776ZM123.014 81.4855C126.552 81.4855 130.816 81.2555 134.727 80.097L125.069 47.4974C125.4 47.3996 125.595 47.3649 125.608 47.3625C125.628 47.3589 125.541 47.3749 125.327 47.3965C124.883 47.4412 124.132 47.4855 123.014 47.4855V81.4855ZM97.8254 58.8469C97.8254 65.445 100.582 72.5018 107.234 77.0805C112.737 80.8686 118.866 81.4855 123.014 81.4855V47.4855C121.703 47.4855 123.737 47.1643 126.511 49.0737C128.111 50.1746 129.621 51.8064 130.639 53.9094C131.618 55.9311 131.825 57.731 131.825 58.8469H97.8254ZM98.5356 52.8754C98.0277 54.9317 97.8254 56.947 97.8254 58.8469H131.825C131.825 59.3514 131.772 60.1031 131.544 61.028L98.5356 52.8754ZM102.063 45.3543C100.187 47.8648 99.1207 50.5066 98.5357 52.8749L131.544 61.0285C131.238 62.2653 130.6 63.9642 129.302 65.7016L102.063 45.3543ZM104.656 42.3902C103.835 43.1946 102.923 44.1932 102.024 45.407L129.341 65.6489C129.001 66.1083 128.685 66.4468 128.46 66.6666L104.656 42.3902ZM111.484 38.0152C109.548 38.7751 107.127 40.0424 104.857 42.1966L128.26 66.8602C126.586 68.4487 124.928 69.2634 123.905 69.665L111.484 38.0152ZM114.155 37.1038C113.179 37.3861 112.275 37.718 111.77 37.9058L123.619 69.7744C123.657 69.7602 123.691 69.7476 123.722 69.7362C123.753 69.7249 123.78 69.7152 123.803 69.7069C123.826 69.6986 123.844 69.6921 123.858 69.6872C123.872 69.6822 123.88 69.6792 123.884 69.6779C123.888 69.6766 123.886 69.6775 123.878 69.6801C123.87 69.6828 123.855 69.6878 123.833 69.6947C123.811 69.7017 123.781 69.7112 123.744 69.7228C123.706 69.7344 123.658 69.7489 123.601 69.7655L114.155 37.1038ZM118.46 36.2977C117.271 36.4135 115.766 36.638 114.155 37.1038L123.601 69.7655C123.081 69.9157 122.668 70.0001 122.401 70.0476C122.122 70.097 121.904 70.1233 121.754 70.1378L118.46 36.2977ZM121.197 36.1424C120.01 36.1424 118.859 36.259 118.461 36.2977L121.754 70.1378C121.933 70.1204 121.981 70.1173 121.953 70.1193C121.934 70.1206 121.863 70.1256 121.753 70.1305C121.649 70.1352 121.455 70.1424 121.197 70.1424V36.1424ZM149.51 51.3097C146.687 43.6912 140.524 39.8929 135.809 38.181C131.281 36.5375 126.485 36.1424 122.352 36.1424V70.1424C124.685 70.1424 124.994 70.4261 124.207 70.1403C123.717 69.9625 122.554 69.4707 121.233 68.3369C119.816 67.1219 118.46 65.3681 117.627 63.1218L149.51 51.3097ZM150.569 60.9779V57.2157H116.569V60.9779H150.569ZM158.038 20.5844H147.291V54.5844H158.038V20.5844ZM175.038 42.9401V37.5844H141.038V42.9401H175.038ZM147.291 59.9401H158.038V25.9401H147.291V59.9401ZM130.291 37.5844V42.9401H164.291V37.5844H130.291ZM147.291 62.0616H158.038V28.0616H147.291V62.0616ZM164.291 72.4908V45.0616H130.291V72.4908H164.291ZM158.038 55.4908H147.291V89.4908H158.038V55.4908ZM141.038 45.0616V72.4908H175.038V45.0616H141.038ZM217.151 58.3825C216.802 53.9728 215.925 49.369 214.035 45.0356L182.87 58.6278C182.825 58.5239 182.888 58.64 182.982 59.0619C183.075 59.4826 183.183 60.1345 183.257 61.0652L217.151 58.3825ZM217.567 72.5487C217.577 67.0069 217.454 62.2185 217.151 58.3823L183.257 61.0654C183.456 63.5844 183.576 67.3388 183.567 72.4895L217.567 72.5487ZM189.686 89.5191H200.567V55.5191H189.686V89.5191ZM172.648 70.5471C172.674 71.3486 172.686 71.9894 172.686 72.5191H206.686C206.686 71.4836 206.662 70.446 206.631 69.4749L172.648 70.5471ZM178.042 90C185.104 90 192.046 88.3606 198.331 84.6211L180.948 55.4008C180.545 55.6405 179.755 56 178.042 56V90ZM174.221 89.9445C175.315 89.9788 176.583 90 178.042 90V56C176.911 56 175.999 55.9835 175.285 55.9612L174.221 89.9445ZM169.85 89.6446C171.257 89.775 172.79 89.8993 174.216 89.9444L175.291 55.9614C174.928 55.9499 174.226 55.9044 172.987 55.7896L169.85 89.6446ZM164.126 88.7383C165.987 89.1802 167.921 89.4672 169.861 89.6456L172.976 55.7886C172.251 55.7219 171.95 55.6506 171.984 55.6588L164.126 88.7383ZM158.315 86.7566C160.149 87.5646 162.04 88.2221 163.965 88.6991L172.146 55.6979C172.198 55.7109 172.211 55.7167 172.187 55.7083C172.163 55.7 172.107 55.6794 172.02 55.6415L158.315 86.7566ZM150.887 81.8325C153.274 84.1416 155.905 85.6955 158.315 86.7566L172.02 55.6414C172.417 55.8163 173.409 56.3141 174.529 57.3974L150.887 81.8325ZM145.504 73.9134C146.627 76.5487 148.329 79.3571 150.887 81.8326L174.529 57.3973C175.821 58.647 176.479 59.8713 176.782 60.5831L145.504 73.9134ZM143.528 64.0518C143.528 67.2403 144.096 70.6082 145.504 73.9133L176.782 60.5832C177.371 61.9648 177.528 63.2017 177.528 64.0518H143.528ZM149.193 48.975C145.486 53.2002 143.528 58.4773 143.528 64.0518H177.528C177.528 65.1848 177.337 66.527 176.81 67.9332C176.283 69.3419 175.535 70.5043 174.752 71.3968L149.193 48.975ZM159.929 41.6939C156.246 43.0814 152.379 45.3425 149.193 48.9749L174.752 71.3968C173.484 72.8417 172.245 73.3867 171.916 73.5107L159.929 41.6939ZM168.853 39.4C165.874 39.8531 162.853 40.586 159.899 41.7049L171.945 73.4997C172.326 73.3552 172.976 73.164 173.965 73.0136L168.853 39.4ZM177.846 38.7542C174.808 38.7542 171.807 38.953 168.865 39.3982L173.953 73.0154C174.998 72.8572 176.282 72.7542 177.846 72.7542V38.7542ZM194.35 41.5656C189.026 39.5944 183.456 38.7542 177.846 38.7542V72.7542C180.062 72.7542 181.553 73.0832 182.545 73.4504L194.35 41.5656ZM179.078 69.6322C177.198 68.8995 175.544 67.7065 174.285 66.2437C173.096 64.8604 172.553 63.5812 172.324 62.8972L204.571 52.1189C202.76 46.7009 198.745 40.8064 191.426 37.9537L179.078 69.6322ZM178.135 69.916C178.697 69.916 179.158 69.9288 179.527 69.948C179.898 69.9673 180.142 69.9913 180.276 70.0078C180.415 70.0249 180.379 70.027 180.207 69.9879C180.045 69.9511 179.628 69.8481 179.045 69.6192L191.459 37.9667C186.846 36.1571 181.775 35.916 178.135 35.916V69.916ZM173.029 70.2732C174.551 70.0438 176.252 69.916 178.135 69.916V35.916C174.726 35.916 171.322 36.1466 167.963 36.6527L173.029 70.2732ZM170.77 70.5718C170.325 70.7076 170.057 70.7624 170.123 70.748C170.143 70.7437 170.265 70.7178 170.522 70.6712C171.039 70.5774 171.832 70.4484 172.956 70.284L168.036 36.6419C165.923 36.951 163.001 37.3952 160.85 38.0513L170.77 70.5718ZM169.521 70.9664C169.766 70.8838 170.153 70.7602 170.77 70.5719L160.85 38.0512C160.108 38.2778 159.358 38.5125 158.652 38.7504L169.521 70.9664ZM145.477 52.6772L147.936 60.1639L180.238 49.5529L177.778 42.0663L145.477 52.6772ZM178.806 27.3922C170.814 27.3922 163.092 28.7106 155.742 31.423L167.513 63.3205C170.894 62.0727 174.612 61.3922 178.806 61.3922V27.3922ZM183.708 27.5452C182.178 27.4535 180.538 27.3922 178.806 27.3922V61.3922C179.738 61.3922 180.687 61.4252 181.673 61.4842L183.708 27.5452ZM190.106 28.3325C187.964 27.9594 185.797 27.6696 183.701 27.5448L181.68 61.4847C182.117 61.5107 182.95 61.5981 184.273 61.8284L190.106 28.3325ZM197.772 30.3532C195.193 29.3942 192.585 28.7641 190.106 28.3325L184.273 61.8284C185.26 62.0003 185.764 62.1623 185.923 62.2216L197.772 30.3532ZM206.224 35.1032C203.698 33.1274 200.872 31.5058 197.772 30.3532L185.923 62.2216C185.562 62.0873 185.344 61.9367 185.278 61.8844L206.224 35.1032ZM213.957 44.8585C212.128 40.7926 209.366 37.5415 206.175 35.0649L185.327 61.9228C184.614 61.3697 183.641 60.3438 182.948 58.8049L213.957 44.8585ZM174.945 54.3182C175.949 52.861 176.996 51.8466 177.734 51.2136C178.492 50.5639 179.17 50.1085 179.641 49.8173C180.548 49.2568 181.255 48.9602 181.493 48.8635C181.975 48.6673 182.063 48.6799 181.436 48.8395L189.814 81.7911C191.114 81.4604 192.722 81.0015 194.31 80.3551C195.101 80.0332 196.258 79.5168 197.511 78.7421C198.543 78.105 200.936 76.519 202.938 73.6157L174.945 54.3182ZM171.941 63.4483V63.9669H205.941V63.4483H171.941ZM179.858 79.2131C182.119 79.2131 183.301 79.3111 183.717 79.3677C183.934 79.3972 183.524 79.3614 182.762 79.1207C182.36 78.9938 181.665 78.7496 180.815 78.3175C179.993 77.9001 178.69 77.139 177.319 75.8551L200.563 51.0416C197.613 48.2775 194.423 47.148 192.997 46.6978C191.258 46.1487 189.602 45.8553 188.304 45.6785C185.689 45.3226 182.768 45.2131 179.858 45.2131V79.2131ZM178.585 79.0965C178.119 79.22 177.813 79.2678 177.74 79.2789C177.652 79.292 177.677 79.285 177.843 79.2716C178.192 79.2436 178.837 79.2131 179.858 79.2131V45.2131C177.106 45.2131 173.306 45.32 169.86 46.2349L178.585 79.0965ZM189.518 64.0612C189.518 69.7138 186.644 73.998 183.701 76.4033C181.309 78.3579 179.091 78.962 178.584 79.0965L169.86 46.2349C168.217 46.6712 165.146 47.6572 162.186 50.0761C158.675 52.9458 155.518 57.7769 155.518 64.0612H189.518ZM179.281 49.0508C177.444 49.0508 177.731 48.871 179.001 49.244C179.619 49.4256 181.852 50.1231 184.193 52.1901C187.032 54.6969 189.518 58.8488 189.518 64.0612H155.518C155.518 69.9384 158.285 74.6714 161.688 77.6759C164.592 80.2406 167.671 81.3524 169.416 81.8651C172.94 82.9005 176.608 83.0508 179.281 83.0508V49.0508ZM181.436 48.8395C181.07 48.9325 180.384 49.0508 179.281 49.0508V83.0508C182.78 83.0508 186.323 82.6787 189.814 81.7911L181.436 48.8395ZM193.859 19.7351V13.9739H159.859V19.7351H193.859ZM111.836 5.82717V15.0205H145.836V5.82717H111.836ZM66.1337 61.0251L66.1461 60.7074L32.1719 59.3814L32.1595 59.6992L66.1337 61.0251ZM122.352 36.1424H121.197V70.1424H122.352V36.1424ZM193.854 19.1122L193.854 19.1101L159.948 21.6278L159.948 21.6299L193.854 19.1122ZM193.847 19.0116C193.84 18.9276 193.836 18.8731 193.832 18.8277C193.828 18.7817 193.828 18.774 193.829 18.7873C193.829 18.7952 193.835 18.8738 193.841 18.9922C193.844 19.0546 193.848 19.1468 193.852 19.2608C193.855 19.3718 193.859 19.5352 193.859 19.7351H159.859C159.859 20.4471 159.905 21.0604 159.912 21.1585C159.926 21.3693 159.945 21.5995 159.955 21.7263L193.847 19.0116ZM66.0589 62.6833C66.0964 61.9995 66.1188 61.4122 66.1339 61.0194L32.159 59.7119C32.1437 60.111 32.1306 60.4451 32.11 60.8188L66.0589 62.6833ZM66.1327 61.0491L66.1328 61.0462L32.1603 59.6794L32.1602 59.6823L66.1327 61.0491Z" fill="#FFFF54" mask="url(#path-1-inside-1)"/>
</svg>
